SplineFontDB: 3.2
FontName: KoreeneSans-SemiBoldItalic
FullName: Koreene Sans SemiBold Italic
FamilyName: Koreene Sans SemiBold
Weight: Demi
Copyright: (C) Copyright HanYang I&C Co.,Ltd. All rights reserved.
Version: 2.50; ttfautohint (v1.8.4.7-5d5b-dirty)
ItalicAngle: 0
UnderlinePosition: -122
UnderlineWidth: 45
Ascent: 819
Descent: 205
InvalidEm: 0
sfntRevision: 0x00020147
LayerCount: 2
Layer: 0 1 "Back" 1
Layer: 1 1 "Fore" 0
XUID: [1021 531 -1996577725 6104527]
StyleMap: 0x0001
FSType: 0
OS2Version: 4
OS2_WeightWidthSlopeOnly: 0
OS2_UseTypoMetrics: 1
CreationTime: 1068260456
ModificationTime: 1706915549
PfmFamily: 81
TTFWeight: 600
TTFWidth: 5
LineGap: 256
VLineGap: 0
Panose: 0 0 0 0 0 0 0 0 0 0
OS2TypoAscent: 970
OS2TypoAOffset: 0
OS2TypoDescent: -235
OS2TypoDOffset: 0
OS2TypoLinegap: 256
OS2WinAscent: 1098
OS2WinAOffset: 0
OS2WinDescent: 363
OS2WinDOffset: 0
HheadAscent: 970
HheadAOffset: 0
HheadDescent: -235
HheadDOffset: 0
OS2SubXSize: 205
OS2SubYSize: 205
OS2SubXOff: 0
OS2SubYOff: 287
OS2SupXSize: 205
OS2SupYSize: 205
OS2SupXOff: 0
OS2SupYOff: 963
OS2StrikeYSize: 102
OS2StrikeYPos: 512
OS2CapHeight: 735
OS2XHeight: 533
OS2Vendor: 'HY  '
OS2CodePages: 2000019f.00000000
OS2UnicodeRanges: e10002ff.4000001b.00000000.00000000
Lookup: 1 0 0 "'aalt' Access All Alternates lookup 0" { "'aalt' Access All Alternates lookup 0 subtable"  } ['aalt' ('DFLT' <'dflt' > 'cyrl' <'dflt' > 'grek' <'dflt' > 'hang' <'dflt' > 'jamo' <'dflt' > 'latn' <'dflt' > ) ]
Lookup: 3 0 0 "'aalt' Access All Alternates lookup 1" { "'aalt' Access All Alternates lookup 1 subtable"  } ['aalt' ('DFLT' <'dflt' > 'cyrl' <'dflt' > 'grek' <'dflt' > 'hang' <'dflt' > 'jamo' <'dflt' > 'latn' <'dflt' > ) ]
Lookup: 1 0 0 "'locl' Localized Forms in Latin lookup 2" { "'locl' Localized Forms in Latin lookup 2 subtable"  } ['locl' ('latn' <'MOL ' > ) ]
Lookup: 1 0 0 "'locl' Localized Forms in Latin lookup 3" { "'locl' Localized Forms in Latin lookup 3 subtable"  } ['locl' ('latn' <'ROM ' > ) ]

StartChar: exclam
Encoding: 33 33 4
Width: 292
GlyphClass: 2
Flags: W
LayerCount: 2
Fore
SplineSet
26 -7 m 1,0,-1
 48 126 l 1,1,-1
 192 126 l 1,2,-1
 170 -7 l 1,3,-1
 26 -7 l 1,0,-1
182 207 m 1,4,-1
 85 207 l 1,5,-1
 164 739 l 1,6,-1
 279 739 l 1,7,-1
 182 207 l 1,4,-1
EndSplineSet
EndChar

StartChar: quotedbl
Encoding: 34 34 5
Width: 515
GlyphClass: 2
Flags: W
LayerCount: 2
Fore
SplineSet
312 523 m 1,0,-1
 447 819 l 1,1,-1
 571 819 l 1,2,-1
 396 523 l 1,3,-1
 312 523 l 1,0,-1
100 523 m 1,4,-1
 234 819 l 1,5,-1
 358 819 l 1,6,-1
 183 523 l 1,7,-1
 100 523 l 1,4,-1
EndSplineSet
EndChar

StartChar: numbersign
Encoding: 35 35 6
Width: 704
GlyphClass: 2
Flags: W
LayerCount: 2
Fore
SplineSet
29 189 m 1,0,-1
 42 271 l 1,1,-1
 164 271 l 1,2,-1
 216 445 l 1,3,-1
 102 445 l 1,4,-1
 115 525 l 1,5,-1
 239 525 l 1,6,-1
 295 713 l 1,7,-1
 388 713 l 1,8,-1
 333 525 l 1,9,-1
 495 525 l 1,10,-1
 552 713 l 1,11,-1
 645 713 l 1,12,-1
 589 525 l 1,13,-1
 700 525 l 1,14,-1
 687 445 l 1,15,-1
 565 445 l 1,16,-1
 516 271 l 1,17,-1
 628 271 l 1,18,-1
 614 189 l 1,19,-1
 490 189 l 1,20,-1
 436 2 l 1,21,-1
 340 2 l 1,22,-1
 396 189 l 1,23,-1
 235 189 l 1,24,-1
 179 2 l 1,25,-1
 84 2 l 1,26,-1
 141 189 l 1,27,-1
 29 189 l 1,0,-1
259 271 m 1,28,-1
 420 271 l 1,29,-1
 472 445 l 1,30,-1
 308 445 l 1,31,-1
 259 271 l 1,28,-1
EndSplineSet
EndChar

StartChar: dollar
Encoding: 36 36 7
Width: 565
GlyphClass: 2
Flags: W
LayerCount: 2
Fore
SplineSet
23 148 m 1,0,-1
 108 185 l 1,1,2
 128 140 128 140 167 114.5 c 128,-1,3
 206 89 206 89 255 89 c 0,4,5
 306 89 306 89 346 117 c 128,-1,6
 386 145 386 145 395 198 c 0,7,8
 398 219 398 219 393.5 237 c 128,-1,9
 389 255 389 255 379 267 c 128,-1,10
 369 279 369 279 348.5 292.5 c 128,-1,11
 328 306 328 306 311 314.5 c 128,-1,12
 294 323 294 323 262 337.5 c 128,-1,13
 230 352 230 352 209 363 c 0,14,15
 148 395 148 395 124 438.5 c 128,-1,16
 100 482 100 482 110 545 c 0,17,18
 120 607 120 607 173.5 662 c 128,-1,19
 227 717 227 717 311 729 c 1,20,-1
 325 811 l 1,21,-1
 421 811 l 1,22,-1
 407 727 l 1,23,24
 459 724 459 724 501 685.5 c 128,-1,25
 543 647 543 647 554 603 c 1,26,-1
 468 565 l 1,27,28
 428 645 428 645 344 645 c 0,29,30
 293 645 293 645 257.5 616 c 128,-1,31
 222 587 222 587 215 544 c 0,32,33
 213 531 213 531 213.5 520 c 128,-1,34
 214 509 214 509 218.5 499 c 128,-1,35
 223 489 223 489 227 482 c 128,-1,36
 231 475 231 475 242.5 466.5 c 128,-1,37
 254 458 254 458 261 452.5 c 128,-1,38
 268 447 268 447 284.5 438.5 c 128,-1,39
 301 430 301 430 310 426 c 128,-1,40
 319 422 319 422 341 412.5 c 128,-1,41
 363 403 363 403 375 397 c 0,42,43
 406 383 406 383 428 368.5 c 128,-1,44
 450 354 450 354 471 331 c 128,-1,45
 492 308 492 308 501 277 c 128,-1,46
 510 246 510 246 503 207 c 0,47,48
 489 123 489 123 430 69.5 c 128,-1,49
 371 16 371 16 287 4 c 1,50,-1
 275 -73 l 1,51,-1
 178 -73 l 1,52,-1
 192 6 l 1,53,54
 137 10 137 10 89 50.5 c 128,-1,55
 41 91 41 91 23 148 c 1,0,-1
EndSplineSet
EndChar

StartChar: percent
Encoding: 37 37 8
Width: 962
GlyphClass: 2
Flags: W
LayerCount: 2
Fore
SplineSet
500 166 m 256,0,1
 513 246 513 246 575.5 298 c 128,-1,2
 638 350 638 350 723 350 c 256,3,4
 807 350 807 350 852.5 298 c 128,-1,5
 898 246 898 246 884 166 c 0,6,7
 871 85 871 85 808 34 c 128,-1,8
 745 -17 745 -17 662 -17 c 256,9,10
 579 -17 579 -17 533 34.5 c 128,-1,11
 487 86 487 86 500 166 c 256,0,1
598 166 m 0,12,13
 590 118 590 118 613 90.5 c 128,-1,14
 636 63 636 63 675 63 c 0,15,16
 715 63 715 63 748 91 c 128,-1,17
 781 119 781 119 788 166 c 0,18,19
 796 214 796 214 773.5 242 c 128,-1,20
 751 270 751 270 710 270 c 0,21,22
 671 270 671 270 638.5 241.5 c 128,-1,23
 606 213 606 213 598 166 c 0,12,13
106 568 m 256,24,25
 119 648 119 648 181.5 700 c 128,-1,26
 244 752 244 752 329 752 c 256,27,28
 413 752 413 752 458.5 700 c 128,-1,29
 504 648 504 648 490 568 c 0,30,31
 477 487 477 487 414 436.5 c 128,-1,32
 351 386 351 386 268 386 c 256,33,34
 185 386 185 386 139 437 c 128,-1,35
 93 488 93 488 106 568 c 256,24,25
203 568 m 0,36,37
 195 520 195 520 218.5 492.5 c 128,-1,38
 242 465 242 465 281 465 c 0,39,40
 321 465 321 465 353.5 493.5 c 128,-1,41
 386 522 386 522 393 568 c 0,42,43
 401 616 401 616 378.5 644.5 c 128,-1,44
 356 673 356 673 316 673 c 256,45,46
 276 673 276 673 243.5 644 c 128,-1,47
 211 615 211 615 203 568 c 0,36,37
126 -4 m 1,48,-1
 760 739 l 1,49,-1
 866 739 l 1,50,-1
 230 -4 l 1,51,-1
 126 -4 l 1,48,-1
EndSplineSet
EndChar

StartChar: ampersand
Encoding: 38 38 9
Width: 647
GlyphClass: 2
Flags: W
LayerCount: 2
Fore
SplineSet
136 193 m 0,0,1
 127 137 127 137 157.5 104.5 c 128,-1,2
 188 72 188 72 244 72 c 0,3,4
 318 72 318 72 391 142 c 1,5,-1
 267 359 l 1,6,7
 151 282 151 282 136 193 c 0,0,1
30 191 m 0,8,9
 53 330 53 330 227 433 c 1,10,11
 207 469 207 469 200.5 482.5 c 128,-1,12
 194 496 194 496 187.5 523.5 c 128,-1,13
 181 551 181 551 185 579 c 0,14,15
 197 649 197 649 254.5 694 c 128,-1,16
 312 739 312 739 398 739 c 0,17,18
 472 739 472 739 516 701.5 c 128,-1,19
 560 664 560 664 575 605 c 1,20,-1
 493 571 l 1,21,22
 481 604 481 604 455 627.5 c 128,-1,23
 429 651 429 651 391 651 c 0,24,25
 350 651 350 651 323 629.5 c 128,-1,26
 296 608 296 608 291 575 c 0,27,28
 288 558 288 558 294 534 c 128,-1,29
 300 510 300 510 326.5 460.5 c 128,-1,30
 353 411 353 411 369.5 382 c 128,-1,31
 386 353 386 353 434 271 c 0,32,33
 450 244 450 244 459 230 c 1,34,35
 489 280 489 280 514 356 c 1,36,-1
 605 339 l 1,37,38
 572 233 572 233 509 145 c 1,39,-1
 595 0 l 1,40,-1
 472 0 l 1,41,-1
 434 63 l 1,42,43
 342 -17 342 -17 228 -17 c 0,44,45
 118 -17 118 -17 66.5 43 c 128,-1,46
 15 103 15 103 30 191 c 0,8,9
EndSplineSet
EndChar

StartChar: quotesingle
Encoding: 39 39 10
Width: 316
GlyphClass: 2
Flags: W
LayerCount: 2
Fore
SplineSet
112 523 m 1,0,-1
 247 819 l 1,1,-1
 371 819 l 1,2,-1
 197 523 l 1,3,-1
 112 523 l 1,0,-1
EndSplineSet
EndChar

StartChar: parenleft
Encoding: 40 40 11
Width: 421
GlyphClass: 2
Flags: W
LayerCount: 2
Fore
SplineSet
132 353 m 0,0,1
 178 631 178 631 382 851 c 1,2,-1
 450 808 l 1,3,4
 373 707 373 707 342 656 c 0,5,6
 262 523 262 523 234 353 c 0,7,8
 217 250 217 250 224.5 161 c 128,-1,9
 232 72 232 72 249.5 19.5 c 128,-1,10
 267 -33 267 -33 299 -102 c 1,11,-1
 217 -146 l 1,12,13
 156 -38 156 -38 131.5 80.5 c 128,-1,14
 107 199 107 199 132 353 c 0,0,1
EndSplineSet
Substitution2: "'sups' Superscript lookup 5 subtable" uni207D
Substitution2: "'aalt' Access All Alternates lookup 0 subtable" uni207D
EndChar

StartChar: parenright
Encoding: 41 41 12
Width: 421
GlyphClass: 2
Flags: W
LayerCount: 2
Fore
SplineSet
-6 -102 m 1,0,1
 84 8 84 8 135 112.5 c 128,-1,2
 186 217 186 217 209 353 c 0,3,4
 222 433 222 433 222.5 501 c 128,-1,5
 223 569 223 569 209.5 626 c 128,-1,6
 196 683 196 683 182.5 720 c 128,-1,7
 169 757 169 757 145 808 c 1,8,-1
 227 851 l 1,9,10
 357 628 357 628 311 353 c 0,11,12
 285 198 285 198 221 79.5 c 128,-1,13
 157 -39 157 -39 62 -146 c 1,14,-1
 -6 -102 l 1,0,1
EndSplineSet
Substitution2: "'sups' Superscript lookup 5 subtable" uni207E
Substitution2: "'aalt' Access All Alternates lookup 0 subtable" uni207E
EndChar

StartChar: asterisk
Encoding: 42 42 13
Width: 543
GlyphClass: 2
Flags: W
LayerCount: 2
Fore
SplineSet
39 407 m 1,0,-1
 89 492 l 1,1,-1
 253 422 l 1,2,-1
 277 607 l 1,3,-1
 373 607 l 1,4,-1
 336 422 l 1,5,-1
 523 492 l 1,6,-1
 545 407 l 1,7,-1
 344 344 l 1,8,-1
 462 184 l 1,9,-1
 375 125 l 1,10,-1
 274 298 l 1,11,-1
 116 125 l 1,12,-1
 48 184 l 1,13,-1
 219 344 l 1,14,-1
 39 407 l 1,0,-1
EndSplineSet
EndChar

StartChar: plus
Encoding: 43 43 14
Width: 542
GlyphClass: 2
Flags: W
LayerCount: 2
Fore
SplineSet
29 317 m 1,0,-1
 44 409 l 1,1,-1
 240 409 l 1,2,-1
 273 609 l 1,3,-1
 375 609 l 1,4,-1
 342 409 l 1,5,-1
 538 409 l 1,6,-1
 523 317 l 1,7,-1
 327 317 l 1,8,-1
 293 110 l 1,9,-1
 191 110 l 1,10,-1
 225 317 l 1,11,-1
 29 317 l 1,0,-1
EndSplineSet
Substitution2: "'sups' Superscript lookup 5 subtable" uni207A
Substitution2: "'aalt' Access All Alternates lookup 0 subtable" uni207A
EndChar

StartChar: comma
Encoding: 44 44 15
Width: 275
GlyphClass: 2
Flags: W
LayerCount: 2
Fore
SplineSet
-62 -161 m 1,0,-1
 72 135 l 1,1,-1
 195 135 l 1,2,-1
 21 -161 l 1,3,-1
 -62 -161 l 1,0,-1
EndSplineSet
EndChar

StartChar: hyphen
Encoding: 45 45 16
Width: 377
GlyphClass: 2
Flags: W
LayerCount: 2
Fore
SplineSet
36 317 m 1,0,-1
 51 409 l 1,1,-1
 368 409 l 1,2,-1
 353 317 l 1,3,-1
 36 317 l 1,0,-1
EndSplineSet
EndChar

StartChar: period
Encoding: 46 46 17
Width: 275
GlyphClass: 2
Flags: W
LayerCount: 2
Fore
SplineSet
17 0 m 1,0,-1
 39 135 l 1,1,-1
 183 135 l 1,2,-1
 160 0 l 1,3,-1
 17 0 l 1,0,-1
EndSplineSet
EndChar

StartChar: slash
Encoding: 47 47 18
Width: 358
GlyphClass: 2
Flags: W
LayerCount: 2
Fore
SplineSet
-69 -54 m 1,0,-1
 347 782 l 1,1,-1
 454 782 l 1,2,-1
 39 -54 l 1,3,-1
 -69 -54 l 1,0,-1
EndSplineSet
EndChar

StartChar: zero
Encoding: 48 48 19
Width: 550
GlyphClass: 2
Flags: W
LayerCount: 2
Fore
SplineSet
165 367 m 256,0,1
 151 281 151 281 151.5 217.5 c 128,-1,2
 152 154 152 154 175 113 c 128,-1,3
 198 72 198 72 242 72 c 0,4,5
 276 72 276 72 304.5 96 c 128,-1,6
 333 120 333 120 354 163.5 c 128,-1,7
 375 207 375 207 389 256.5 c 128,-1,8
 403 306 403 306 413 367 c 0,9,10
 423 429 423 429 425.5 481 c 128,-1,11
 428 533 428 533 420 575 c 128,-1,12
 412 617 412 617 391.5 640 c 128,-1,13
 371 663 371 663 338 663 c 0,14,15
 295 663 295 663 259 622 c 128,-1,16
 223 581 223 581 201 517 c 128,-1,17
 179 453 179 453 165 367 c 256,0,1
56 367 m 0,18,19
 74 474 74 474 107 552.5 c 128,-1,20
 140 631 140 631 182.5 672.5 c 128,-1,21
 225 714 225 714 267 733 c 128,-1,22
 309 752 309 752 352 752 c 0,23,24
 464 752 464 752 508 651.5 c 128,-1,25
 552 551 552 551 522 367 c 0,26,27
 493 192 493 192 417 87.5 c 128,-1,28
 341 -17 341 -17 227 -17 c 0,29,30
 184 -17 184 -17 148 2 c 128,-1,31
 112 21 112 21 83.5 62.5 c 128,-1,32
 55 104 55 104 46.5 182.5 c 128,-1,33
 38 261 38 261 56 367 c 0,18,19
EndSplineSet
EndChar

StartChar: one
Encoding: 49 49 20
Width: 550
GlyphClass: 2
Flags: W
LayerCount: 2
Fore
SplineSet
126 533 m 1,0,-1
 139 615 l 1,1,-1
 171 615 l 2,2,3
 317 615 317 615 334 722 c 2,4,-1
 338 742 l 1,5,-1
 429 742 l 1,6,-1
 305 -9 l 1,7,-1
 197 -9 l 1,8,-1
 286 533 l 1,9,-1
 126 533 l 1,0,-1
EndSplineSet
Substitution2: "'subs' Subscript lookup 6 subtable" uni2081
Substitution2: "'sups' Superscript lookup 5 subtable" onesuperior
Substitution2: "'sinf' Scientific Inferiors lookup 4 subtable" uni2081
AlternateSubs2: "'aalt' Access All Alternates lookup 1 subtable" uni2081 onesuperior
EndChar

StartChar: two
Encoding: 50 50 21
Width: 550
GlyphClass: 2
Flags: W
LayerCount: 2
Fore
SplineSet
92 559 m 1,0,1
 127 649 127 649 193 700.5 c 128,-1,2
 259 752 259 752 349 752 c 0,3,4
 445 752 445 752 497 696 c 128,-1,5
 549 640 549 640 533 543 c 0,6,7
 515 433 515 433 385 324 c 0,8,9
 374 315 374 315 336 283 c 128,-1,10
 298 251 298 251 287 241 c 128,-1,11
 276 231 276 231 247.5 206 c 128,-1,12
 219 181 219 181 207 166 c 128,-1,13
 195 151 195 151 178 130.5 c 128,-1,14
 161 110 161 110 148 89 c 1,15,-1
 456 89 l 1,16,-1
 441 0 l 1,17,-1
 5 0 l 1,18,19
 12 42 12 42 33 83.5 c 128,-1,20
 54 125 54 125 78 157 c 128,-1,21
 102 189 102 189 144 230 c 128,-1,22
 186 271 186 271 215 296.5 c 128,-1,23
 244 322 244 322 295 363 c 0,24,25
 306 373 306 373 312 377 c 0,26,27
 410 459 410 459 424 545 c 0,28,29
 433 601 433 601 408 632 c 128,-1,30
 383 663 383 663 333 663 c 0,31,32
 281 663 281 663 241.5 628 c 128,-1,33
 202 593 202 593 178 532 c 1,34,-1
 92 559 l 1,0,1
EndSplineSet
Substitution2: "'subs' Subscript lookup 6 subtable" uni2082
Substitution2: "'sups' Superscript lookup 5 subtable" twosuperior
Substitution2: "'sinf' Scientific Inferiors lookup 4 subtable" uni2082
AlternateSubs2: "'aalt' Access All Alternates lookup 1 subtable" uni2082 twosuperior
EndChar

StartChar: three
Encoding: 51 51 22
Width: 550
GlyphClass: 2
Flags: W
LayerCount: 2
Fore
SplineSet
10 142 m 1,0,-1
 101 174 l 1,1,2
 131 72 131 72 230 72 c 0,3,4
 287 72 287 72 331.5 107.5 c 128,-1,5
 376 143 376 143 387 208 c 0,6,7
 397 269 397 269 360.5 305 c 128,-1,8
 324 341 324 341 261 341 c 0,9,10
 234 341 234 341 196 338 c 1,11,-1
 211 426 l 1,12,13
 233 424 233 424 270 424 c 0,14,15
 323 424 323 424 364.5 457 c 128,-1,16
 406 490 406 490 415 548 c 0,17,18
 423 598 423 598 397.5 630.5 c 128,-1,19
 372 663 372 663 323 663 c 0,20,21
 240 663 240 663 182 556 c 1,22,-1
 100 584 l 1,23,24
 133 658 133 658 196.5 705 c 128,-1,25
 260 752 260 752 344 752 c 0,26,27
 442 752 442 752 491.5 697 c 128,-1,28
 541 642 541 642 527 558 c 0,29,30
 517 498 517 498 480 454 c 128,-1,31
 443 410 443 410 395 389 c 1,32,33
 445 372 445 372 476.5 326 c 128,-1,34
 508 280 508 280 496 208 c 0,35,36
 478 102 478 102 402 42.5 c 128,-1,37
 326 -17 326 -17 216 -17 c 0,38,39
 129 -17 129 -17 75 29 c 128,-1,40
 21 75 21 75 10 142 c 1,0,-1
EndSplineSet
Substitution2: "'subs' Subscript lookup 6 subtable" uni2083
Substitution2: "'sups' Superscript lookup 5 subtable" threesuperior
Substitution2: "'sinf' Scientific Inferiors lookup 4 subtable" uni2083
AlternateSubs2: "'aalt' Access All Alternates lookup 1 subtable" uni2083 threesuperior
EndChar

StartChar: four
Encoding: 52 52 23
Width: 550
GlyphClass: 2
Flags: W
LayerCount: 2
Fore
SplineSet
19 244 m 1,0,-1
 423 743 l 1,1,-1
 515 743 l 1,2,-1
 433 246 l 1,3,-1
 526 246 l 1,4,-1
 511 157 l 1,5,-1
 418 157 l 1,6,-1
 391 -8 l 1,7,-1
 285 -8 l 1,8,-1
 312 157 l 1,9,-1
 4 157 l 1,10,-1
 19 244 l 1,0,-1
120 246 m 1,11,-1
 327 246 l 1,12,-1
 365 477 l 2,13,14
 374 531 374 531 386 581 c 1,15,-1
 382 581 l 1,16,17
 368 562 368 562 342 528 c 128,-1,18
 316 494 316 494 312 489 c 2,19,-1
 120 246 l 1,11,-1
EndSplineSet
Substitution2: "'subs' Subscript lookup 6 subtable" uni2084
Substitution2: "'sups' Superscript lookup 5 subtable" uni2074
Substitution2: "'sinf' Scientific Inferiors lookup 4 subtable" uni2084
AlternateSubs2: "'aalt' Access All Alternates lookup 1 subtable" uni2084 uni2074
EndChar

StartChar: five
Encoding: 53 53 24
Width: 550
GlyphClass: 2
Flags: W
LayerCount: 2
Fore
SplineSet
16 131 m 1,0,-1
 110 164 l 1,1,2
 121 123 121 123 151 97.5 c 128,-1,3
 181 72 181 72 222 72 c 0,4,5
 284 72 284 72 326.5 114.5 c 128,-1,6
 369 157 369 157 380 226 c 0,7,8
 391 294 391 294 360.5 337.5 c 128,-1,9
 330 381 330 381 270 381 c 0,10,11
 199 381 199 381 136 314 c 1,12,-1
 74 341 l 1,13,-1
 176 735 l 1,14,-1
 533 735 l 1,15,-1
 518 646 l 1,16,-1
 259 646 l 1,17,-1
 201 434 l 1,18,19
 256 469 256 469 322 469 c 0,20,21
 414 469 414 469 461.5 404 c 128,-1,22
 509 339 509 339 490 228 c 0,23,24
 482 181 482 181 461.5 138.5 c 128,-1,25
 441 96 441 96 407 60.5 c 128,-1,26
 373 25 373 25 322 4 c 128,-1,27
 271 -17 271 -17 210 -17 c 0,28,29
 131 -17 131 -17 82 23 c 128,-1,30
 33 63 33 63 16 131 c 1,0,-1
EndSplineSet
EndChar

StartChar: six
Encoding: 54 54 25
Width: 550
GlyphClass: 2
Flags: W
LayerCount: 2
Fore
SplineSet
149 233 m 0,0,1
 137 160 137 160 164 116 c 0,2,3
 190 72 190 72 246 72 c 0,4,5
 300 72 300 72 342 115.5 c 128,-1,6
 384 159 384 159 397 233 c 256,7,8
 409 307 409 307 381.5 350 c 128,-1,9
 354 393 354 393 299 393 c 0,10,11
 245 393 245 393 203 348.5 c 128,-1,12
 161 304 161 304 149 233 c 0,0,1
53 332 m 0,13,14
 67 415 67 415 94 488 c 128,-1,15
 121 561 121 561 160.5 621.5 c 128,-1,16
 200 682 200 682 257 717 c 128,-1,17
 314 752 314 752 382 752 c 0,18,19
 521 752 521 752 560 606 c 1,20,-1
 471 577 l 1,21,22
 440 663 440 663 368 663 c 0,23,24
 260 663 260 663 198 481 c 0,25,26
 181 437 181 437 171 396 c 1,27,28
 195 434 195 434 236.5 458 c 128,-1,29
 278 482 278 482 328 482 c 0,30,31
 423 482 423 482 472 411.5 c 128,-1,32
 521 341 521 341 504 234 c 0,33,34
 486 126 486 126 413.5 54.5 c 128,-1,35
 341 -17 341 -17 235 -17 c 0,36,37
 127 -17 127 -17 77 61 c 0,38,39
 22 147 22 147 53 332 c 0,13,14
EndSplineSet
EndChar

StartChar: seven
Encoding: 55 55 26
Width: 550
GlyphClass: 2
Flags: W
LayerCount: 2
Fore
SplineSet
103 643 m 1,0,-1
 118 735 l 1,1,-1
 572 735 l 1,2,-1
 560 661 l 1,3,4
 335 371 335 371 188 -8 c 1,5,-1
 80 -8 l 1,6,7
 198 318 198 318 433 643 c 1,8,-1
 103 643 l 1,0,-1
EndSplineSet
EndChar

StartChar: eight
Encoding: 56 56 27
Width: 550
GlyphClass: 2
Flags: W
LayerCount: 2
Fore
SplineSet
212 548 m 0,0,1
 203 496 203 496 229.5 463.5 c 128,-1,2
 256 431 256 431 301 431 c 0,3,4
 347 431 347 431 382.5 464 c 128,-1,5
 418 497 418 497 427 548 c 0,6,7
 435 597 435 597 410.5 630 c 128,-1,8
 386 663 386 663 339 663 c 0,9,10
 291 663 291 663 255.5 630 c 128,-1,11
 220 597 220 597 212 548 c 0,0,1
24 201 m 0,12,13
 36 275 36 275 82.5 322.5 c 128,-1,14
 129 370 129 370 184 390 c 1,15,16
 87 442 87 442 105 552 c 0,17,18
 119 638 119 638 190 695 c 128,-1,19
 261 752 261 752 354 752 c 260,20,21
 447 752 447 752 498.5 695 c 128,-1,22
 550 638 550 638 536 552 c 0,23,24
 526 493 526 493 489 452 c 128,-1,25
 452 411 452 411 403 390 c 1,26,27
 455 370 455 370 484.5 321.5 c 128,-1,28
 514 273 514 273 501 200 c 0,29,30
 485 103 485 103 408.5 43 c 128,-1,31
 332 -17 332 -17 226 -17 c 0,32,33
 126 -17 126 -17 66.5 41 c 128,-1,34
 7 99 7 99 24 201 c 0,12,13
134 206 m 0,35,36
 125 149 125 149 154.5 110.5 c 128,-1,37
 184 72 184 72 241 72 c 256,38,39
 298 72 298 72 340.5 110.5 c 128,-1,40
 383 149 383 149 393 206 c 256,41,42
 402 263 402 263 372.5 303 c 128,-1,43
 343 343 343 343 286 343 c 0,44,45
 230 343 230 343 187 303.5 c 128,-1,46
 144 264 144 264 134 206 c 0,35,36
EndSplineSet
EndChar

StartChar: nine
Encoding: 57 57 28
Width: 550
GlyphClass: 2
Flags: W
LayerCount: 2
Fore
SplineSet
182 504 m 0,0,1
 170 432 170 432 198.5 388.5 c 128,-1,2
 227 345 227 345 278 345 c 256,3,4
 330 345 330 345 372 389.5 c 128,-1,5
 414 434 414 434 425 504 c 0,6,7
 436 571 436 571 410.5 617 c 128,-1,8
 385 663 385 663 331 663 c 0,9,10
 278 663 278 663 235.5 618 c 128,-1,11
 193 573 193 573 182 504 c 0,0,1
15 130 m 1,12,-1
 107 159 l 1,13,14
 136 72 136 72 212 72 c 0,15,16
 252 72 252 72 285.5 94 c 128,-1,17
 319 116 319 116 342 156 c 128,-1,18
 365 196 365 196 380 240.5 c 128,-1,19
 395 285 395 285 405 337 c 1,20,21
 380 304 380 304 339.5 280 c 128,-1,22
 299 256 299 256 248 256 c 0,23,24
 160 256 160 256 108.5 323.5 c 128,-1,25
 57 391 57 391 75 503 c 0,26,27
 93 613 93 613 169 682.5 c 128,-1,28
 245 752 245 752 345 752 c 0,29,30
 429 752 429 752 478 697 c 128,-1,31
 527 642 527 642 531 553 c 0,32,33
 534 495 534 495 519 403 c 0,34,35
 486 203 486 203 405.5 93 c 128,-1,36
 325 -17 325 -17 195 -17 c 0,37,38
 121 -17 121 -17 74.5 27.5 c 128,-1,39
 28 72 28 72 15 130 c 1,12,-1
EndSplineSet
EndChar

StartChar: colon
Encoding: 58 58 29
Width: 275
GlyphClass: 2
Flags: W
LayerCount: 2
Fore
SplineSet
17 0 m 1,0,-1
 39 135 l 1,1,-1
 183 135 l 1,2,-1
 160 0 l 1,3,-1
 17 0 l 1,0,-1
82 392 m 1,4,-1
 105 528 l 1,5,-1
 248 528 l 1,6,-1
 225 392 l 1,7,-1
 82 392 l 1,4,-1
EndSplineSet
EndChar

StartChar: semicolon
Encoding: 59 59 30
Width: 275
GlyphClass: 2
Flags: W
LayerCount: 2
Fore
SplineSet
-62 -161 m 1,0,-1
 72 135 l 1,1,-1
 195 135 l 1,2,-1
 21 -161 l 1,3,-1
 -62 -161 l 1,0,-1
90 392 m 1,4,-1
 113 528 l 1,5,-1
 256 528 l 1,6,-1
 233 392 l 1,7,-1
 90 392 l 1,4,-1
EndSplineSet
EndChar

StartChar: less
Encoding: 60 60 31
Width: 539
GlyphClass: 2
Flags: W
LayerCount: 2
Fore
SplineSet
44 307 m 1,0,-1
 60 404 l 1,1,-1
 510 709 l 1,2,-1
 553 631 l 1,3,-1
 153 356 l 1,4,-1
 462 81 l 1,5,-1
 393 3 l 1,6,-1
 44 307 l 1,0,-1
EndSplineSet
EndChar

StartChar: equal
Encoding: 61 61 32
Width: 539
GlyphClass: 2
Flags: W
LayerCount: 2
Fore
SplineSet
32 217 m 1,0,-1
 47 308 l 1,1,-1
 500 308 l 1,2,-1
 485 217 l 1,3,-1
 32 217 l 1,0,-1
65 418 m 1,4,-1
 80 510 l 1,5,-1
 534 510 l 1,6,-1
 519 418 l 1,7,-1
 65 418 l 1,4,-1
EndSplineSet
Substitution2: "'sups' Superscript lookup 5 subtable" uni207C
Substitution2: "'aalt' Access All Alternates lookup 0 subtable" uni207C
EndChar

StartChar: greater
Encoding: 62 62 33
Width: 539
GlyphClass: 2
Flags: W
LayerCount: 2
Fore
SplineSet
52 3 m 1,0,-1
 10 81 l 1,1,-1
 410 356 l 1,2,-1
 101 631 l 1,3,-1
 169 709 l 1,4,-1
 520 404 l 1,5,-1
 504 307 l 1,6,-1
 52 3 l 1,0,-1
EndSplineSet
EndChar

StartChar: question
Encoding: 63 63 34
Width: 545
GlyphClass: 2
Flags: W
LayerCount: 2
Fore
SplineSet
105 582 m 1,0,1
 140 657 140 657 205.5 706 c 128,-1,2
 271 755 271 755 354 755 c 0,3,4
 448 755 448 755 496.5 698.5 c 128,-1,5
 545 642 545 642 530 550 c 0,6,7
 523 505 523 505 499.5 469 c 128,-1,8
 476 433 476 433 447.5 409 c 128,-1,9
 419 385 419 385 390.5 361.5 c 128,-1,10
 362 338 362 338 339.5 305 c 128,-1,11
 317 272 317 272 311 233 c 2,12,-1
 306 202 l 1,13,-1
 199 202 l 1,14,-1
 205 241 l 2,15,16
 212 281 212 281 229.5 314 c 128,-1,17
 247 347 247 347 269.5 368.5 c 128,-1,18
 292 390 292 390 316 412.5 c 128,-1,19
 340 435 340 435 361.5 453 c 128,-1,20
 383 471 383 471 400 497.5 c 128,-1,21
 417 524 417 524 421 553 c 0,22,23
 429 603 429 603 407.5 633 c 128,-1,24
 386 663 386 663 340 663 c 0,25,26
 255 663 255 663 193 551 c 1,27,-1
 105 582 l 1,0,1
146 -7 m 1,28,-1
 168 126 l 1,29,-1
 312 126 l 1,30,-1
 290 -7 l 1,31,-1
 146 -7 l 1,28,-1
EndSplineSet
EndChar

StartChar: at
Encoding: 64 64 35
Width: 911
GlyphClass: 2
Flags: W
LayerCount: 2
Fore
SplineSet
57 345 m 256,0,1
 88 531 88 531 226.5 649 c 128,-1,2
 365 767 365 767 555 767 c 0,3,4
 727 767 727 767 818.5 663 c 128,-1,5
 910 559 910 559 884 398 c 0,6,7
 872 323 872 323 843.5 266 c 128,-1,8
 815 209 815 209 779.5 177.5 c 128,-1,9
 744 146 744 146 707.5 130 c 128,-1,10
 671 114 671 114 636 114 c 0,11,12
 595 114 595 114 568 140.5 c 128,-1,13
 541 167 541 167 542 207 c 1,14,-1
 541 207 l 1,15,16
 521 172 521 172 479 143.5 c 128,-1,17
 437 115 437 115 388 115 c 0,18,19
 318 115 318 115 279 170 c 128,-1,20
 240 225 240 225 255 314 c 0,21,22
 275 433 275 433 346.5 501 c 128,-1,23
 418 569 418 569 501 569 c 0,24,25
 538 569 538 569 562 552 c 128,-1,26
 586 535 586 535 595 516 c 1,27,-1
 607 562 l 1,28,-1
 685 562 l 1,29,-1
 622 271 l 2,30,31
 621 266 621 266 621 261 c 0,32,33
 616 231 616 231 624.5 212.5 c 128,-1,34
 633 194 633 194 656 194 c 0,35,36
 698 194 698 194 737.5 247.5 c 128,-1,37
 777 301 777 301 793 393 c 0,38,39
 815 525 815 525 746.5 608 c 128,-1,40
 678 691 678 691 542 691 c 0,41,42
 395 691 395 691 284.5 593.5 c 128,-1,43
 174 496 174 496 149 345 c 0,44,45
 123 186 123 186 198 94 c 128,-1,46
 273 2 273 2 418 2 c 0,47,48
 524 2 524 2 630 31 c 1,49,-1
 635 -40 l 1,50,51
 530 -75 530 -75 405 -75 c 0,52,53
 215 -75 215 -75 120.5 42 c 128,-1,54
 26 159 26 159 57 345 c 256,0,1
352 315 m 0,55,56
 344 267 344 267 360.5 233.5 c 128,-1,57
 377 200 377 200 415 200 c 0,58,59
 457 200 457 200 500.5 246 c 128,-1,60
 544 292 544 292 561 398 c 0,61,62
 568 438 568 438 552 464.5 c 128,-1,63
 536 491 536 491 496 491 c 0,64,65
 452 491 452 491 408.5 442.5 c 128,-1,66
 365 394 365 394 352 315 c 0,55,56
EndSplineSet
EndChar

StartChar: A
Encoding: 65 65 36
Width: 638
GlyphClass: 2
Flags: W
LayerCount: 2
Fore
SplineSet
201 279 m 1,0,-1
 436 279 l 1,1,-1
 401 487 l 2,2,3
 398 504 398 504 390.5 555.5 c 128,-1,4
 383 607 383 607 379 632 c 1,5,-1
 374 632 l 1,6,7
 356 595 356 595 305 487 c 2,8,-1
 201 279 l 1,0,-1
-51 0 m 1,9,-1
 335 735 l 1,10,-1
 454 735 l 1,11,-1
 596 0 l 1,12,-1
 481 0 l 1,13,-1
 450 192 l 1,14,-1
 160 192 l 1,15,-1
 64 0 l 1,16,-1
 -51 0 l 1,9,-1
EndSplineSet
Substitution2: "Single Substitution lookup 12 subtable" ordfeminine
EndChar

StartChar: B
Encoding: 66 66 37
Width: 641
GlyphClass: 2
Flags: W
LayerCount: 2
Fore
SplineSet
34 0 m 1,0,-1
 156 735 l 1,1,-1
 426 735 l 2,2,3
 539 735 539 735 586.5 683.5 c 128,-1,4
 634 632 634 632 619 543 c 0,5,6
 601 435 601 435 499 388 c 1,7,8
 546 371 546 371 573.5 324.5 c 128,-1,9
 601 278 601 278 590 211 c 0,10,11
 575 122 575 122 508 61 c 128,-1,12
 441 0 441 0 340 0 c 2,13,-1
 34 0 l 1,0,-1
155 93 m 1,14,-1
 335 93 l 2,15,16
 388 93 388 93 429.5 123.5 c 128,-1,17
 471 154 471 154 480 210 c 0,18,19
 489 262 489 262 460.5 297.5 c 128,-1,20
 432 333 432 333 371 333 c 2,21,-1
 195 333 l 1,22,-1
 155 93 l 1,14,-1
210 424 m 1,23,-1
 363 424 l 2,24,25
 419 424 419 424 459 452 c 128,-1,26
 499 480 499 480 508 534 c 0,27,28
 516 584 516 584 491.5 613 c 128,-1,29
 467 642 467 642 403 642 c 2,30,-1
 246 642 l 1,31,-1
 210 424 l 1,23,-1
EndSplineSet
EndChar

StartChar: C
Encoding: 67 67 38
Width: 640
GlyphClass: 2
Flags: W
LayerCount: 2
Fore
SplineSet
53 367 m 0,0,1
 82 545 82 545 187 648.5 c 128,-1,2
 292 752 292 752 432 752 c 0,3,4
 522 752 522 752 577 702 c 128,-1,5
 632 652 632 652 651 580 c 1,6,-1
 554 549 l 1,7,8
 511 659 511 659 415 659 c 0,9,10
 322 659 322 659 253 579 c 128,-1,11
 184 499 184 499 162 367 c 0,12,13
 140 233 140 233 183.5 154.5 c 128,-1,14
 227 76 227 76 318 76 c 0,15,16
 379 76 379 76 429.5 112 c 128,-1,17
 480 148 480 148 510 200 c 1,18,-1
 601 169 l 1,19,20
 581 135 581 135 555 105.5 c 128,-1,21
 529 76 529 76 493 46.5 c 128,-1,22
 457 17 457 17 408 0 c 128,-1,23
 359 -17 359 -17 305 -17 c 0,24,25
 168 -17 168 -17 95.5 85 c 128,-1,26
 23 187 23 187 53 367 c 0,0,1
EndSplineSet
EndChar

StartChar: D
Encoding: 68 68 39
Width: 663
GlyphClass: 2
Flags: W
LayerCount: 2
Fore
SplineSet
34 0 m 1,0,-1
 156 735 l 1,1,-1
 363 735 l 2,2,3
 524 735 524 735 597 640.5 c 128,-1,4
 670 546 670 546 641 367 c 0,5,6
 628 288 628 288 597.5 223.5 c 128,-1,7
 567 159 567 159 519.5 108 c 128,-1,8
 472 57 472 57 400.5 28.5 c 128,-1,9
 329 0 329 0 240 0 c 2,10,-1
 34 0 l 1,0,-1
155 92 m 1,11,-1
 243 92 l 2,12,13
 484 92 484 92 530 367 c 0,14,15
 576 643 576 643 335 643 c 2,16,-1
 246 643 l 1,17,-1
 155 92 l 1,11,-1
EndSplineSet
EndChar

StartChar: E
Encoding: 69 69 40
Width: 584
GlyphClass: 2
Flags: W
LayerCount: 2
Fore
SplineSet
34 0 m 1,0,-1
 156 735 l 1,1,-1
 621 735 l 1,2,-1
 606 642 l 1,3,-1
 246 642 l 1,4,-1
 210 426 l 1,5,-1
 535 426 l 1,6,-1
 520 335 l 1,7,-1
 195 335 l 1,8,-1
 155 93 l 1,9,-1
 523 93 l 1,10,-1
 507 0 l 1,11,-1
 34 0 l 1,0,-1
EndSplineSet
EndChar

StartChar: F
Encoding: 70 70 41
Width: 544
GlyphClass: 2
Flags: W
LayerCount: 2
Fore
SplineSet
34 0 m 1,0,-1
 156 735 l 1,1,-1
 607 735 l 1,2,-1
 592 642 l 1,3,-1
 246 642 l 1,4,-1
 208 414 l 1,5,-1
 519 414 l 1,6,-1
 504 323 l 1,7,-1
 193 323 l 1,8,-1
 140 0 l 1,9,-1
 34 0 l 1,0,-1
EndSplineSet
EndChar

StartChar: G
Encoding: 71 71 42
Width: 687
GlyphClass: 2
Flags: W
LayerCount: 2
Fore
SplineSet
53 367 m 0,0,1
 81 536 81 536 185.5 644 c 128,-1,2
 290 752 290 752 438 752 c 0,3,4
 491 752 491 752 533.5 734.5 c 128,-1,5
 576 717 576 717 602 689 c 128,-1,6
 628 661 628 661 642 635 c 128,-1,7
 656 609 656 609 664 583 c 1,8,-1
 568 552 l 1,9,10
 547 601 547 601 514 630 c 128,-1,11
 481 659 481 659 423 659 c 0,12,13
 323 659 323 659 253 578.5 c 128,-1,14
 183 498 183 498 162 367 c 0,15,16
 140 232 140 232 184 154 c 128,-1,17
 228 76 228 76 321 76 c 0,18,19
 402 76 402 76 456.5 126.5 c 128,-1,20
 511 177 511 177 528 251 c 0,21,22
 532 267 532 267 539 314 c 1,23,-1
 353 314 l 1,24,-1
 368 406 l 1,25,-1
 657 406 l 1,26,-1
 590 0 l 1,27,-1
 515 0 l 1,28,-1
 521 86 l 1,29,30
 445 -17 445 -17 303 -17 c 0,31,32
 166 -17 166 -17 95 86.5 c 128,-1,33
 24 190 24 190 53 367 c 0,0,1
EndSplineSet
EndChar

StartChar: H
Encoding: 72 72 43
Width: 683
GlyphClass: 2
Flags: W
LayerCount: 2
Fore
SplineSet
34 0 m 1,0,-1
 156 735 l 1,1,-1
 262 735 l 1,2,-1
 210 424 l 1,3,-1
 522 424 l 1,4,-1
 573 735 l 1,5,-1
 678 735 l 1,6,-1
 556 0 l 1,7,-1
 451 0 l 1,8,-1
 506 332 l 1,9,-1
 195 332 l 1,10,-1
 140 0 l 1,11,-1
 34 0 l 1,0,-1
EndSplineSet
EndChar

StartChar: I
Encoding: 73 73 44
Width: 266
GlyphClass: 2
Flags: W
LayerCount: 2
Fore
SplineSet
34 0 m 1,0,-1
 156 735 l 1,1,-1
 262 735 l 1,2,-1
 140 0 l 1,3,-1
 34 0 l 1,0,-1
EndSplineSet
EndChar

StartChar: J
Encoding: 74 74 45
Width: 490
GlyphClass: 2
Flags: W
LayerCount: 2
Fore
SplineSet
-17 131 m 1,0,-1
 79 166 l 1,1,2
 85 127 85 127 108 101.5 c 128,-1,3
 131 76 131 76 169 76 c 0,4,5
 270 76 270 76 294 221 c 2,6,-1
 379 735 l 1,7,-1
 485 735 l 1,8,-1
 397 207 l 2,9,10
 379 98 379 98 316.5 40.5 c 128,-1,11
 254 -17 254 -17 156 -17 c 0,12,13
 77 -17 77 -17 34 25.5 c 128,-1,14
 -9 68 -9 68 -17 131 c 1,0,-1
EndSplineSet
EndChar

StartChar: K
Encoding: 75 75 46
Width: 627
GlyphClass: 2
Flags: W
LayerCount: 2
Fore
SplineSet
34 0 m 1,0,-1
 156 735 l 1,1,-1
 262 735 l 1,2,-1
 204 385 l 1,3,-1
 207 385 l 1,4,-1
 558 735 l 1,5,-1
 694 735 l 1,6,-1
 365 415 l 1,7,-1
 583 0 l 1,8,-1
 453 0 l 1,9,-1
 285 338 l 1,10,-1
 179 235 l 1,11,-1
 140 0 l 1,12,-1
 34 0 l 1,0,-1
EndSplineSet
EndChar

StartChar: L
Encoding: 76 76 47
Width: 526
GlyphClass: 2
Flags: W
LayerCount: 2
Fore
SplineSet
34 0 m 1,0,-1
 156 735 l 1,1,-1
 262 735 l 1,2,-1
 155 93 l 1,3,-1
 486 93 l 1,4,-1
 471 0 l 1,5,-1
 34 0 l 1,0,-1
EndSplineSet
EndChar

StartChar: M
Encoding: 77 77 48
Width: 831
GlyphClass: 2
Flags: W
LayerCount: 2
Fore
SplineSet
34 0 m 1,0,-1
 156 735 l 1,1,-1
 287 735 l 1,2,-1
 364 376 l 2,3,4
 371 341 371 341 382 278 c 128,-1,5
 393 215 393 215 397 188 c 1,6,-1
 401 188 l 1,7,8
 409 203 409 203 499 376 c 1,9,-1
 694 735 l 1,10,-1
 827 735 l 1,11,-1
 705 0 l 1,12,-1
 599 0 l 1,13,-1
 659 359 l 2,14,15
 671 432 671 432 708 586 c 1,16,-1
 704 586 l 1,17,-1
 634 447 l 1,18,-1
 418 46 l 1,19,-1
 337 46 l 1,20,-1
 252 447 l 1,21,-1
 227 586 l 1,22,-1
 223 586 l 1,23,24
 211 432 211 432 199 359 c 2,25,-1
 140 0 l 1,26,-1
 34 0 l 1,0,-1
EndSplineSet
EndChar

StartChar: N
Encoding: 78 78 49
Width: 688
GlyphClass: 2
Flags: W
LayerCount: 2
Fore
SplineSet
34 0 m 1,0,-1
 156 735 l 1,1,-1
 269 735 l 1,2,-1
 432 310 l 1,3,-1
 489 159 l 1,4,-1
 494 159 l 1,5,6
 497 258 497 258 516 370 c 2,7,-1
 576 735 l 1,8,-1
 683 735 l 1,9,-1
 561 0 l 1,10,-1
 448 0 l 1,11,-1
 283 421 l 1,12,-1
 227 574 l 1,13,-1
 222 574 l 1,14,15
 219 476 219 476 200 363 c 2,16,-1
 140 0 l 1,17,-1
 34 0 l 1,0,-1
EndSplineSet
EndChar

StartChar: O
Encoding: 79 79 50
Width: 688
GlyphClass: 2
Flags: W
LayerCount: 2
Fore
SplineSet
53 367 m 0,0,1
 82 540 82 540 183 646 c 128,-1,2
 284 752 284 752 423 752 c 256,3,4
 562 752 562 752 627.5 646 c 128,-1,5
 693 540 693 540 664 366 c 0,6,7
 635 191 635 191 534.5 87 c 128,-1,8
 434 -17 434 -17 296 -17 c 0,9,10
 157 -17 157 -17 90.5 87.5 c 128,-1,11
 24 192 24 192 53 367 c 0,0,1
163 367 m 256,12,13
 141 233 141 233 180 154.5 c 128,-1,14
 219 76 219 76 311 76 c 0,15,16
 401 76 401 76 466.5 153.5 c 128,-1,17
 532 231 532 231 554 366 c 0,18,19
 576 499 576 499 538 579 c 128,-1,20
 500 659 500 659 408 659 c 256,21,22
 316 659 316 659 250.5 580 c 128,-1,23
 185 501 185 501 163 367 c 256,12,13
EndSplineSet
Substitution2: "Single Substitution lookup 12 subtable" ordmasculine
EndChar

StartChar: P
Encoding: 80 80 51
Width: 625
GlyphClass: 2
Flags: W
LayerCount: 2
Fore
SplineSet
34 0 m 1,0,-1
 156 735 l 1,1,-1
 434 735 l 2,2,3
 544 735 544 735 596.5 674.5 c 128,-1,4
 649 614 649 614 633 514 c 0,5,6
 616 411 616 411 541.5 351 c 128,-1,7
 467 291 467 291 362 291 c 2,8,-1
 188 291 l 1,9,-1
 140 0 l 1,10,-1
 34 0 l 1,0,-1
203 383 m 1,11,-1
 361 383 l 2,12,13
 429 383 429 383 470.5 416 c 128,-1,14
 512 449 512 449 523 514 c 0,15,16
 533 577 533 577 502.5 609.5 c 128,-1,17
 472 642 472 642 404 642 c 2,18,-1
 246 642 l 1,19,-1
 203 383 l 1,11,-1
EndSplineSet
EndChar

StartChar: Q
Encoding: 81 81 52
Width: 688
GlyphClass: 2
Flags: W
LayerCount: 2
Fore
SplineSet
53 366 m 0,0,1
 82 541 82 541 183.5 646.5 c 128,-1,2
 285 752 285 752 423 752 c 0,3,4
 562 752 562 752 627.5 646 c 128,-1,5
 693 540 693 540 664 366 c 0,6,7
 636 196 636 196 538 91 c 1,8,-1
 605 6 l 1,9,-1
 532 -51 l 1,10,-1
 468 32 l 1,11,12
 391 -17 391 -17 296 -17 c 0,13,14
 156 -17 156 -17 90.5 88.5 c 128,-1,15
 25 194 25 194 53 366 c 0,0,1
313 229 m 1,16,-1
 385 287 l 1,17,-1
 478 168 l 1,18,19
 535 244 535 244 554 366 c 0,20,21
 577 503 577 503 537 581 c 128,-1,22
 497 659 497 659 408 659 c 0,23,24
 317 659 317 659 251 580 c 128,-1,25
 185 501 185 501 162 366 c 0,26,27
 140 232 140 232 180 154 c 128,-1,28
 220 76 220 76 311 76 c 0,29,30
 365 76 365 76 411 104 c 1,31,-1
 313 229 l 1,16,-1
EndSplineSet
EndChar

StartChar: R
Encoding: 82 82 53
Width: 645
GlyphClass: 2
Flags: W
LayerCount: 2
Fore
SplineSet
205 393 m 1,0,-1
 371 393 l 2,1,2
 436 393 436 393 476 427 c 128,-1,3
 516 461 516 461 526 520 c 0,4,5
 535 575 535 575 504 608.5 c 128,-1,6
 473 642 473 642 407 642 c 2,7,-1
 246 642 l 1,8,-1
 205 393 l 1,0,-1
34 0 m 1,9,-1
 156 735 l 1,10,-1
 444 735 l 2,11,12
 554 735 554 735 603 676 c 128,-1,13
 652 617 652 617 637 529 c 0,14,15
 624 453 624 453 581 405 c 128,-1,16
 538 357 538 357 491 341 c 1,17,18
 523 318 523 318 535 289.5 c 128,-1,19
 547 261 547 261 548 206 c 0,20,21
 550 148 550 148 558.5 102.5 c 128,-1,22
 567 57 567 57 590 0 c 1,23,-1
 471 0 l 1,24,25
 442 70 442 70 435 199 c 0,26,27
 433 249 433 249 416.5 275.5 c 128,-1,28
 400 302 400 302 353 302 c 2,29,-1
 190 302 l 1,30,-1
 140 0 l 1,31,-1
 34 0 l 1,9,-1
EndSplineSet
EndChar

StartChar: S
Encoding: 83 83 54
Width: 591
GlyphClass: 2
Flags: W
LayerCount: 2
Fore
SplineSet
4 150 m 1,0,-1
 105 184 l 1,1,2
 123 135 123 135 167.5 105.5 c 128,-1,3
 212 76 212 76 273 76 c 0,4,5
 337 76 337 76 382.5 108 c 128,-1,6
 428 140 428 140 437 193 c 0,7,8
 442 221 442 221 433.5 243.5 c 128,-1,9
 425 266 425 266 402.5 282.5 c 128,-1,10
 380 299 380 299 358 309.5 c 128,-1,11
 336 320 336 320 300 333 c 0,12,13
 196 370 196 370 160 395 c 0,14,15
 80 451 80 451 97 552 c 0,16,17
 112 642 112 642 190 697 c 128,-1,18
 268 752 268 752 378 752 c 4,19,20
 468 752 468 752 526 709.5 c 128,-1,21
 584 667 584 667 602 602 c 1,22,-1
 508 570 l 1,23,24
 465 659 465 659 362 659 c 0,25,26
 298 659 298 659 256 630.5 c 128,-1,27
 214 602 214 602 206 553 c 0,28,29
 200 516 200 516 225.5 488 c 128,-1,30
 251 460 251 460 275 449.5 c 128,-1,31
 299 439 299 439 360 417 c 0,32,33
 373 412 373 412 380 410 c 0,34,35
 420 394 420 394 450 379 c 128,-1,36
 480 364 480 364 507 339.5 c 128,-1,37
 534 315 534 315 545 279 c 128,-1,38
 556 243 556 243 548 198 c 0,39,40
 531 96 531 96 450.5 39.5 c 128,-1,41
 370 -17 370 -17 256 -17 c 0,42,43
 157 -17 157 -17 92 28.5 c 128,-1,44
 27 74 27 74 4 150 c 1,0,-1
EndSplineSet
EndChar

StartChar: T
Encoding: 84 84 55
Width: 546
GlyphClass: 2
Flags: W
LayerCount: 2
Fore
SplineSet
68 642 m 1,0,-1
 84 735 l 1,1,-1
 614 735 l 1,2,-1
 599 642 l 1,3,-1
 387 642 l 1,4,-1
 281 0 l 1,5,-1
 175 0 l 1,6,-1
 281 642 l 1,7,-1
 68 642 l 1,0,-1
EndSplineSet
EndChar

StartChar: U
Encoding: 85 85 56
Width: 680
GlyphClass: 2
Flags: W
LayerCount: 2
Fore
SplineSet
76 271 m 2,0,-1
 153 735 l 1,1,-1
 260 735 l 1,2,-1
 183 272 l 2,3,4
 167 173 167 173 201 124.5 c 128,-1,5
 235 76 235 76 306 76 c 0,6,7
 379 76 379 76 429.5 126 c 128,-1,8
 480 176 480 176 496 272 c 2,9,-1
 572 735 l 1,10,-1
 678 735 l 1,11,-1
 601 271 l 2,12,13
 578 134 578 134 499 58.5 c 128,-1,14
 420 -17 420 -17 291 -17 c 0,15,16
 166 -17 166 -17 109.5 56.5 c 128,-1,17
 53 130 53 130 76 271 c 2,0,-1
EndSplineSet
EndChar

StartChar: V
Encoding: 86 86 57
Width: 591
GlyphClass: 2
Flags: W
LayerCount: 2
Fore
SplineSet
75 735 m 1,0,-1
 190 735 l 1,1,-1
 249 285 l 1,2,3
 262 149 262 149 266 112 c 1,4,-1
 269 112 l 1,5,6
 282 143 282 143 306 198.5 c 128,-1,7
 330 254 330 254 344 285 c 2,8,-1
 551 735 l 1,9,-1
 668 735 l 1,10,-1
 310 0 l 1,11,-1
 188 0 l 1,12,-1
 75 735 l 1,0,-1
EndSplineSet
EndChar

StartChar: W
Encoding: 87 87 58
Width: 847
GlyphClass: 2
Flags: W
LayerCount: 2
Fore
SplineSet
85 735 m 1,0,-1
 198 735 l 1,1,-1
 210 301 l 2,2,3
 210 227 210 227 208 118 c 1,4,-1
 213 118 l 1,5,6
 241 201 241 201 277 301 c 2,7,-1
 443 735 l 1,8,-1
 553 735 l 1,9,-1
 576 301 l 2,10,11
 580 205 580 205 580 118 c 1,12,-1
 585 118 l 1,13,14
 593 140 593 140 614.5 205.5 c 128,-1,15
 636 271 636 271 645 301 c 2,16,-1
 800 735 l 1,17,-1
 913 735 l 1,18,-1
 627 0 l 1,19,-1
 505 0 l 1,20,-1
 482 428 l 1,21,22
 479 568 479 568 479 602 c 1,23,-1
 474 602 l 1,24,25
 464 568 464 568 440.5 504 c 128,-1,26
 417 440 417 440 413 428 c 2,27,-1
 250 0 l 1,28,-1
 129 0 l 1,29,-1
 85 735 l 1,0,-1
EndSplineSet
EndChar

StartChar: X
Encoding: 88 88 59
Width: 591
GlyphClass: 2
Flags: W
LayerCount: 2
Fore
SplineSet
-46 0 m 1,0,-1
 249 377 l 1,1,-1
 86 735 l 1,2,-1
 214 735 l 1,3,-1
 279 569 l 2,4,5
 287 551 287 551 301.5 514.5 c 128,-1,6
 316 478 316 478 324 459 c 1,7,-1
 328 459 l 1,8,9
 341 478 341 478 368 514.5 c 128,-1,10
 395 551 395 551 408 569 c 2,11,-1
 528 735 l 1,12,-1
 656 735 l 1,13,-1
 375 377 l 1,14,-1
 546 0 l 1,15,-1
 421 0 l 1,16,-1
 348 176 l 2,17,18
 339 196 339 196 322.5 237.5 c 128,-1,19
 306 279 306 279 300 293 c 1,20,-1
 296 293 l 1,21,22
 264 250 264 250 210 176 c 2,23,-1
 79 0 l 1,24,-1
 -46 0 l 1,0,-1
EndSplineSet
EndChar

StartChar: Y
Encoding: 89 89 60
Width: 604
GlyphClass: 2
Flags: W
LayerCount: 2
Fore
SplineSet
72 735 m 1,0,-1
 195 735 l 1,1,-1
 274 516 l 2,2,3
 301 443 301 443 318 390 c 1,4,-1
 321 390 l 1,5,6
 335 408 335 408 349 429 c 128,-1,7
 363 450 363 450 380.5 475.5 c 128,-1,8
 398 501 398 501 407 516 c 2,9,-1
 558 735 l 1,10,-1
 682 735 l 1,11,-1
 359 300 l 1,12,-1
 309 0 l 1,13,-1
 202 0 l 1,14,-1
 252 300 l 1,15,-1
 72 735 l 1,0,-1
EndSplineSet
EndChar

StartChar: Z
Encoding: 90 90 61
Width: 587
GlyphClass: 2
Flags: W
LayerCount: 2
Fore
SplineSet
-1 79 m 1,0,-1
 476 642 l 1,1,-1
 121 642 l 1,2,-1
 137 735 l 1,3,-1
 623 735 l 1,4,-1
 610 655 l 1,5,-1
 131 93 l 1,6,-1
 525 93 l 1,7,-1
 510 0 l 1,8,-1
 -14 0 l 1,9,-1
 -1 79 l 1,0,-1
EndSplineSet
EndChar

StartChar: bracketleft
Encoding: 91 91 62
Width: 419
GlyphClass: 2
Flags: W
LayerCount: 2
Fore
SplineSet
52 -122 m 1,0,-1
 209 828 l 1,1,-1
 432 828 l 1,2,-1
 418 743 l 1,3,-1
 298 743 l 1,4,-1
 169 -37 l 1,5,-1
 289 -37 l 1,6,-1
 274 -122 l 1,7,-1
 52 -122 l 1,0,-1
EndSplineSet
EndChar

StartChar: backslash
Encoding: 92 92 63
Width: 343
GlyphClass: 2
Flags: W
LayerCount: 2
Fore
SplineSet
70 782 m 1,0,-1
 176 782 l 1,1,-1
 302 -54 l 1,2,-1
 195 -54 l 1,3,-1
 70 782 l 1,0,-1
EndSplineSet
EndChar

StartChar: bracketright
Encoding: 93 93 64
Width: 419
GlyphClass: 2
Flags: W
LayerCount: 2
Fore
SplineSet
25 -37 m 1,0,-1
 145 -37 l 1,1,-1
 274 743 l 1,2,-1
 154 743 l 1,3,-1
 168 828 l 1,4,-1
 391 828 l 1,5,-1
 234 -122 l 1,6,-1
 11 -122 l 1,7,-1
 25 -37 l 1,0,-1
EndSplineSet
EndChar

StartChar: asciicircum
Encoding: 94 94 65
Width: 507
GlyphClass: 2
Flags: W
LayerCount: 2
Fore
SplineSet
41 465 m 1,0,-1
 293 809 l 1,1,-1
 389 809 l 1,2,-1
 527 465 l 1,3,-1
 420 465 l 1,4,-1
 349 662 l 1,5,-1
 327 726 l 1,6,-1
 147 465 l 1,7,-1
 41 465 l 1,0,-1
EndSplineSet
EndChar

StartChar: underscore
Encoding: 95 95 66
Width: 464
GlyphClass: 2
Flags: W
LayerCount: 2
Fore
SplineSet
-43 -11 m 1,0,-1
 413 -11 l 1,1,-1
 399 -96 l 1,2,-1
 -57 -96 l 1,3,-1
 -43 -11 l 1,0,-1
EndSplineSet
EndChar

StartChar: grave
Encoding: 96 96 67
Width: 316
GlyphClass: 2
Flags: W
LayerCount: 2
Fore
SplineSet
200 523 m 1,0,-1
 122 819 l 1,1,-1
 247 819 l 1,2,-1
 283 523 l 1,3,-1
 200 523 l 1,0,-1
EndSplineSet
EndChar

StartChar: a
Encoding: 97 97 68
Width: 515
GlyphClass: 2
Flags: W
LayerCount: 2
Fore
SplineSet
109 146 m 0,0,1
 104 114 104 114 124.5 92 c 128,-1,2
 145 70 145 70 187 70 c 0,3,4
 245 70 245 70 292 109.5 c 128,-1,5
 339 149 339 149 349 212 c 2,6,-1
 359 270 l 1,7,8
 316 259 316 259 247 248 c 0,9,10
 183 237 183 237 149.5 212.5 c 128,-1,11
 116 188 116 188 109 146 c 0,0,1
8 137 m 0,12,13
 33 287 33 287 252 322 c 0,14,15
 343 336 343 336 372 345 c 1,16,-1
 376 375 l 2,17,18
 383 417 383 417 358.5 442 c 128,-1,19
 334 467 334 467 284 467 c 0,20,21
 197 467 197 467 124 393 c 1,22,-1
 72 447 l 1,23,24
 119 496 119 496 177.5 523.5 c 128,-1,25
 236 551 236 551 296 551 c 0,26,27
 503 551 503 551 468 335 c 2,28,-1
 412 0 l 1,29,-1
 317 0 l 1,30,-1
 329 74 l 1,31,32
 308 37 308 37 261.5 10 c 128,-1,33
 215 -17 215 -17 159 -17 c 0,34,35
 77 -17 77 -17 37 26 c 128,-1,36
 -3 69 -3 69 8 137 c 0,12,13
EndSplineSet
Substitution2: "Single Substitution lookup 12 subtable" ordfeminine
EndChar

StartChar: b
Encoding: 98 98 69
Width: 549
GlyphClass: 2
Flags: W
LayerCount: 2
Fore
SplineSet
21 0 m 1,0,-1
 147 761 l 1,1,-1
 244 761 l 1,2,-1
 195 463 l 1,3,4
 219 498 219 498 258.5 524.5 c 128,-1,5
 298 551 298 551 347 551 c 0,6,7
 440 551 440 551 488 475 c 128,-1,8
 536 399 536 399 514 268 c 0,9,10
 502 194 502 194 472.5 136.5 c 128,-1,11
 443 79 443 79 406 47 c 128,-1,12
 369 15 369 15 329.5 -1 c 128,-1,13
 290 -17 290 -17 253 -17 c 0,14,15
 206 -17 206 -17 173 10.5 c 128,-1,16
 140 38 140 38 129 77 c 1,17,-1
 116 0 l 1,18,-1
 21 0 l 1,0,-1
161 268 m 0,19,20
 146 177 146 177 172.5 124 c 128,-1,21
 199 71 199 71 253 71 c 0,22,23
 309 71 309 71 353.5 122.5 c 128,-1,24
 398 174 398 174 413 268 c 0,25,26
 428 358 428 358 402 410 c 128,-1,27
 376 462 376 462 318 462 c 0,28,29
 263 462 263 462 219.5 409 c 128,-1,30
 176 356 176 356 161 268 c 0,19,20
EndSplineSet
EndChar

StartChar: c
Encoding: 99 99 70
Width: 483
GlyphClass: 2
Flags: W
LayerCount: 2
Fore
SplineSet
31 267 m 0,0,1
 52 395 52 395 128 473 c 128,-1,2
 204 551 204 551 308 551 c 0,3,4
 382 551 382 551 424 505 c 128,-1,5
 466 459 466 459 471 398 c 1,6,-1
 384 374 l 1,7,8
 378 411 378 411 355 436.5 c 128,-1,9
 332 462 332 462 294 462 c 0,10,11
 233 462 233 462 189 406.5 c 128,-1,12
 145 351 145 351 131 267 c 0,13,14
 116 175 116 175 144 123 c 128,-1,15
 172 71 172 71 229 71 c 0,16,17
 269 71 269 71 306 100 c 128,-1,18
 343 129 343 129 362 166 c 1,19,-1
 441 141 l 1,20,21
 414 78 414 78 351 30.5 c 128,-1,22
 288 -17 288 -17 214 -17 c 0,23,24
 111 -17 111 -17 60 60 c 128,-1,25
 9 137 9 137 31 267 c 0,0,1
EndSplineSet
EndChar

StartChar: d
Encoding: 100 100 71
Width: 549
GlyphClass: 2
Flags: W
LayerCount: 2
Fore
SplineSet
31 268 m 0,0,1
 53 399 53 399 126 475 c 128,-1,2
 199 551 199 551 292 551 c 0,3,4
 339 551 339 551 371 524.5 c 128,-1,5
 403 498 403 498 414 463 c 1,6,-1
 463 761 l 1,7,-1
 561 761 l 1,8,-1
 435 0 l 1,9,-1
 340 0 l 1,10,-1
 353 78 l 1,11,12
 329 38 329 38 287 10.5 c 128,-1,13
 245 -17 245 -17 198 -17 c 0,14,15
 158 -17 158 -17 124.5 -1 c 128,-1,16
 91 15 91 15 65 47 c 128,-1,17
 39 79 39 79 29 136.5 c 128,-1,18
 19 194 19 194 31 268 c 0,0,1
131 268 m 0,19,20
 116 176 116 176 142.5 123.5 c 128,-1,21
 169 71 169 71 225 71 c 0,22,23
 279 71 279 71 323.5 124 c 128,-1,24
 368 177 368 177 383 268 c 0,25,26
 398 356 398 356 371.5 409 c 128,-1,27
 345 462 345 462 290 462 c 0,28,29
 231 462 231 462 188.5 409 c 128,-1,30
 146 356 146 356 131 268 c 0,19,20
EndSplineSet
EndChar

StartChar: e
Encoding: 101 101 72
Width: 524
GlyphClass: 2
Flags: W
LayerCount: 2
Fore
SplineSet
31 270 m 0,0,1
 52 396 52 396 130.5 473.5 c 128,-1,2
 209 551 209 551 311 551 c 256,3,4
 412 551 412 551 462 474 c 128,-1,5
 512 397 512 397 492 276 c 0,6,7
 492 274 492 274 482 232 c 1,8,-1
 124 232 l 1,9,10
 113 165 113 165 141.5 116.5 c 128,-1,11
 170 68 170 68 235 68 c 0,12,13
 280 68 280 68 318 91 c 128,-1,14
 356 114 356 114 380 149 c 1,15,-1
 457 120 l 1,16,17
 423 61 423 61 362.5 22 c 128,-1,18
 302 -17 302 -17 221 -17 c 0,19,20
 115 -17 115 -17 62 61 c 128,-1,21
 9 139 9 139 31 270 c 0,0,1
138 306 m 1,22,-1
 397 306 l 1,23,24
 408 374 408 374 381.5 420 c 128,-1,25
 355 466 355 466 296 466 c 0,26,27
 235 466 235 466 193 419 c 128,-1,28
 151 372 151 372 138 306 c 1,22,-1
EndSplineSet
EndChar

StartChar: f
Encoding: 102 102 73
Width: 323
GlyphClass: 2
Flags: W
LayerCount: 2
Fore
SplineSet
48 445 m 1,0,-1
 62 533 l 1,1,-1
 143 533 l 1,2,-1
 154 599 l 2,3,4
 167 680 167 680 211.5 720.5 c 128,-1,5
 256 761 256 761 325 761 c 2,6,-1
 401 761 l 1,7,-1
 386 673 l 1,8,-1
 325 673 l 2,9,10
 264 673 264 673 250 591 c 2,11,-1
 241 533 l 1,12,-1
 351 533 l 1,13,-1
 336 445 l 1,14,-1
 226 445 l 1,15,-1
 152 0 l 1,16,-1
 55 0 l 1,17,-1
 128 445 l 1,18,-1
 48 445 l 1,0,-1
EndSplineSet
EndChar

StartChar: g
Encoding: 103 103 74
Width: 534
GlyphClass: 2
Flags: W
LayerCount: 2
Fore
SplineSet
134 277 m 0,0,1
 120 191 120 191 144.5 142 c 128,-1,2
 169 93 169 93 223 93 c 0,3,4
 278 93 278 93 318.5 140.5 c 128,-1,5
 359 188 359 188 373 277 c 0,6,7
 387 364 387 364 362.5 413 c 128,-1,8
 338 462 338 462 286 462 c 0,9,10
 231 462 231 462 189.5 411 c 128,-1,11
 148 360 148 360 134 277 c 0,0,1
34 276 m 0,12,13
 55 401 55 401 126 476 c 128,-1,14
 197 551 197 551 288 551 c 0,15,16
 338 551 338 551 367.5 524 c 128,-1,17
 397 497 397 497 405 463 c 1,18,-1
 417 533 l 1,19,-1
 514 533 l 1,20,-1
 437 70 l 2,21,22
 412 -81 412 -81 346 -153.5 c 128,-1,23
 280 -226 280 -226 166 -226 c 0,24,25
 39 -226 39 -226 -12 -126 c 1,26,-1
 62 -78 l 1,27,28
 105 -143 105 -143 182 -143 c 0,29,30
 235 -143 235 -143 276 -98.5 c 128,-1,31
 317 -54 317 -54 331 18 c 0,32,33
 333 29 333 29 337 52 c 128,-1,34
 341 75 341 75 342 83 c 1,35,36
 318 48 318 48 280.5 26 c 128,-1,37
 243 4 243 4 201 4 c 0,38,39
 105 4 105 4 59.5 79 c 128,-1,40
 14 154 14 154 34 276 c 0,12,13
EndSplineSet
EndChar

StartChar: h
Encoding: 104 104 75
Width: 529
GlyphClass: 2
Flags: W
LayerCount: 2
Fore
SplineSet
21 0 m 1,0,-1
 147 761 l 1,1,-1
 244 761 l 1,2,-1
 196 469 l 1,3,-1
 198 469 l 1,4,5
 223 504 223 504 264 527.5 c 128,-1,6
 305 551 305 551 349 551 c 0,7,8
 424 551 424 551 462 502 c 128,-1,9
 500 453 500 453 482 343 c 2,10,-1
 425 0 l 1,11,-1
 328 0 l 1,12,-1
 382 329 l 2,13,14
 404 462 404 462 317 462 c 0,15,16
 267 462 267 462 223 416.5 c 128,-1,17
 179 371 179 371 169 308 c 2,18,-1
 118 0 l 1,19,-1
 21 0 l 1,0,-1
EndSplineSet
Substitution2: "'sups' Superscript lookup 5 subtable" uni02B0
Substitution2: "'aalt' Access All Alternates lookup 0 subtable" uni02B0
EndChar

StartChar: i
Encoding: 105 105 76
Width: 247
GlyphClass: 2
Flags: W
LayerCount: 2
Fore
SplineSet
126 626 m 1,0,-1
 145 745 l 1,1,-1
 255 745 l 1,2,-1
 235 626 l 1,3,-1
 126 626 l 1,0,-1
29 0 m 1,4,-1
 117 533 l 1,5,-1
 214 533 l 1,6,-1
 126 0 l 1,7,-1
 29 0 l 1,4,-1
EndSplineSet
EndChar

StartChar: j
Encoding: 106 106 77
Width: 256
GlyphClass: 2
Flags: W
LayerCount: 2
Fore
SplineSet
133 626 m 1,0,-1
 153 745 l 1,1,-1
 265 745 l 1,2,-1
 245 626 l 1,3,-1
 133 626 l 1,0,-1
-77 -126 m 1,4,-1
 -59 -126 l 2,5,6
 16 -126 16 -126 34 -16 c 2,7,-1
 125 533 l 1,8,-1
 222 533 l 1,9,-1
 130 -21 l 2,10,11
 114 -116 114 -116 66 -165.5 c 128,-1,12
 18 -215 18 -215 -58 -215 c 2,13,-1
 -92 -215 l 1,14,-1
 -77 -126 l 1,4,-1
EndSplineSet
Substitution2: "'sups' Superscript lookup 5 subtable" uni02B2
Substitution2: "'aalt' Access All Alternates lookup 0 subtable" uni02B2
EndChar

StartChar: k
Encoding: 107 107 78
Width: 491
GlyphClass: 2
Flags: W
LayerCount: 2
Fore
SplineSet
22 0 m 1,0,-1
 148 761 l 1,1,-1
 246 761 l 1,2,-1
 170 304 l 1,3,-1
 400 533 l 1,4,-1
 526 533 l 1,5,-1
 307 318 l 1,6,-1
 453 0 l 1,7,-1
 336 0 l 1,8,-1
 231 245 l 1,9,-1
 147 163 l 1,10,-1
 120 0 l 1,11,-1
 22 0 l 1,0,-1
EndSplineSet
EndChar

StartChar: l
Encoding: 108 108 79
Width: 241
GlyphClass: 2
Flags: W
LayerCount: 2
Fore
SplineSet
25 0 m 1,0,-1
 151 761 l 1,1,-1
 250 761 l 1,2,-1
 124 0 l 1,3,-1
 25 0 l 1,0,-1
EndSplineSet
Substitution2: "'sups' Superscript lookup 5 subtable" uni02E1
Substitution2: "'aalt' Access All Alternates lookup 0 subtable" uni02E1
EndChar

StartChar: m
Encoding: 109 109 80
Width: 781
GlyphClass: 2
Flags: W
LayerCount: 2
Fore
SplineSet
16 0 m 1,0,-1
 104 533 l 1,1,-1
 199 533 l 1,2,-1
 188 465 l 1,3,4
 206 496 206 496 245.5 523.5 c 128,-1,5
 285 551 285 551 335 551 c 0,6,7
 421 551 421 551 443 447 c 1,8,9
 450 460 450 460 463 474.5 c 128,-1,10
 476 489 476 489 497.5 507.5 c 128,-1,11
 519 526 519 526 550 538.5 c 128,-1,12
 581 551 581 551 616 551 c 0,13,14
 769 551 769 551 734 343 c 2,15,-1
 678 0 l 1,16,-1
 578 0 l 1,17,-1
 634 339 l 2,18,19
 644 400 644 400 633.5 431 c 128,-1,20
 623 462 623 462 580 462 c 0,21,22
 532 462 532 462 494.5 420 c 128,-1,23
 457 378 457 378 447 316 c 2,24,-1
 395 0 l 1,25,-1
 298 0 l 1,26,-1
 354 341 l 2,27,28
 374 462 374 462 298 462 c 0,29,30
 248 462 248 462 213 422.5 c 128,-1,31
 178 383 178 383 167 319 c 2,32,-1
 114 0 l 1,33,-1
 16 0 l 1,0,-1
EndSplineSet
EndChar

StartChar: n
Encoding: 110 110 81
Width: 525
GlyphClass: 2
Flags: W
LayerCount: 2
Fore
SplineSet
16 0 m 1,0,-1
 104 533 l 1,1,-1
 199 533 l 1,2,-1
 187 459 l 1,3,-1
 188 459 l 1,4,5
 206 491 206 491 249.5 521 c 128,-1,6
 293 551 293 551 350 551 c 0,7,8
 424 551 424 551 460 502.5 c 128,-1,9
 496 454 496 454 478 343 c 2,10,-1
 421 0 l 1,11,-1
 323 0 l 1,12,-1
 378 329 l 2,13,14
 400 462 400 462 314 462 c 0,15,16
 263 462 263 462 219.5 418 c 128,-1,17
 176 374 176 374 166 311 c 2,18,-1
 114 0 l 1,19,-1
 16 0 l 1,0,-1
EndSplineSet
Substitution2: "'sups' Superscript lookup 5 subtable" uni207F
Substitution2: "'aalt' Access All Alternates lookup 0 subtable" uni207F
EndChar

StartChar: o
Encoding: 111 111 82
Width: 527
GlyphClass: 2
Flags: W
LayerCount: 2
Fore
SplineSet
131 267 m 256,0,1
 115 171 115 171 145 121 c 128,-1,2
 175 71 175 71 229 71 c 0,3,4
 282 71 282 71 329.5 121 c 128,-1,5
 377 171 377 171 393 267 c 256,6,7
 409 363 409 363 378 412.5 c 128,-1,8
 347 462 347 462 294 462 c 256,9,10
 241 462 241 462 194 412.5 c 128,-1,11
 147 363 147 363 131 267 c 256,0,1
31 267 m 0,12,13
 44 344 44 344 78 406.5 c 128,-1,14
 112 469 112 469 172.5 510 c 128,-1,15
 233 551 233 551 309 551 c 0,16,17
 421 551 421 551 466.5 469 c 128,-1,18
 512 387 512 387 492 267 c 0,19,20
 484 218 484 218 464.5 171 c 128,-1,21
 445 124 445 124 412.5 80.5 c 128,-1,22
 380 37 380 37 328.5 10 c 128,-1,23
 277 -17 277 -17 215 -17 c 256,24,25
 153 -17 153 -17 110 9 c 128,-1,26
 67 35 67 35 48.5 78 c 128,-1,27
 30 121 30 121 26.5 168.5 c 128,-1,28
 23 216 23 216 31 267 c 0,12,13
EndSplineSet
Substitution2: "Single Substitution lookup 12 subtable" ordmasculine
EndChar

StartChar: p
Encoding: 112 112 83
Width: 549
GlyphClass: 2
Flags: W
LayerCount: 2
Fore
SplineSet
161 268 m 0,0,1
 146 179 146 179 170.5 125 c 128,-1,2
 195 71 195 71 253 71 c 0,3,4
 309 71 309 71 353.5 123.5 c 128,-1,5
 398 176 398 176 413 268 c 0,6,7
 428 356 428 356 403 409 c 128,-1,8
 378 462 378 462 318 462 c 0,9,10
 261 462 261 462 218 408 c 128,-1,11
 175 354 175 354 161 268 c 0,0,1
-16 -222 m 1,12,-1
 109 533 l 1,13,-1
 203 533 l 1,14,-1
 190 456 l 1,15,16
 217 498 217 498 257.5 524.5 c 128,-1,17
 298 551 298 551 347 551 c 0,18,19
 439 551 439 551 487 474 c 128,-1,20
 535 397 535 397 514 268 c 0,21,22
 502 196 502 196 473 139 c 128,-1,23
 444 82 444 82 407.5 49 c 128,-1,24
 371 16 371 16 331 -0.5 c 128,-1,25
 291 -17 291 -17 253 -17 c 0,26,27
 202 -17 202 -17 171 9 c 128,-1,28
 140 35 140 35 130 72 c 1,29,-1
 81 -222 l 1,30,-1
 -16 -222 l 1,12,-1
EndSplineSet
EndChar

StartChar: q
Encoding: 113 113 84
Width: 547
GlyphClass: 2
Flags: W
LayerCount: 2
Fore
SplineSet
131 268 m 0,0,1
 116 176 116 176 142.5 123.5 c 128,-1,2
 169 71 169 71 224 71 c 0,3,4
 281 71 281 71 324.5 125 c 128,-1,5
 368 179 368 179 382 268 c 0,6,7
 396 354 396 354 371.5 408 c 128,-1,8
 347 462 347 462 289 462 c 0,9,10
 228 462 228 462 186.5 408 c 128,-1,11
 145 354 145 354 131 268 c 0,0,1
31 268 m 0,12,13
 52 397 52 397 125 474 c 128,-1,14
 198 551 198 551 291 551 c 0,15,16
 337 551 337 551 369.5 524.5 c 128,-1,17
 402 498 402 498 416 456 c 1,18,-1
 429 533 l 1,19,-1
 523 533 l 1,20,-1
 398 -222 l 1,21,-1
 300 -222 l 1,22,-1
 349 72 l 1,23,24
 326 34 326 34 285.5 8.5 c 128,-1,25
 245 -17 245 -17 197 -17 c 0,26,27
 157 -17 157 -17 123.5 -0.5 c 128,-1,28
 90 16 90 16 64 48.5 c 128,-1,29
 38 81 38 81 28.5 138 c 128,-1,30
 19 195 19 195 31 268 c 0,12,13
EndSplineSet
EndChar

StartChar: r
Encoding: 114 114 85
Width: 349
GlyphClass: 2
Flags: W
LayerCount: 2
Fore
SplineSet
16 0 m 1,0,-1
 104 533 l 1,1,-1
 197 533 l 1,2,-1
 186 469 l 1,3,4
 206 500 206 500 244 525.5 c 128,-1,5
 282 551 282 551 329 551 c 0,6,7
 370 551 370 551 395 538 c 1,8,-1
 379 443 l 1,9,10
 351 455 351 455 313 455 c 0,11,12
 253 455 253 455 213.5 407 c 128,-1,13
 174 359 174 359 161 280 c 2,14,-1
 114 0 l 1,15,-1
 16 0 l 1,0,-1
EndSplineSet
Substitution2: "'sups' Superscript lookup 5 subtable" uni02B3
Substitution2: "'aalt' Access All Alternates lookup 0 subtable" uni02B3
EndChar

StartChar: s
Encoding: 115 115 86
Width: 465
GlyphClass: 2
Flags: W
LayerCount: 2
Fore
SplineSet
-4 110 m 1,0,-1
 75 153 l 1,1,2
 116 68 116 68 202 68 c 0,3,4
 248 68 248 68 278.5 87.5 c 128,-1,5
 309 107 309 107 314 139 c 0,6,7
 321 181 321 181 267 207 c 0,8,9
 250 217 250 217 186 238 c 0,10,11
 157 249 157 249 136 260 c 128,-1,12
 115 271 115 271 94.5 289 c 128,-1,13
 74 307 74 307 65.5 334.5 c 128,-1,14
 57 362 57 362 63 397 c 0,15,16
 74 466 74 466 136 508.5 c 128,-1,17
 198 551 198 551 282 551 c 0,18,19
 343 551 343 551 391 516 c 128,-1,20
 439 481 439 481 457 429 c 1,21,-1
 385 387 l 1,22,23
 347 465 347 465 268 465 c 0,24,25
 222 465 222 465 194.5 446 c 128,-1,26
 167 427 167 427 162 395 c 0,27,28
 159 378 159 378 165.5 364 c 128,-1,29
 172 350 172 350 180 341.5 c 128,-1,30
 188 333 188 333 209 323 c 128,-1,31
 230 313 230 313 241 309.5 c 128,-1,32
 252 306 252 306 278 296 c 0,33,34
 432 243 432 243 414 138 c 0,35,36
 403 73 403 73 343.5 28 c 128,-1,37
 284 -17 284 -17 189 -17 c 0,38,39
 118 -17 118 -17 67.5 17 c 128,-1,40
 17 51 17 51 -4 110 c 1,0,-1
EndSplineSet
Substitution2: "'hist' Historical Forms lookup 11 subtable" longs
Substitution2: "'sups' Superscript lookup 5 subtable" uni02E2
AlternateSubs2: "'aalt' Access All Alternates lookup 1 subtable" uni02E2 longs
EndChar

StartChar: t
Encoding: 116 116 87
Width: 342
GlyphClass: 2
Flags: W
LayerCount: 2
Fore
SplineSet
43 445 m 1,0,-1
 58 533 l 1,1,-1
 139 533 l 1,2,-1
 166 695 l 1,3,-1
 264 695 l 1,4,-1
 237 533 l 1,5,-1
 359 533 l 1,6,-1
 344 445 l 1,7,-1
 223 445 l 1,8,-1
 176 166 l 2,9,10
 169 125 169 125 182 107 c 128,-1,11
 195 89 195 89 227 89 c 2,12,-1
 285 89 l 1,13,-1
 270 0 l 1,14,-1
 200 0 l 2,15,16
 51 0 51 0 77 159 c 2,17,-1
 125 445 l 1,18,-1
 43 445 l 1,0,-1
EndSplineSet
EndChar

StartChar: u
Encoding: 117 117 88
Width: 522
GlyphClass: 2
Flags: W
LayerCount: 2
Fore
SplineSet
41 191 m 2,0,-1
 98 533 l 1,1,-1
 196 533 l 1,2,-1
 142 207 l 2,3,4
 119 71 119 71 212 71 c 0,5,6
 268 71 268 71 306 118.5 c 128,-1,7
 344 166 344 166 355 233 c 2,8,-1
 404 533 l 1,9,-1
 501 533 l 1,10,-1
 413 0 l 1,11,-1
 320 0 l 1,12,-1
 332 70 l 1,13,-1
 330 70 l 1,14,15
 313 39 313 39 273 11 c 128,-1,16
 233 -17 233 -17 175 -17 c 0,17,18
 106 -17 106 -17 64.5 32 c 128,-1,19
 23 81 23 81 41 191 c 2,0,-1
EndSplineSet
EndChar

StartChar: v
Encoding: 118 118 89
Width: 486
GlyphClass: 2
Flags: W
LayerCount: 2
Fore
SplineSet
49 533 m 1,0,-1
 157 533 l 1,1,-1
 196 240 l 1,2,3
 207 127 207 127 210 89 c 1,4,-1
 212 89 l 1,5,6
 223 114 223 114 246 166.5 c 128,-1,7
 269 219 269 219 278 240 c 2,8,-1
 413 533 l 1,9,-1
 522 533 l 1,10,-1
 254 0 l 1,11,-1
 140 0 l 1,12,-1
 49 533 l 1,0,-1
EndSplineSet
EndChar

StartChar: w
Encoding: 119 119 90
Width: 693
GlyphClass: 2
Flags: W
LayerCount: 2
Fore
SplineSet
49 533 m 1,0,-1
 156 533 l 1,1,-1
 168 245 l 2,2,3
 170 181 170 181 171 100 c 1,4,-1
 174 100 l 1,5,6
 194 158 194 158 226 245 c 2,7,-1
 335 533 l 1,8,-1
 443 533 l 1,9,-1
 456 242 l 2,10,11
 457 229 457 229 459 179.5 c 128,-1,12
 461 130 461 130 460 100 c 1,13,-1
 464 100 l 1,14,15
 485 160 485 160 516 245 c 2,16,-1
 622 533 l 1,17,-1
 730 533 l 1,18,-1
 504 0 l 1,19,-1
 390 0 l 1,20,-1
 375 279 l 2,21,22
 372 400 372 400 372 421 c 1,23,-1
 368 421 l 1,24,25
 326 302 326 302 319 279 c 2,26,-1
 212 0 l 1,27,-1
 98 0 l 1,28,-1
 49 533 l 1,0,-1
EndSplineSet
Substitution2: "'sups' Superscript lookup 5 subtable" uni02B7
Substitution2: "'aalt' Access All Alternates lookup 0 subtable" uni02B7
EndChar

StartChar: x
Encoding: 120 120 91
Width: 489
GlyphClass: 2
Flags: W
LayerCount: 2
Fore
SplineSet
-42 0 m 1,0,-1
 184 274 l 1,1,-1
 54 533 l 1,2,-1
 174 533 l 1,3,-1
 227 411 l 2,4,5
 231 399 231 399 240 378 c 128,-1,6
 249 357 249 357 252 347 c 1,7,-1
 255 347 l 1,8,9
 261 356 261 356 302 411 c 2,10,-1
 394 533 l 1,11,-1
 514 533 l 1,12,-1
 300 274 l 1,13,-1
 436 0 l 1,14,-1
 319 0 l 1,15,-1
 260 138 l 2,16,17
 246 169 246 169 231 202 c 1,18,-1
 228 202 l 1,19,20
 204 167 204 167 181 138 c 2,21,-1
 75 0 l 1,22,-1
 -42 0 l 1,0,-1
EndSplineSet
Substitution2: "'sups' Superscript lookup 5 subtable" uni02E3
Substitution2: "'aalt' Access All Alternates lookup 0 subtable" uni02E3
EndChar

StartChar: y
Encoding: 121 121 92
Width: 485
GlyphClass: 2
Flags: W
LayerCount: 2
Fore
SplineSet
48 533 m 1,0,-1
 158 533 l 1,1,-1
 203 247 l 2,2,3
 215 168 215 168 219 120 c 1,4,-1
 221 120 l 1,5,6
 233 146 233 146 253 191 c 128,-1,7
 273 236 273 236 279 247 c 2,8,-1
 412 533 l 1,9,-1
 521 533 l 1,10,-1
 207 -76 l 2,11,12
 165 -157 165 -157 118 -189.5 c 128,-1,13
 71 -222 71 -222 8 -222 c 2,14,-1
 -24 -222 l 1,15,-1
 -10 -136 l 1,16,-1
 7 -136 l 2,17,18
 45 -136 45 -136 73 -116.5 c 128,-1,19
 101 -97 101 -97 126 -49 c 2,20,-1
 152 7 l 1,21,-1
 48 533 l 1,0,-1
EndSplineSet
Substitution2: "'sups' Superscript lookup 5 subtable" uni02B8
Substitution2: "'aalt' Access All Alternates lookup 0 subtable" uni02B8
EndChar

StartChar: z
Encoding: 122 122 93
Width: 457
GlyphClass: 2
Flags: W
LayerCount: 2
Fore
SplineSet
-23 0 m 1,0,-1
 -12 69 l 1,1,-1
 323 445 l 1,2,-1
 73 445 l 1,3,-1
 88 533 l 1,4,-1
 467 533 l 1,5,-1
 456 468 l 1,6,-1
 119 88 l 1,7,-1
 403 88 l 1,8,-1
 388 0 l 1,9,-1
 -23 0 l 1,0,-1
EndSplineSet
EndChar

StartChar: braceleft
Encoding: 123 123 94
Width: 425
GlyphClass: 2
Flags: W
LayerCount: 2
Fore
SplineSet
60 310 m 1,0,-1
 73 391 l 1,1,-1
 103 391 l 2,2,3
 129 391 129 391 149 421 c 128,-1,4
 169 451 169 451 179 507 c 2,5,-1
 209 691 l 2,6,7
 220 757 220 757 262 792.5 c 128,-1,8
 304 828 304 828 362 828 c 2,9,-1
 442 828 l 1,10,-1
 427 743 l 1,11,-1
 367 743 l 2,12,13
 346 743 346 743 330.5 725.5 c 128,-1,14
 315 708 315 708 310 679 c 2,15,-1
 279 493 l 2,16,17
 263 397 263 397 185 351 c 1,18,19
 249 312 249 312 234 217 c 2,20,-1
 203 30 l 2,21,22
 197 -4 197 -4 207.5 -20.5 c 128,-1,23
 218 -37 218 -37 240 -37 c 2,24,-1
 298 -37 l 1,25,-1
 284 -122 l 1,26,-1
 205 -122 l 2,27,28
 148 -122 148 -122 117 -88.5 c 128,-1,29
 86 -55 86 -55 97 13 c 2,30,-1
 128 202 l 2,31,32
 136 250 136 250 126 280 c 128,-1,33
 116 310 116 310 89 310 c 2,34,-1
 60 310 l 1,0,-1
EndSplineSet
EndChar

StartChar: bar
Encoding: 124 124 95
Width: 266
GlyphClass: 2
Flags: W
LayerCount: 2
Fore
SplineSet
9 -159 m 1,0,-1
 179 862 l 1,1,-1
 281 862 l 1,2,-1
 112 -159 l 1,3,-1
 9 -159 l 1,0,-1
EndSplineSet
EndChar

StartChar: braceright
Encoding: 125 125 96
Width: 425
GlyphClass: 2
Flags: W
LayerCount: 2
Fore
SplineSet
20 -37 m 1,0,-1
 80 -37 l 2,1,2
 127 -37 127 -37 139 30 c 2,3,-1
 170 217 l 2,4,5
 185 308 185 308 262 351 c 1,6,7
 233 373 233 373 219.5 404 c 128,-1,8
 206 435 206 435 215 493 c 2,9,-1
 246 679 l 2,10,11
 251 709 251 709 241.5 726 c 128,-1,12
 232 743 232 743 212 743 c 2,13,-1
 149 743 l 1,14,-1
 163 828 l 1,15,-1
 244 828 l 2,16,17
 301 828 301 828 331.5 792.5 c 128,-1,18
 362 757 362 757 351 691 c 2,19,-1
 320 507 l 2,20,21
 311 451 311 451 321.5 421 c 128,-1,22
 332 391 332 391 359 391 c 2,23,-1
 388 391 l 1,24,-1
 375 310 l 1,25,-1
 346 310 l 2,26,27
 318 310 318 310 298 279.5 c 128,-1,28
 278 249 278 249 270 202 c 2,29,-1
 239 13 l 2,30,31
 228 -55 228 -55 185.5 -88.5 c 128,-1,32
 143 -122 143 -122 87 -122 c 2,33,-1
 6 -122 l 1,34,-1
 20 -37 l 1,0,-1
EndSplineSet
EndChar

StartChar: asciitilde
Encoding: 126 126 97
Width: 754
GlyphClass: 2
Flags: W
LayerCount: 2
Fore
SplineSet
62 303 m 1,0,1
 154 465 154 465 291 465 c 0,2,3
 329 465 329 465 361.5 445 c 128,-1,4
 394 425 394 425 412 401 c 128,-1,5
 430 377 430 377 454 357 c 128,-1,6
 478 337 478 337 503 337 c 0,7,8
 527 337 527 337 549 347 c 128,-1,9
 571 357 571 357 588 377.5 c 128,-1,10
 605 398 605 398 613 410 c 128,-1,11
 621 422 621 422 635 446 c 1,12,-1
 715 406 l 1,13,14
 624 243 624 243 490 243 c 0,15,16
 451 243 451 243 418 263 c 128,-1,17
 385 283 385 283 366.5 307 c 128,-1,18
 348 331 348 331 324 351 c 128,-1,19
 300 371 300 371 275 371 c 0,20,21
 205 371 205 371 143 262 c 1,22,-1
 62 303 l 1,0,1
EndSplineSet
EndChar

StartChar: exclamdown
Encoding: 161 161 99
Width: 292
GlyphClass: 2
Flags: W
LayerCount: 2
Fore
SplineSet
7 -205 m 1,0,-1
 105 323 l 1,1,-1
 202 323 l 1,2,-1
 123 -205 l 1,3,-1
 7 -205 l 1,0,-1
95 406 m 1,4,-1
 117 537 l 1,5,-1
 260 537 l 1,6,-1
 238 406 l 1,7,-1
 95 406 l 1,4,-1
EndSplineSet
EndChar

StartChar: cent
Encoding: 162 162 100
Width: 496
GlyphClass: 2
Flags: W
LayerCount: 2
Fore
SplineSet
31 267 m 0,0,1
 49 374 49 374 111.5 451.5 c 128,-1,2
 174 529 174 529 266 544 c 1,3,-1
 279 621 l 1,4,-1
 371 621 l 1,5,-1
 358 545 l 1,6,7
 416 532 416 532 448 489.5 c 128,-1,8
 480 447 480 447 486 398 c 1,9,-1
 396 374 l 1,10,11
 387 411 387 411 365 436.5 c 128,-1,12
 343 462 343 462 305 462 c 0,13,14
 240 462 240 462 195 406.5 c 128,-1,15
 150 351 150 351 136 267 c 0,16,17
 121 178 121 178 149 125 c 128,-1,18
 177 72 177 72 239 72 c 0,19,20
 279 72 279 72 316 100 c 128,-1,21
 353 128 353 128 373 166 c 1,22,-1
 456 141 l 1,23,24
 432 89 432 89 382.5 46 c 128,-1,25
 333 3 333 3 266 -12 c 1,26,-1
 252 -95 l 1,27,-1
 160 -95 l 1,28,-1
 174 -11 l 1,29,30
 92 3 92 3 52 77 c 128,-1,31
 12 151 12 151 31 267 c 0,0,1
EndSplineSet
EndChar

StartChar: sterling
Encoding: 163 163 101
Width: 580
GlyphClass: 2
Flags: W
LayerCount: 2
Fore
SplineSet
41 317 m 1,0,-1
 57 410 l 1,1,-1
 160 410 l 1,2,-1
 186 564 l 2,3,4
 201 655 201 655 267.5 703.5 c 128,-1,5
 334 752 334 752 432 752 c 0,6,7
 498 752 498 752 541 717.5 c 128,-1,8
 584 683 584 683 599 638 c 1,9,-1
 516 596 l 1,10,11
 484 658 484 658 417 658 c 0,12,13
 368 658 368 658 333.5 631.5 c 128,-1,14
 299 605 299 605 290 553 c 2,15,-1
 266 410 l 1,16,-1
 471 410 l 1,17,-1
 456 317 l 1,18,-1
 251 317 l 1,19,-1
 234 217 l 2,20,21
 220 134 220 134 182 100 c 1,22,23
 224 108 224 108 246 108 c 0,24,25
 274 108 274 108 318.5 92 c 128,-1,26
 363 76 363 76 396 76 c 0,27,28
 460 76 460 76 516 105 c 1,29,-1
 530 17 l 1,30,31
 450 -17 450 -17 380 -17 c 0,32,33
 348 -17 348 -17 288.5 -0.5 c 128,-1,34
 229 16 229 16 198 16 c 0,35,36
 165 16 165 16 118 9.5 c 128,-1,37
 71 3 71 3 41 -5 c 2,38,-1
 9 -11 l 1,39,-1
 -3 65 l 1,40,41
 108 92 108 92 128 211 c 2,42,-1
 145 317 l 1,43,-1
 41 317 l 1,0,-1
EndSplineSet
EndChar

StartChar: currency
Encoding: 164 164 102
Width: 632
GlyphClass: 2
Flags: W
LayerCount: 2
Fore
SplineSet
-1 148 m 1,0,-1
 122 249 l 1,1,2
 95 296 95 296 106 365 c 0,3,4
 118 436 118 436 159 482 c 1,5,-1
 71 583 l 1,6,-1
 152 652 l 1,7,-1
 238 551 l 1,8,9
 303 589 303 589 367 589 c 256,10,11
 432 589 432 589 485 551 c 1,12,-1
 602 651 l 1,13,-1
 661 583 l 1,14,-1
 539 482 l 1,15,16
 566 434 566 434 555 365 c 256,17,18
 544 296 544 296 500 249 c 1,19,-1
 589 148 l 1,20,-1
 508 79 l 1,21,-1
 423 180 l 1,22,23
 360 141 360 141 293 141 c 0,24,25
 225 141 225 141 176 180 c 1,26,-1
 58 80 l 1,27,-1
 -1 148 l 1,0,-1
199 365 m 256,28,29
 190 311 190 311 221 272 c 128,-1,30
 252 233 252 233 308 233 c 0,31,32
 366 233 366 233 409 271.5 c 128,-1,33
 452 310 452 310 462 365 c 0,34,35
 471 421 471 421 440 459.5 c 128,-1,36
 409 498 409 498 352 498 c 256,37,38
 295 498 295 498 251.5 458.5 c 128,-1,39
 208 419 208 419 199 365 c 256,28,29
EndSplineSet
EndChar

StartChar: yen
Encoding: 165 165 103
Width: 603
GlyphClass: 2
Flags: W
LayerCount: 2
Fore
SplineSet
72 735 m 1,0,-1
 195 735 l 1,1,-1
 275 559 l 2,2,3
 318 456 318 456 325 435 c 1,4,-1
 328 435 l 1,5,-1
 421 559 l 1,6,-1
 558 735 l 1,7,-1
 682 735 l 1,8,-1
 422 415 l 1,9,-1
 565 415 l 1,10,-1
 552 338 l 1,11,-1
 364 338 l 1,12,-1
 347 236 l 1,13,-1
 535 236 l 1,14,-1
 522 158 l 1,15,-1
 334 158 l 1,16,-1
 308 0 l 1,17,-1
 202 0 l 1,18,-1
 228 158 l 1,19,-1
 39 158 l 1,20,-1
 52 236 l 1,21,-1
 241 236 l 1,22,-1
 258 338 l 1,23,-1
 69 338 l 1,24,-1
 82 415 l 1,25,-1
 226 415 l 1,26,-1
 72 735 l 1,0,-1
EndSplineSet
EndChar

StartChar: brokenbar
Encoding: 166 166 104
Width: 266
GlyphClass: 2
Flags: W
LayerCount: 2
Fore
SplineSet
111 457 m 1,0,-1
 179 862 l 1,1,-1
 281 862 l 1,2,-1
 214 457 l 1,3,-1
 111 457 l 1,0,-1
9 -159 m 1,4,-1
 76 245 l 1,5,-1
 179 245 l 1,6,-1
 112 -159 l 1,7,-1
 9 -159 l 1,4,-1
EndSplineSet
EndChar

StartChar: section
Encoding: 167 167 105
Width: 534
GlyphClass: 2
Flags: W
LayerCount: 2
Fore
SplineSet
1 51 m 1,0,-1
 80 104 l 1,1,2
 119 37 119 37 207 37 c 0,3,4
 306 37 306 37 316 95 c 0,5,6
 319 115 319 115 307.5 128.5 c 128,-1,7
 296 142 296 142 268 156 c 2,8,-1
 172 204 l 2,9,10
 53 263 53 263 69 358 c 0,11,12
 82 434 82 434 177 498 c 1,13,14
 126 545 126 545 136 603 c 0,15,16
 147 670 147 670 206 711 c 128,-1,17
 265 752 265 752 368 752 c 0,18,19
 498 752 498 752 555 650 c 1,20,-1
 480 596 l 1,21,22
 433 661 433 661 351 661 c 0,23,24
 302 661 302 661 275 645 c 128,-1,25
 248 629 248 629 244 603 c 0,26,27
 242 592 242 592 243.5 583.5 c 128,-1,28
 245 575 245 575 252 567 c 128,-1,29
 259 559 259 559 265.5 553 c 128,-1,30
 272 547 272 547 285.5 539 c 128,-1,31
 299 531 299 531 308.5 526.5 c 128,-1,32
 318 522 318 522 336 513 c 128,-1,33
 354 504 354 504 364 499 c 0,34,35
 440 460 440 460 462 437 c 0,36,37
 510 392 510 392 499 324 c 0,38,39
 486 246 486 246 401 185 c 1,40,41
 430 149 430 149 421 95 c 0,42,43
 410 26 410 26 353 -14 c 128,-1,44
 296 -54 296 -54 192 -54 c 0,45,46
 123 -54 123 -54 72 -23 c 128,-1,47
 21 8 21 8 1 51 c 1,0,-1
177 361 m 0,48,49
 172 330 172 330 187 313.5 c 128,-1,50
 202 297 202 297 243 275 c 2,51,-1
 327 233 l 1,52,53
 385 278 385 278 393 324 c 0,54,55
 398 352 398 352 380 370.5 c 128,-1,56
 362 389 362 389 322 411 c 2,57,-1
 249 451 l 1,58,59
 185 408 185 408 177 361 c 0,48,49
EndSplineSet
EndChar

StartChar: dieresis
Encoding: 168 168 106
Width: 478
GlyphClass: 2
Flags: W
LayerCount: 2
Fore
SplineSet
142 614 m 1,0,-1
 162 735 l 1,1,-1
 280 735 l 1,2,-1
 260 614 l 1,3,-1
 142 614 l 1,0,-1
330 614 m 1,4,-1
 350 735 l 1,5,-1
 467 735 l 1,6,-1
 447 614 l 1,7,-1
 330 614 l 1,4,-1
EndSplineSet
EndChar

StartChar: copyright
Encoding: 169 169 107
Width: 837
GlyphClass: 2
Flags: W
LayerCount: 2
Fore
SplineSet
247 372 m 0,0,1
 265 481 265 481 330 543.5 c 128,-1,2
 395 606 395 606 485 606 c 0,3,4
 548 606 548 606 581.5 570.5 c 128,-1,5
 615 535 615 535 624 482 c 1,6,-1
 548 459 l 1,7,8
 526 529 526 529 472 529 c 0,9,10
 419 529 419 529 383 487.5 c 128,-1,11
 347 446 347 446 335 372 c 0,12,13
 322 295 322 295 345.5 255.5 c 128,-1,14
 369 216 369 216 420 216 c 0,15,16
 455 216 455 216 483.5 238 c 128,-1,17
 512 260 512 260 528 291 c 1,18,-1
 599 269 l 1,19,20
 574 215 574 215 523.5 177 c 128,-1,21
 473 139 473 139 406 139 c 0,22,23
 318 139 318 139 273.5 200.5 c 128,-1,24
 229 262 229 262 247 372 c 0,0,1
51 373 m 256,25,26
 80 551 80 551 207 660 c 128,-1,27
 334 769 334 769 499 769 c 0,28,29
 667 769 667 769 756.5 659 c 128,-1,30
 846 549 846 549 817 373 c 0,31,32
 788 199 788 199 661.5 87.5 c 128,-1,33
 535 -24 535 -24 368 -24 c 0,34,35
 203 -24 203 -24 112.5 85.5 c 128,-1,36
 22 195 22 195 51 373 c 256,25,26
127 373 m 256,37,38
 103 226 103 226 172.5 135.5 c 128,-1,39
 242 45 242 45 379 45 c 0,40,41
 513 45 513 45 614.5 133.5 c 128,-1,42
 716 222 716 222 741 373 c 0,43,44
 766 521 766 521 695 610.5 c 128,-1,45
 624 700 624 700 487 700 c 256,46,47
 351 700 351 700 251 610 c 128,-1,48
 151 520 151 520 127 373 c 256,37,38
EndSplineSet
EndChar

StartChar: ordfeminine
Encoding: 170 170 108
Width: 374
GlyphClass: 2
Flags: W
LayerCount: 2
Fore
SplineSet
32 300 m 1,0,-1
 43 367 l 1,1,-1
 359 367 l 1,2,-1
 348 300 l 1,3,-1
 32 300 l 1,0,-1
142 540 m 0,4,5
 138 518 138 518 152.5 503 c 128,-1,6
 167 488 167 488 196 488 c 0,7,8
 237 488 237 488 270.5 515 c 128,-1,9
 304 542 304 542 311 586 c 2,10,-1
 317 624 l 1,11,12
 302 621 302 621 271.5 616 c 128,-1,13
 241 611 241 611 224.5 607 c 128,-1,14
 208 603 208 603 187.5 595 c 128,-1,15
 167 587 167 587 156 573.5 c 128,-1,16
 145 560 145 560 142 540 c 0,4,5
65 533 m 0,17,18
 71 570 71 570 92.5 595.5 c 128,-1,19
 114 621 114 621 146.5 635 c 128,-1,20
 179 649 179 649 208 656 c 128,-1,21
 237 663 237 663 274.5 668.5 c 128,-1,22
 312 674 312 674 326 679 c 1,23,-1
 330 699 l 2,24,25
 335 728 335 728 316.5 745 c 128,-1,26
 298 762 298 762 264 762 c 0,27,28
 231 762 231 762 199.5 745 c 128,-1,29
 168 728 168 728 149 709 c 1,30,-1
 110 749 l 1,31,32
 136 777 136 777 180.5 799.5 c 128,-1,33
 225 822 225 822 272 822 c 0,34,35
 422 822 422 822 397 671 c 2,36,-1
 359 437 l 1,37,-1
 288 437 l 1,38,-1
 296 483 l 1,39,40
 251 426 251 426 177 426 c 0,41,42
 116 426 116 426 86.5 455.5 c 128,-1,43
 57 485 57 485 65 533 c 0,17,18
EndSplineSet
EndChar

StartChar: guillemotleft
Encoding: 171 171 109
Width: 484
GlyphClass: 2
Flags: W
LayerCount: 2
Fore
SplineSet
31 260 m 1,0,-1
 230 498 l 1,1,-1
 295 448 l 1,2,-1
 139 260 l 1,3,-1
 232 74 l 1,4,-1
 151 21 l 1,5,-1
 31 260 l 1,0,-1
218 260 m 1,6,-1
 415 489 l 1,7,-1
 478 433 l 1,8,-1
 328 260 l 1,9,-1
 420 85 l 1,10,-1
 340 31 l 1,11,-1
 218 260 l 1,6,-1
EndSplineSet
EndChar

StartChar: logicalnot
Encoding: 172 172 110
Width: 534
GlyphClass: 2
Flags: W
LayerCount: 2
Fore
SplineSet
46 302 m 1,0,-1
 61 394 l 1,1,-1
 512 394 l 1,2,-1
 466 120 l 1,3,-1
 369 120 l 1,4,-1
 400 302 l 1,5,-1
 46 302 l 1,0,-1
EndSplineSet
EndChar

StartChar: uni00AD
Encoding: 173 173 111
Width: 542
GlyphClass: 2
Flags: W
LayerCount: 2
Fore
SplineSet
57 320 m 1,0,-1
 72 411 l 1,1,-1
 512 411 l 1,2,-1
 497 320 l 1,3,-1
 57 320 l 1,0,-1
EndSplineSet
EndChar

StartChar: registered
Encoding: 174 174 112
Width: 837
GlyphClass: 2
Flags: W
LayerCount: 2
Fore
SplineSet
250 145 m 1,0,-1
 324 595 l 1,1,-1
 502 595 l 2,2,3
 568 595 568 595 597.5 556.5 c 128,-1,4
 627 518 627 518 618 463 c 0,5,6
 606 388 606 388 540 355 c 1,7,8
 555 340 555 340 560.5 322 c 128,-1,9
 566 304 566 304 568 274 c 0,10,11
 570 218 570 218 597 145 c 1,12,-1
 500 145 l 1,13,14
 480 188 480 188 478 266 c 0,15,16
 477 283 477 283 476 289.5 c 128,-1,17
 475 296 475 296 472.5 306.5 c 128,-1,18
 470 317 470 317 463.5 321 c 128,-1,19
 457 325 457 325 444 325 c 2,20,-1
 367 325 l 1,21,-1
 337 145 l 1,22,-1
 250 145 l 1,0,-1
378 394 m 1,23,-1
 456 394 l 2,24,25
 486 394 486 394 505.5 411 c 128,-1,26
 525 428 525 428 529 456 c 0,27,28
 533 481 533 481 519.5 498.5 c 128,-1,29
 506 516 506 516 477 516 c 2,30,-1
 398 516 l 1,31,-1
 378 394 l 1,23,-1
51 374 m 0,32,33
 80 551 80 551 207 660 c 128,-1,34
 334 769 334 769 499 769 c 0,35,36
 668 769 668 769 757 659.5 c 128,-1,37
 846 550 846 550 817 374 c 0,38,39
 788 200 788 200 662 88 c 128,-1,40
 536 -24 536 -24 368 -24 c 0,41,42
 204 -24 204 -24 113 86 c 128,-1,43
 22 196 22 196 51 374 c 0,32,33
127 374 m 0,44,45
 102 225 102 225 171 136.5 c 128,-1,46
 240 48 240 48 380 48 c 0,47,48
 516 48 516 48 616 136 c 128,-1,49
 716 224 716 224 741 374 c 0,50,51
 766 523 766 523 694 610 c 128,-1,52
 622 697 622 697 487 697 c 0,53,54
 350 697 350 697 250.5 609 c 128,-1,55
 151 521 151 521 127 374 c 0,44,45
EndSplineSet
EndChar

StartChar: macron
Encoding: 175 175 113
Width: 487
GlyphClass: 2
Flags: W
LayerCount: 2
Fore
SplineSet
72 708 m 1,0,-1
 87 799 l 1,1,-1
 572 799 l 1,2,-1
 557 708 l 1,3,-1
 72 708 l 1,0,-1
EndSplineSet
EndChar

StartChar: degree
Encoding: 176 176 114
Width: 406
GlyphClass: 2
Flags: W
LayerCount: 2
Fore
SplineSet
129 613 m 0,0,1
 138 666 138 666 181 704 c 128,-1,2
 224 742 224 742 280 742 c 0,3,4
 334 742 334 742 364.5 705.5 c 128,-1,5
 395 669 395 669 386 613 c 0,6,7
 377 558 377 558 333.5 521 c 128,-1,8
 290 484 290 484 237 484 c 0,9,10
 183 484 183 484 151.5 521.5 c 128,-1,11
 120 559 120 559 129 613 c 0,0,1
196 613 m 0,12,13
 192 586 192 586 206 567.5 c 128,-1,14
 220 549 220 549 248 549 c 0,15,16
 273 549 273 549 294 567.5 c 128,-1,17
 315 586 315 586 319 613 c 0,18,19
 323 639 323 639 309 657.5 c 128,-1,20
 295 676 295 676 269 676 c 0,21,22
 241 676 241 676 220.5 657 c 128,-1,23
 200 638 200 638 196 613 c 0,12,13
EndSplineSet
EndChar

StartChar: plusminus
Encoding: 177 177 115
Width: 545
GlyphClass: 2
Flags: W
LayerCount: 2
Fore
SplineSet
57 400 m 1,0,-1
 72 491 l 1,1,-1
 256 491 l 1,2,-1
 283 656 l 1,3,-1
 385 656 l 1,4,-1
 358 491 l 1,5,-1
 542 491 l 1,6,-1
 527 400 l 1,7,-1
 343 400 l 1,8,-1
 316 236 l 1,9,-1
 214 236 l 1,10,-1
 241 400 l 1,11,-1
 57 400 l 1,0,-1
5 85 m 1,12,-1
 20 175 l 1,13,-1
 489 175 l 1,14,-1
 474 85 l 1,15,-1
 5 85 l 1,12,-1
EndSplineSet
EndChar

StartChar: twosuperior
Encoding: 178 178 116
Width: 316
GlyphClass: 2
Flags: W
LayerCount: 2
Fore
SplineSet
93 701 m 1,0,1
 139 821 139 821 248 821 c 0,2,3
 305 821 305 821 335 788 c 128,-1,4
 365 755 365 755 356 697 c 0,5,6
 346 636 346 636 270 568 c 0,7,8
 259 558 259 558 237.5 539.5 c 128,-1,9
 216 521 216 521 202 509.5 c 128,-1,10
 188 498 188 498 172 480.5 c 128,-1,11
 156 463 156 463 145 447 c 1,12,-1
 313 447 l 1,13,-1
 303 384 l 1,14,-1
 44 384 l 1,15,16
 54 442 54 442 89.5 485.5 c 128,-1,17
 125 529 125 529 219 608 c 0,18,19
 273 653 273 653 281 697 c 0,20,21
 286 726 286 726 273.5 741.5 c 128,-1,22
 261 757 261 757 236 757 c 256,23,24
 212 757 212 757 192.5 741.5 c 128,-1,25
 173 726 173 726 167 713.5 c 128,-1,26
 161 701 161 701 153 682 c 1,27,-1
 93 701 l 1,0,1
EndSplineSet
EndChar

StartChar: threesuperior
Encoding: 179 179 117
Width: 317
GlyphClass: 2
Flags: W
LayerCount: 2
Fore
SplineSet
47 475 m 1,0,-1
 111 498 l 1,1,2
 129 438 129 438 179 438 c 0,3,4
 208 438 208 438 231.5 456 c 128,-1,5
 255 474 255 474 260 508 c 0,6,7
 265 538 265 538 246 556.5 c 128,-1,8
 227 575 227 575 193 575 c 0,9,10
 179 575 179 575 152 573 c 1,11,-1
 162 638 l 1,12,13
 193 637 193 637 202 637 c 0,14,15
 229 637 229 637 250.5 653 c 128,-1,16
 272 669 272 669 277 699 c 0,17,18
 281 725 281 725 268.5 741.5 c 128,-1,19
 256 758 256 758 230 758 c 0,20,21
 187 758 187 758 155 695 c 1,22,-1
 97 715 l 1,23,24
 144 821 144 821 244 821 c 0,25,26
 303 821 303 821 332 788.5 c 128,-1,27
 361 756 361 756 353 706 c 0,28,29
 343 644 343 644 287 611 c 1,30,31
 348 581 348 581 336 508 c 0,32,33
 326 446 326 446 280.5 410 c 128,-1,34
 235 374 235 374 170 374 c 0,35,36
 120 374 120 374 87 401 c 128,-1,37
 54 428 54 428 47 475 c 1,0,-1
EndSplineSet
EndChar

StartChar: acute
Encoding: 180 180 118
Width: 349
GlyphClass: 2
Flags: W
LayerCount: 2
Fore
SplineSet
132 649 m 1,0,-1
 266 823 l 1,1,-1
 392 823 l 1,2,-1
 220 649 l 1,3,-1
 132 649 l 1,0,-1
EndSplineSet
EndChar

StartChar: uni00B5
Encoding: 181 181 119
Width: 531
GlyphClass: 2
Flags: W
LayerCount: 2
Fore
SplineSet
-16 -223 m 1,0,-1
 109 533 l 1,1,-1
 207 533 l 1,2,-1
 153 207 l 2,3,4
 131 72 131 72 221 72 c 0,5,6
 278 72 278 72 315.5 120 c 128,-1,7
 353 168 353 168 364 234 c 2,8,-1
 413 533 l 1,9,-1
 512 533 l 1,10,-1
 424 0 l 1,11,-1
 330 0 l 1,12,-1
 341 68 l 1,13,-1
 340 68 l 1,14,15
 323 34 323 34 281.5 8.5 c 128,-1,16
 240 -17 240 -17 188 -17 c 0,17,18
 142 -17 142 -17 122 18 c 1,19,-1
 82 -223 l 1,20,-1
 -16 -223 l 1,0,-1
EndSplineSet
EndChar

StartChar: paragraph
Encoding: 182 182 120
Width: 609
GlyphClass: 2
Flags: W
LayerCount: 2
Fore
SplineSet
92 547 m 0,0,1
 109 647 109 647 171 708.5 c 128,-1,2
 233 770 233 770 330 770 c 2,3,-1
 616 770 l 1,4,-1
 476 -72 l 1,5,-1
 391 -72 l 1,6,-1
 515 674 l 1,7,-1
 433 674 l 1,8,-1
 310 -72 l 1,9,-1
 225 -72 l 1,10,-1
 291 323 l 1,11,12
 265 316 265 316 241 316 c 0,13,14
 162 316 162 316 117.5 375.5 c 128,-1,15
 73 435 73 435 92 547 c 0,0,1
EndSplineSet
EndChar

StartChar: periodcentered
Encoding: 183 183 121
Width: 324
GlyphClass: 2
Flags: W
LayerCount: 2
Fore
SplineSet
91 286 m 1,0,-1
 114 420 l 1,1,-1
 256 420 l 1,2,-1
 233 286 l 1,3,-1
 91 286 l 1,0,-1
EndSplineSet
EndChar

StartChar: cedilla
Encoding: 184 184 122
Width: 292
GlyphClass: 2
Flags: W
LayerCount: 2
Fore
SplineSet
-31 -144 m 1,0,1
 2 -152 2 -152 29 -152 c 0,2,3
 84 -152 84 -152 89 -121 c 0,4,5
 95 -83 95 -83 7 -77 c 1,6,-1
 77 31 l 1,7,-1
 168 31 l 1,8,-1
 128 -29 l 1,9,10
 195 -52 195 -52 184 -122 c 0,11,12
 177 -166 177 -166 139 -196.5 c 128,-1,13
 101 -227 101 -227 24 -227 c 0,14,15
 -16 -227 -16 -227 -43 -219 c 1,16,-1
 -31 -144 l 1,0,1
EndSplineSet
EndChar

StartChar: onesuperior
Encoding: 185 185 123
Width: 309
GlyphClass: 2
Flags: W
LayerCount: 2
Fore
SplineSet
108 686 m 1,0,-1
 118 745 l 1,1,-1
 144 745 l 2,2,3
 219 745 219 745 228 800 c 2,4,-1
 231 818 l 1,5,-1
 297 818 l 1,6,-1
 225 384 l 1,7,-1
 151 384 l 1,8,-1
 201 686 l 1,9,-1
 108 686 l 1,0,-1
EndSplineSet
EndChar

StartChar: ordmasculine
Encoding: 186 186 124
Width: 379
GlyphClass: 2
Flags: W
LayerCount: 2
Fore
SplineSet
153 623 m 0,0,1
 142 557 142 557 164 523.5 c 128,-1,2
 186 490 186 490 223 490 c 256,3,4
 260 490 260 490 293.5 524 c 128,-1,5
 327 558 327 558 338 623 c 0,6,7
 349 690 349 690 327 724 c 128,-1,8
 305 758 305 758 268 758 c 256,9,10
 231 758 231 758 197.5 724 c 128,-1,11
 164 690 164 690 153 623 c 0,0,1
79 623 m 0,12,13
 93 708 93 708 145 765 c 128,-1,14
 197 822 197 822 278 822 c 0,15,16
 358 822 358 822 392.5 765 c 128,-1,17
 427 708 427 708 413 623 c 0,18,19
 407 589 407 589 393.5 556.5 c 128,-1,20
 380 524 380 524 356.5 493.5 c 128,-1,21
 333 463 333 463 295.5 444.5 c 128,-1,22
 258 426 258 426 213 426 c 256,23,24
 168 426 168 426 136.5 444 c 128,-1,25
 105 462 105 462 92.5 492 c 128,-1,26
 80 522 80 522 76.5 554.5 c 128,-1,27
 73 587 73 587 79 623 c 0,12,13
33 304 m 1,28,-1
 44 371 l 1,29,-1
 364 371 l 1,30,-1
 352 304 l 1,31,-1
 33 304 l 1,28,-1
EndSplineSet
EndChar

StartChar: guillemotright
Encoding: 187 187 125
Width: 484
GlyphClass: 2
Flags: W
LayerCount: 2
Fore
SplineSet
57 433 m 1,0,-1
 139 489 l 1,1,-1
 260 260 l 1,2,-1
 63 31 l 1,3,-1
 1 85 l 1,4,-1
 151 260 l 1,5,-1
 57 433 l 1,0,-1
185 75 m 1,6,-1
 338 260 l 1,7,-1
 245 448 l 1,8,-1
 329 498 l 1,9,-1
 448 260 l 1,10,-1
 250 21 l 1,11,-1
 185 75 l 1,6,-1
EndSplineSet
EndChar

StartChar: onequarter
Encoding: 188 188 126
Width: 942
GlyphClass: 3
Flags: W
LayerCount: 2
Fore
SplineSet
608 137 m 1,0,-1
 712 137 l 1,1,-1
 731 256 l 2,2,3
 732 265 732 265 736 284.5 c 128,-1,4
 740 304 740 304 741 308 c 1,5,-1
 608 137 l 1,0,-1
121 637 m 1,6,-1
 133 711 l 1,7,-1
 164 711 l 2,8,9
 247 711 247 711 257 769 c 2,10,-1
 261 793 l 1,11,-1
 342 793 l 1,12,-1
 259 292 l 1,13,-1
 167 292 l 1,14,-1
 224 637 l 1,15,-1
 121 637 l 1,6,-1
100 -51 m 1,16,-1
 702 782 l 1,17,-1
 798 782 l 1,18,-1
 199 -51 l 1,19,-1
 100 -51 l 1,16,-1
512 129 m 1,20,-1
 777 456 l 1,21,-1
 854 456 l 1,22,-1
 801 137 l 1,23,-1
 861 137 l 1,24,-1
 848 58 l 1,25,-1
 788 58 l 1,26,-1
 770 -47 l 1,27,-1
 681 -47 l 1,28,-1
 699 58 l 1,29,-1
 501 58 l 1,30,-1
 512 129 l 1,20,-1
EndSplineSet
Ligature2: "'frac' Diagonal Fractions lookup 7 subtable" one fraction four
Ligature2: "'frac' Diagonal Fractions lookup 7 subtable" one slash four
EndChar

StartChar: onehalf
Encoding: 189 189 127
Width: 940
GlyphClass: 3
Flags: W
LayerCount: 2
Fore
SplineSet
562 316 m 1,0,1
 569 333 569 333 574 343.5 c 128,-1,2
 579 354 579 354 595 378.5 c 128,-1,3
 611 403 611 403 628 417.5 c 128,-1,4
 645 432 645 432 676 445 c 128,-1,5
 707 458 707 458 742 458 c 0,6,7
 808 458 808 458 844 418.5 c 128,-1,8
 880 379 880 379 869 313 c 0,9,10
 862 268 862 268 834.5 232 c 128,-1,11
 807 196 807 196 758 154 c 0,12,13
 718 121 718 121 700.5 106 c 128,-1,14
 683 91 683 91 663 70.5 c 128,-1,15
 643 50 643 50 631 33 c 1,16,-1
 821 33 l 1,17,-1
 808 -45 l 1,18,-1
 508 -45 l 1,19,20
 519 20 519 20 557.5 70 c 128,-1,21
 596 120 596 120 711 215 c 0,22,23
 769 262 769 262 777 314 c 0,24,25
 782 345 782 345 769.5 362 c 128,-1,26
 757 379 757 379 728 379 c 0,27,28
 711 379 711 379 697 371.5 c 128,-1,29
 683 364 683 364 674 356 c 128,-1,30
 665 348 665 348 655.5 332 c 128,-1,31
 646 316 646 316 644.5 311 c 128,-1,32
 643 306 643 306 637 292 c 1,33,-1
 562 316 l 1,0,1
121 637 m 1,34,-1
 133 711 l 1,35,-1
 164 711 l 2,36,37
 247 711 247 711 257 769 c 2,38,-1
 261 793 l 1,39,-1
 342 793 l 1,40,-1
 259 292 l 1,41,-1
 167 292 l 1,42,-1
 224 637 l 1,43,-1
 121 637 l 1,34,-1
91 -51 m 1,44,-1
 695 782 l 1,45,-1
 791 782 l 1,46,-1
 190 -51 l 1,47,-1
 91 -51 l 1,44,-1
EndSplineSet
Ligature2: "'frac' Diagonal Fractions lookup 7 subtable" one fraction two
Ligature2: "'frac' Diagonal Fractions lookup 7 subtable" one slash two
EndChar

StartChar: threequarters
Encoding: 190 190 128
Width: 943
GlyphClass: 3
Flags: W
LayerCount: 2
Fore
SplineSet
72 408 m 1,0,-1
 150 436 l 1,1,2
 155 423 155 423 158.5 414 c 128,-1,3
 162 405 162 405 170 392.5 c 128,-1,4
 178 380 178 380 192.5 374 c 128,-1,5
 207 368 207 368 226 368 c 0,6,7
 258 368 258 368 282.5 387 c 128,-1,8
 307 406 307 406 314 444 c 0,9,10
 319 477 319 477 299 497 c 128,-1,11
 279 517 279 517 241 517 c 0,12,13
 226 517 226 517 190 515 c 1,14,-1
 204 596 l 1,15,16
 223 594 223 594 252 594 c 256,17,18
 281 594 281 594 304.5 611.5 c 128,-1,19
 328 629 328 629 333 661 c 0,20,21
 338 689 338 689 323.5 707 c 128,-1,22
 309 725 309 725 283 725 c 0,23,24
 262 725 262 725 245 713 c 128,-1,25
 228 701 228 701 219 688 c 128,-1,26
 210 675 210 675 199 654 c 1,27,-1
 127 677 l 1,28,29
 153 739 153 739 199.5 771 c 128,-1,30
 246 803 246 803 299 803 c 0,31,32
 367 803 367 803 401.5 764.5 c 128,-1,33
 436 726 436 726 426 668 c 0,34,35
 415 602 415 602 355 562 c 1,36,37
 420 523 420 523 407 444 c 0,38,39
 395 372 395 372 342 330 c 128,-1,40
 289 288 289 288 213 288 c 0,41,42
 162 288 162 288 122.5 315.5 c 128,-1,43
 83 343 83 343 72 408 c 1,0,-1
520 128 m 1,44,-1
 785 456 l 1,45,-1
 861 456 l 1,46,-1
 808 137 l 1,47,-1
 867 137 l 1,48,-1
 854 58 l 1,49,-1
 795 58 l 1,50,-1
 777 -47 l 1,51,-1
 687 -47 l 1,52,-1
 704 58 l 1,53,-1
 508 58 l 1,54,-1
 520 128 l 1,44,-1
615 137 m 1,55,-1
 718 137 l 1,56,-1
 737 254 l 2,57,58
 738 262 738 262 742 283 c 128,-1,59
 746 304 746 304 747 308 c 1,60,-1
 711 259 l 1,61,-1
 615 137 l 1,55,-1
160 -51 m 1,62,-1
 767 782 l 1,63,-1
 864 782 l 1,64,-1
 259 -51 l 1,65,-1
 160 -51 l 1,62,-1
EndSplineSet
Ligature2: "'frac' Diagonal Fractions lookup 7 subtable" three fraction four
Ligature2: "'frac' Diagonal Fractions lookup 7 subtable" three slash four
EndChar

StartChar: questiondown
Encoding: 191 191 129
Width: 545
GlyphClass: 2
Flags: W
LayerCount: 2
Fore
SplineSet
9 -17 m 0,0,1
 16 28 16 28 39.5 63.5 c 128,-1,2
 63 99 63 99 91.5 123.5 c 128,-1,3
 120 148 120 148 149 171.5 c 128,-1,4
 178 195 178 195 200.5 227.5 c 128,-1,5
 223 260 223 260 230 301 c 2,6,-1
 234 328 l 1,7,-1
 340 328 l 1,8,-1
 334 292 l 2,9,10
 326 245 326 245 303 207 c 128,-1,11
 280 169 280 169 252 144.5 c 128,-1,12
 224 120 224 120 196 97.5 c 128,-1,13
 168 75 168 75 146 45 c 128,-1,14
 124 15 124 15 118 -21 c 0,15,16
 110 -71 110 -71 131.5 -100.5 c 128,-1,17
 153 -130 153 -130 199 -130 c 0,18,19
 285 -130 285 -130 347 -18 c 1,20,-1
 435 -50 l 1,21,22
 399 -126 399 -126 333 -174 c 128,-1,23
 267 -222 267 -222 185 -222 c 0,24,25
 92 -222 92 -222 43 -166 c 128,-1,26
 -6 -110 -6 -110 9 -17 c 0,0,1
228 406 m 1,27,-1
 250 537 l 1,28,-1
 393 537 l 1,29,-1
 371 406 l 1,30,-1
 228 406 l 1,27,-1
EndSplineSet
EndChar

StartChar: AE
Encoding: 198 198 136
Width: 929
GlyphClass: 2
Flags: W
LayerCount: 2
Fore
SplineSet
255 279 m 1,0,-1
 455 279 l 1,1,-1
 514 633 l 1,2,-1
 505 633 l 1,3,-1
 255 279 l 1,0,-1
-51 0 m 1,4,-1
 468 735 l 1,5,-1
 965 735 l 1,6,-1
 950 643 l 1,7,-1
 620 643 l 1,8,-1
 584 426 l 1,9,-1
 879 426 l 1,10,-1
 864 334 l 1,11,-1
 564 334 l 1,12,-1
 524 92 l 1,13,-1
 868 92 l 1,14,-1
 853 0 l 1,15,-1
 409 0 l 1,16,-1
 441 191 l 1,17,-1
 196 191 l 1,18,-1
 63 0 l 1,19,-1
 -51 0 l 1,4,-1
EndSplineSet
EndChar

StartChar: Eth
Encoding: 208 208 146
Width: 668
GlyphClass: 2
Flags: W
LayerCount: 2
Fore
SplineSet
40 0 m 1,0,-1
 94 329 l 1,1,-1
 17 329 l 1,2,-1
 31 416 l 1,3,-1
 108 416 l 1,4,-1
 161 735 l 1,5,-1
 369 735 l 2,6,7
 530 735 530 735 603 640.5 c 128,-1,8
 676 546 676 546 646 367 c 0,9,10
 633 288 633 288 603 223.5 c 128,-1,11
 573 159 573 159 525 108 c 128,-1,12
 477 57 477 57 406 28.5 c 128,-1,13
 335 0 335 0 245 0 c 2,14,-1
 40 0 l 1,0,-1
161 92 m 1,15,-1
 249 92 l 2,16,17
 490 92 490 92 535 367 c 0,18,19
 581 643 581 643 341 643 c 2,20,-1
 252 643 l 1,21,-1
 214 416 l 1,22,-1
 398 416 l 1,23,-1
 384 329 l 1,24,-1
 200 329 l 1,25,-1
 161 92 l 1,15,-1
EndSplineSet
EndChar

StartChar: multiply
Encoding: 215 215 153
Width: 540
GlyphClass: 2
Flags: W
LayerCount: 2
Fore
SplineSet
21 199 m 1,0,-1
 221 364 l 1,1,-1
 76 531 l 1,2,-1
 153 596 l 1,3,-1
 293 427 l 1,4,-1
 492 596 l 1,5,-1
 547 531 l 1,6,-1
 347 364 l 1,7,-1
 492 199 l 1,8,-1
 414 133 l 1,9,-1
 273 302 l 1,10,-1
 76 133 l 1,11,-1
 21 199 l 1,0,-1
EndSplineSet
EndChar

StartChar: Oslash
Encoding: 216 216 154
Width: 689
GlyphClass: 2
Flags: W
LayerCount: 2
Fore
SplineSet
53 367 m 0,0,1
 82 540 82 540 183.5 646 c 128,-1,2
 285 752 285 752 423 752 c 0,3,4
 500 752 500 752 558 716 c 1,5,-1
 609 790 l 1,6,-1
 700 790 l 1,7,-1
 615 666 l 1,8,9
 697 559 697 559 665 367 c 0,10,11
 636 192 636 192 535 87.5 c 128,-1,12
 434 -17 434 -17 296 -17 c 0,13,14
 223 -17 223 -17 171 12 c 1,15,-1
 120 -61 l 1,16,-1
 30 -61 l 1,17,-1
 113 59 l 1,18,19
 20 166 20 166 53 367 c 0,0,1
544 565 m 1,20,-1
 231 97 l 1,21,22
 263 76 263 76 311 76 c 0,23,24
 401 76 401 76 467 154 c 128,-1,25
 533 232 533 232 556 367 c 0,26,27
 576 489 576 489 544 565 c 1,20,-1
499 630 m 1,28,29
 462 659 462 659 408 659 c 0,30,31
 316 659 316 659 250.5 580 c 128,-1,32
 185 501 185 501 163 367 c 0,33,34
 141 235 141 235 181 157 c 1,35,-1
 499 630 l 1,28,29
EndSplineSet
EndChar

StartChar: Thorn
Encoding: 222 222 160
Width: 568
GlyphClass: 2
Flags: W
LayerCount: 2
Fore
SplineSet
34 0 m 1,0,-1
 156 735 l 1,1,-1
 262 735 l 1,2,-1
 242 615 l 1,3,-1
 329 615 l 2,4,5
 400 615 400 615 449 595.5 c 128,-1,6
 498 576 498 576 521.5 541.5 c 128,-1,7
 545 507 545 507 552 466.5 c 128,-1,8
 559 426 559 426 551 377 c 0,9,10
 531 257 531 257 450 197 c 128,-1,11
 369 137 369 137 248 137 c 2,12,-1
 163 137 l 1,13,-1
 140 0 l 1,14,-1
 34 0 l 1,0,-1
178 229 m 1,15,-1
 252 229 l 2,16,17
 416 229 416 229 441 378 c 0,18,19
 465 523 465 523 305 523 c 2,20,-1
 226 523 l 1,21,-1
 178 229 l 1,15,-1
EndSplineSet
EndChar

StartChar: germandbls
Encoding: 223 223 161
Width: 605
GlyphClass: 2
Flags: W
LayerCount: 2
Fore
SplineSet
34 0 m 1,0,-1
 124 541 l 2,1,2
 141 643 141 643 210.5 697.5 c 128,-1,3
 280 752 280 752 371 752 c 0,4,5
 470 752 470 752 522 698 c 128,-1,6
 574 644 574 644 558 552 c 0,7,8
 540 445 540 445 452 395 c 1,9,-1
 452 393 l 1,10,11
 508 374 508 374 536.5 325 c 128,-1,12
 565 276 565 276 552 198 c 0,13,14
 536 99 536 99 468.5 41 c 128,-1,15
 401 -17 401 -17 302 -17 c 0,16,17
 234 -17 234 -17 183 2 c 1,18,-1
 202 97 l 1,19,20
 253 76 253 76 314 76 c 0,21,22
 361 76 361 76 400 110 c 128,-1,23
 439 144 439 144 448 198 c 0,24,25
 459 265 459 265 427.5 301 c 128,-1,26
 396 337 396 337 333 337 c 2,27,-1
 270 337 l 1,28,-1
 285 428 l 1,29,-1
 339 428 l 2,30,31
 380 428 380 428 411.5 460.5 c 128,-1,32
 443 493 443 493 452 547 c 0,33,34
 460 597 460 597 435.5 628 c 128,-1,35
 411 659 411 659 359 659 c 0,36,37
 306 659 306 659 269.5 625 c 128,-1,38
 233 591 233 591 224 533 c 2,39,-1
 136 0 l 1,40,-1
 34 0 l 1,0,-1
EndSplineSet
EndChar

StartChar: ae
Encoding: 230 230 168
Width: 843
GlyphClass: 2
Flags: W
LayerCount: 2
Fore
SplineSet
8 139 m 0,0,1
 33 288 33 288 259 323 c 0,2,3
 347 337 347 337 371 344 c 0,4,5
 371 347 371 347 373 359.5 c 128,-1,6
 375 372 375 372 376 376 c 0,7,8
 382 414 382 414 358 440.5 c 128,-1,9
 334 467 334 467 286 467 c 0,10,11
 198 467 198 467 123 392 c 1,12,-1
 71 446 l 1,13,14
 117 495 117 495 176.5 523 c 128,-1,15
 236 551 236 551 301 551 c 0,16,17
 418 551 418 551 453 460 c 1,18,19
 529 551 529 551 633 551 c 0,20,21
 730 551 730 551 780.5 473 c 128,-1,22
 831 395 831 395 811 275 c 0,23,24
 810 268 810 268 807 254.5 c 128,-1,25
 804 241 804 241 803 232 c 1,26,-1
 449 232 l 1,27,-1
 446 216 l 1,28,29
 440 158 440 158 468 113 c 128,-1,30
 496 68 496 68 556 68 c 0,31,32
 642 68 642 68 698 149 c 1,33,-1
 775 120 l 1,34,35
 741 61 741 61 680 22 c 128,-1,36
 619 -17 619 -17 540 -17 c 0,37,38
 414 -17 414 -17 372 101 c 1,39,40
 280 -17 280 -17 159 -17 c 0,41,42
 78 -17 78 -17 37 25.5 c 128,-1,43
 -4 68 -4 68 8 139 c 0,0,1
109 146 m 0,44,45
 104 114 104 114 124.5 92 c 128,-1,46
 145 70 145 70 185 70 c 0,47,48
 243 70 243 70 290.5 109.5 c 128,-1,49
 338 149 338 149 348 211 c 2,50,-1
 358 270 l 1,51,52
 310 258 310 258 253 249 c 0,53,54
 190 239 190 239 153 215 c 128,-1,55
 116 191 116 191 109 146 c 0,44,45
461 306 m 1,56,-1
 716 306 l 1,57,58
 716 308 716 308 717 310 c 0,59,60
 728 374 728 374 701 420 c 128,-1,61
 674 466 674 466 620 466 c 0,62,63
 566 466 566 466 526.5 426 c 128,-1,64
 487 386 487 386 466 326 c 1,65,-1
 461 306 l 1,56,-1
EndSplineSet
EndChar

StartChar: eth
Encoding: 240 240 178
Width: 525
GlyphClass: 2
Flags: W
LayerCount: 2
Fore
SplineSet
25 234 m 0,0,1
 45 352 45 352 118 422 c 128,-1,2
 191 492 191 492 291 492 c 0,3,4
 335 492 335 492 365.5 474 c 128,-1,5
 396 456 396 456 406 432 c 1,6,7
 402 532 402 532 349 597 c 1,8,-1
 234 518 l 1,9,-1
 187 585 l 1,10,-1
 285 652 l 1,11,12
 245 677 245 677 193 686 c 1,13,-1
 241 770 l 1,14,15
 291 761 291 761 334 743 c 0,16,17
 357 732 357 732 379 716 c 1,18,-1
 488 791 l 1,19,-1
 531 724 l 1,20,-1
 437 658 l 1,21,22
 459 629 459 629 474 594 c 0,23,24
 496 540 496 540 502 457.5 c 128,-1,25
 508 375 508 375 491 272 c 0,26,27
 470 143 470 143 394.5 63 c 128,-1,28
 319 -17 319 -17 208 -17 c 0,29,30
 106 -17 106 -17 56.5 53.5 c 128,-1,31
 7 124 7 124 25 234 c 0,0,1
126 237 m 0,32,33
 114 165 114 165 141 118.5 c 128,-1,34
 168 72 168 72 226 72 c 0,35,36
 282 72 282 72 324 117 c 128,-1,37
 366 162 366 162 378 238 c 0,38,39
 390 311 390 311 363.5 356.5 c 128,-1,40
 337 402 337 402 281 402 c 256,41,42
 225 402 225 402 182 357.5 c 128,-1,43
 139 313 139 313 126 237 c 0,32,33
EndSplineSet
EndChar

StartChar: divide
Encoding: 247 247 185
Width: 542
GlyphClass: 2
Flags: W
LayerCount: 2
Fore
SplineSet
241 491 m 1,0,-1
 262 618 l 1,1,-1
 390 618 l 1,2,-1
 369 491 l 1,3,-1
 241 491 l 1,0,-1
29 317 m 1,4,-1
 44 409 l 1,5,-1
 538 409 l 1,6,-1
 523 317 l 1,7,-1
 29 317 l 1,4,-1
178 108 m 1,8,-1
 199 236 l 1,9,-1
 326 236 l 1,10,-1
 305 108 l 1,11,-1
 178 108 l 1,8,-1
EndSplineSet
EndChar

StartChar: oslash
Encoding: 248 248 186
Width: 527
GlyphClass: 2
Flags: W
LayerCount: 2
Fore
SplineSet
31 266 m 0,0,1
 44 343 44 343 77.5 405.5 c 128,-1,2
 111 468 111 468 172 509.5 c 128,-1,3
 233 551 233 551 309 551 c 0,4,5
 364 551 364 551 405 528 c 1,6,-1
 450 597 l 1,7,-1
 527 597 l 1,8,-1
 454 486 l 1,9,10
 515 408 515 408 492 266 c 0,11,12
 484 217 484 217 464.5 170.5 c 128,-1,13
 445 124 445 124 412 80 c 128,-1,14
 379 36 379 36 328 9.5 c 128,-1,15
 277 -17 277 -17 214 -17 c 0,16,17
 161 -17 161 -17 124 2 c 1,18,-1
 82 -58 l 1,19,-1
 6 -58 l 1,20,-1
 71 41 l 1,21,22
 6 118 6 118 31 266 c 0,0,1
386 386 m 1,23,-1
 179 85 l 1,24,25
 202 72 202 72 229 72 c 0,26,27
 282 72 282 72 329 121 c 128,-1,28
 376 170 376 170 392 266 c 0,29,30
 404 339 404 339 386 386 c 1,23,-1
349 445 m 1,31,32
 327 462 327 462 294 462 c 0,33,34
 241 462 241 462 193.5 412 c 128,-1,35
 146 362 146 362 130 266 c 0,36,37
 117 190 117 190 141 139 c 1,38,-1
 349 445 l 1,31,32
EndSplineSet
EndChar

StartChar: thorn
Encoding: 254 254 192
Width: 552
GlyphClass: 2
Flags: W
LayerCount: 2
Fore
SplineSet
166 267 m 0,0,1
 151 178 151 178 177 125 c 128,-1,2
 203 72 203 72 257 72 c 0,3,4
 317 72 317 72 359.5 123.5 c 128,-1,5
 402 175 402 175 418 267 c 0,6,7
 433 357 433 357 407.5 409.5 c 128,-1,8
 382 462 382 462 322 462 c 0,9,10
 269 462 269 462 225 408.5 c 128,-1,11
 181 355 181 355 166 267 c 0,0,1
-12 -223 m 1,12,-1
 151 761 l 1,13,-1
 250 761 l 1,14,-1
 200 459 l 1,15,16
 221 498 221 498 264 524.5 c 128,-1,17
 307 551 307 551 349 551 c 0,18,19
 446 551 446 551 492.5 474.5 c 128,-1,20
 539 398 539 398 517 267 c 0,21,22
 505 193 505 193 476.5 136.5 c 128,-1,23
 448 80 448 80 411 47.5 c 128,-1,24
 374 15 374 15 334.5 -1 c 128,-1,25
 295 -17 295 -17 254 -17 c 0,26,27
 204 -17 204 -17 174 10.5 c 128,-1,28
 144 38 144 38 136 72 c 1,29,-1
 87 -223 l 1,30,-1
 -12 -223 l 1,12,-1
EndSplineSet
EndChar

StartChar: Dcroat
Encoding: 272 272 210
Width: 670
GlyphClass: 2
Flags: W
LayerCount: 2
Fore
SplineSet
41 0 m 1,0,-1
 95 329 l 1,1,-1
 -1 329 l 1,2,-1
 14 416 l 1,3,-1
 110 416 l 1,4,-1
 163 735 l 1,5,-1
 370 735 l 2,6,7
 531 735 531 735 604 640.5 c 128,-1,8
 677 546 677 546 647 367 c 0,9,10
 634 288 634 288 604 223.5 c 128,-1,11
 574 159 574 159 526.5 108 c 128,-1,12
 479 57 479 57 407.5 28.5 c 128,-1,13
 336 0 336 0 247 0 c 2,14,-1
 41 0 l 1,0,-1
162 92 m 1,15,-1
 250 92 l 2,16,17
 491 92 491 92 537 367 c 0,18,19
 583 643 583 643 342 643 c 2,20,-1
 253 643 l 1,21,-1
 216 416 l 1,22,-1
 380 416 l 1,23,-1
 366 329 l 1,24,-1
 201 329 l 1,25,-1
 162 92 l 1,15,-1
EndSplineSet
EndChar

StartChar: dcroat
Encoding: 273 273 211
Width: 551
GlyphClass: 2
Flags: W
LayerCount: 2
Fore
SplineSet
30 264 m 0,0,1
 52 396 52 396 125.5 470 c 128,-1,2
 199 544 199 544 290 544 c 0,3,4
 338 544 338 544 370.5 518.5 c 128,-1,5
 403 493 403 493 413 459 c 1,6,-1
 437 603 l 1,7,-1
 238 603 l 1,8,-1
 251 681 l 1,9,-1
 450 681 l 1,10,-1
 463 761 l 1,11,-1
 561 761 l 1,12,-1
 548 681 l 1,13,-1
 605 681 l 1,14,-1
 592 603 l 1,15,-1
 535 603 l 1,16,-1
 435 0 l 1,17,-1
 340 0 l 1,18,-1
 353 78 l 1,19,20
 326 35 326 35 285 9 c 128,-1,21
 244 -17 244 -17 197 -17 c 0,22,23
 110 -17 110 -17 58.5 54.5 c 128,-1,24
 7 126 7 126 30 264 c 0,0,1
131 264 m 0,25,26
 116 173 116 173 142.5 122.5 c 128,-1,27
 169 72 169 72 225 72 c 256,28,29
 280 72 280 72 324 124.5 c 128,-1,30
 368 177 368 177 383 264 c 0,31,32
 397 348 397 348 370.5 401.5 c 128,-1,33
 344 455 344 455 288 455 c 256,34,35
 232 455 232 455 188.5 403 c 128,-1,36
 145 351 145 351 131 264 c 0,25,26
EndSplineSet
EndChar

StartChar: uni0123
Encoding: 291 291 229
Width: 536
GlyphClass: 2
Flags: W
LayerCount: 2
Fore
SplineSet
256 625 m 1,0,-1
 370 812 l 1,1,-1
 438 812 l 1,2,-1
 364 625 l 1,3,-1
 256 625 l 1,0,-1
134 277 m 0,4,5
 120 190 120 190 145.5 141 c 128,-1,6
 171 92 171 92 223 92 c 0,7,8
 278 92 278 92 318.5 140 c 128,-1,9
 359 188 359 188 373 277 c 0,10,11
 387 364 387 364 362.5 413 c 128,-1,12
 338 462 338 462 284 462 c 0,13,14
 231 462 231 462 189.5 411.5 c 128,-1,15
 148 361 148 361 134 277 c 0,4,5
34 276 m 0,16,17
 55 400 55 400 126 475.5 c 128,-1,18
 197 551 197 551 287 551 c 0,19,20
 339 551 339 551 368 524.5 c 128,-1,21
 397 498 397 498 405 463 c 1,22,-1
 417 533 l 1,23,-1
 514 533 l 1,24,-1
 437 70 l 2,25,26
 412 -81 412 -81 346 -154 c 128,-1,27
 280 -227 280 -227 165 -227 c 0,28,29
 106 -227 106 -227 59 -201 c 128,-1,30
 12 -175 12 -175 -12 -126 c 1,31,-1
 62 -78 l 1,32,33
 103 -143 103 -143 180 -143 c 0,34,35
 236 -143 236 -143 275.5 -99 c 128,-1,36
 315 -55 315 -55 329 16 c 0,37,38
 338 61 338 61 342 83 c 1,39,40
 319 48 319 48 280.5 26 c 128,-1,41
 242 4 242 4 199 4 c 0,42,43
 105 4 105 4 59.5 79 c 128,-1,44
 14 154 14 154 34 276 c 0,16,17
EndSplineSet
EndChar

StartChar: Hbar
Encoding: 294 294 232
Width: 694
GlyphClass: 2
Flags: W
LayerCount: 2
Fore
SplineSet
55 552 m 1,0,-1
 70 638 l 1,1,-1
 145 638 l 1,2,-1
 161 735 l 1,3,-1
 267 735 l 1,4,-1
 251 638 l 1,5,-1
 562 638 l 1,6,-1
 579 735 l 1,7,-1
 683 735 l 1,8,-1
 667 638 l 1,9,-1
 743 638 l 1,10,-1
 729 552 l 1,11,-1
 653 552 l 1,12,-1
 562 0 l 1,13,-1
 457 0 l 1,14,-1
 512 332 l 1,15,-1
 200 332 l 1,16,-1
 145 0 l 1,17,-1
 39 0 l 1,18,-1
 131 552 l 1,19,-1
 55 552 l 1,0,-1
548 552 m 1,20,-1
 237 552 l 1,21,-1
 215 424 l 1,22,-1
 527 424 l 1,23,-1
 548 552 l 1,20,-1
EndSplineSet
EndChar

StartChar: hbar
Encoding: 295 295 233
Width: 531
GlyphClass: 2
Flags: W
LayerCount: 2
Fore
SplineSet
58 603 m 1,0,-1
 72 683 l 1,1,-1
 136 683 l 1,2,-1
 149 761 l 1,3,-1
 247 761 l 1,4,-1
 234 683 l 1,5,-1
 422 683 l 1,6,-1
 409 603 l 1,7,-1
 221 603 l 1,8,-1
 195 448 l 1,9,-1
 196 448 l 1,10,11
 219 481 219 481 260 505.5 c 128,-1,12
 301 530 301 530 347 530 c 0,13,14
 377 530 377 530 401.5 521 c 128,-1,15
 426 512 426 512 449.5 491 c 128,-1,16
 473 470 473 470 482 426.5 c 128,-1,17
 491 383 491 383 481 323 c 2,18,-1
 428 0 l 1,19,-1
 330 0 l 1,20,-1
 381 310 l 2,21,22
 403 441 403 441 315 441 c 0,23,24
 265 441 265 441 222 395 c 128,-1,25
 179 349 179 349 168 288 c 2,26,-1
 121 0 l 1,27,-1
 23 0 l 1,28,-1
 123 603 l 1,29,-1
 58 603 l 1,0,-1
EndSplineSet
EndChar

StartChar: dotlessi
Encoding: 305 305 243
Width: 234
GlyphClass: 2
Flags: W
LayerCount: 2
Fore
SplineSet
22 0 m 1,0,-1
 110 533 l 1,1,-1
 208 533 l 1,2,-1
 120 0 l 1,3,-1
 22 0 l 1,0,-1
EndSplineSet
EndChar

StartChar: kgreenlandic
Encoding: 312 312 250
Width: 497
GlyphClass: 2
Flags: W
LayerCount: 2
Fore
SplineSet
20 0 m 1,0,-1
 109 533 l 1,1,-1
 206 533 l 1,2,-1
 172 324 l 1,3,-1
 174 324 l 1,4,-1
 416 533 l 1,5,-1
 543 533 l 1,6,-1
 259 288 l 1,7,-1
 458 0 l 1,8,-1
 339 0 l 1,9,-1
 182 214 l 1,10,-1
 148 182 l 1,11,-1
 118 0 l 1,12,-1
 20 0 l 1,0,-1
EndSplineSet
EndChar

StartChar: Lslash
Encoding: 321 321 259
Width: 536
GlyphClass: 2
Flags: W
LayerCount: 2
Fore
SplineSet
206 340 m 1,0,-1
 165 92 l 1,1,-1
 496 92 l 1,2,-1
 481 0 l 1,3,-1
 44 0 l 1,4,-1
 89 272 l 1,5,-1
 -9 214 l 1,6,-1
 -45 293 l 1,7,-1
 107 382 l 1,8,-1
 165 735 l 1,9,-1
 271 735 l 1,10,-1
 224 449 l 1,11,-1
 335 515 l 1,12,-1
 371 437 l 1,13,-1
 206 340 l 1,0,-1
EndSplineSet
EndChar

StartChar: lslash
Encoding: 322 322 260
Width: 252
GlyphClass: 2
Flags: W
LayerCount: 2
Fore
SplineSet
188 356 m 1,0,-1
 129 0 l 1,1,-1
 30 0 l 1,2,-1
 79 293 l 1,3,-1
 -13 238 l 1,4,-1
 -47 318 l 1,5,-1
 97 403 l 1,6,-1
 156 761 l 1,7,-1
 255 761 l 1,8,-1
 206 466 l 1,9,-1
 298 519 l 1,10,-1
 330 440 l 1,11,-1
 188 356 l 1,0,-1
EndSplineSet
EndChar

StartChar: Eng
Encoding: 330 330 268
Width: 688
GlyphClass: 2
Flags: W
LayerCount: 2
Fore
SplineSet
34 0 m 1,0,-1
 156 735 l 1,1,-1
 269 735 l 1,2,-1
 446 274 l 1,3,-1
 489 159 l 1,4,-1
 494 159 l 1,5,6
 497 254 497 254 516 365 c 2,7,-1
 577 735 l 1,8,-1
 683 735 l 1,9,-1
 563 13 l 2,10,11
 545 -98 545 -98 487.5 -160 c 128,-1,12
 430 -222 430 -222 339 -222 c 0,13,14
 310 -222 310 -222 240 -213 c 1,15,-1
 255 -122 l 1,16,17
 301 -130 301 -130 334 -130 c 0,18,19
 385 -130 385 -130 410 -100 c 128,-1,20
 435 -70 435 -70 448 -1 c 1,21,-1
 268 461 l 1,22,-1
 227 574 l 1,23,-1
 222 574 l 1,24,25
 217 466 217 466 203 381 c 2,26,-1
 140 0 l 1,27,-1
 34 0 l 1,0,-1
EndSplineSet
EndChar

StartChar: eng
Encoding: 331 331 269
Width: 524
GlyphClass: 2
Flags: W
LayerCount: 2
Fore
SplineSet
16 0 m 1,0,-1
 104 533 l 1,1,-1
 198 533 l 1,2,-1
 186 459 l 1,3,-1
 187 459 l 1,4,5
 209 495 209 495 252.5 523 c 128,-1,6
 296 551 296 551 349 551 c 0,7,8
 423 551 423 551 459.5 502 c 128,-1,9
 496 453 496 453 478 343 c 2,10,-1
 423 9 l 2,11,12
 403 -114 403 -114 343.5 -170.5 c 128,-1,13
 284 -227 284 -227 211 -227 c 0,14,15
 193 -227 193 -227 177.5 -225 c 128,-1,16
 162 -223 162 -223 146 -220.5 c 128,-1,17
 130 -218 130 -218 125 -217 c 1,18,-1
 140 -127 l 1,19,20
 190 -135 190 -135 211 -135 c 0,21,22
 259 -135 259 -135 285.5 -103 c 128,-1,23
 312 -71 312 -71 323 -5 c 2,24,-1
 378 329 l 2,25,26
 400 462 400 462 314 462 c 0,27,28
 263 462 263 462 219.5 418.5 c 128,-1,29
 176 375 176 375 165 312 c 2,30,-1
 114 0 l 1,31,-1
 16 0 l 1,0,-1
EndSplineSet
EndChar

StartChar: OE
Encoding: 338 338 276
Width: 942
GlyphClass: 2
Flags: W
LayerCount: 2
Fore
SplineSet
53 367 m 0,0,1
 82 541 82 541 186 646.5 c 128,-1,2
 290 752 290 752 429 752 c 0,3,4
 489 752 489 752 527 735 c 1,5,-1
 978 735 l 1,6,-1
 963 642 l 1,7,-1
 614 642 l 1,8,-1
 578 426 l 1,9,-1
 892 426 l 1,10,-1
 877 334 l 1,11,-1
 563 334 l 1,12,-1
 523 92 l 1,13,-1
 882 92 l 1,14,-1
 866 0 l 1,15,-1
 408 0 l 1,16,17
 358 -17 358 -17 302 -17 c 0,18,19
 162 -17 162 -17 93 87.5 c 128,-1,20
 24 192 24 192 53 367 c 0,0,1
163 367 m 256,21,22
 141 234 141 234 183.5 155 c 128,-1,23
 226 76 226 76 317 76 c 0,24,25
 372 76 372 76 419 107 c 1,26,-1
 505 626 l 1,27,28
 471 659 471 659 414 659 c 0,29,30
 321 659 321 659 253 579.5 c 128,-1,31
 185 500 185 500 163 367 c 256,21,22
EndSplineSet
EndChar

StartChar: uni0163
Encoding: 355 355 293
Width: 342
GlyphClass: 2
Flags: W
LayerCount: 2
Fore
SplineSet
43 446 m 1,0,-1
 58 533 l 1,1,-1
 139 533 l 1,2,-1
 166 695 l 1,3,-1
 263 695 l 1,4,-1
 236 533 l 1,5,-1
 357 533 l 1,6,-1
 343 446 l 1,7,-1
 222 446 l 1,8,-1
 175 166 l 2,9,10
 168 125 168 125 181.5 107 c 128,-1,11
 195 89 195 89 227 89 c 2,12,-1
 284 89 l 1,13,-1
 270 0 l 1,14,-1
 211 0 l 1,15,-1
 196 -34 l 1,16,17
 233 -41 233 -41 251 -64 c 128,-1,18
 269 -87 269 -87 263 -120 c 0,19,20
 256 -161 256 -161 219 -190 c 128,-1,21
 182 -219 182 -219 112 -219 c 0,22,23
 70 -219 70 -219 32 -208 c 1,24,-1
 42 -143 l 1,25,26
 81 -152 81 -152 120 -152 c 0,27,28
 179 -152 179 -152 186 -114 c 0,29,30
 192 -77 192 -77 95 -71 c 1,31,-1
 128 14 l 1,32,33
 59 47 59 47 77 159 c 2,34,-1
 125 446 l 1,35,-1
 43 446 l 1,0,-1
EndSplineSet
Substitution2: "'locl' Localized Forms in Latin lookup 3 subtable" uni021B
Substitution2: "'locl' Localized Forms in Latin lookup 2 subtable" uni021B
Substitution2: "'aalt' Access All Alternates lookup 0 subtable" uni021B
EndChar

StartChar: Tbar
Encoding: 358 358 296
Width: 546
GlyphClass: 2
Flags: W
LayerCount: 2
Fore
SplineSet
68 642 m 1,0,-1
 84 735 l 1,1,-1
 614 735 l 1,2,-1
 599 642 l 1,3,-1
 387 642 l 1,4,-1
 349 416 l 1,5,-1
 476 416 l 1,6,-1
 461 329 l 1,7,-1
 335 329 l 1,8,-1
 281 0 l 1,9,-1
 175 0 l 1,10,-1
 229 329 l 1,11,-1
 95 329 l 1,12,-1
 109 416 l 1,13,-1
 244 416 l 1,14,-1
 281 642 l 1,15,-1
 68 642 l 1,0,-1
EndSplineSet
EndChar

StartChar: tbar
Encoding: 359 359 297
Width: 343
GlyphClass: 2
Flags: W
LayerCount: 2
Fore
SplineSet
44 446 m 1,0,-1
 58 533 l 1,1,-1
 140 533 l 1,2,-1
 167 695 l 1,3,-1
 263 695 l 1,4,-1
 237 533 l 1,5,-1
 358 533 l 1,6,-1
 344 446 l 1,7,-1
 222 446 l 1,8,-1
 208 358 l 1,9,-1
 332 358 l 1,10,-1
 318 272 l 1,11,-1
 193 272 l 1,12,-1
 176 166 l 2,13,14
 169 125 169 125 182 107 c 128,-1,15
 195 89 195 89 228 89 c 2,16,-1
 286 89 l 1,17,-1
 271 0 l 1,18,-1
 201 0 l 2,19,20
 52 0 52 0 78 159 c 2,21,-1
 97 272 l 1,22,-1
 4 272 l 1,23,-1
 19 358 l 1,24,-1
 111 358 l 1,25,-1
 125 446 l 1,26,-1
 44 446 l 1,0,-1
EndSplineSet
EndChar

StartChar: longs
Encoding: 383 383 321
Width: 289
GlyphClass: 2
Flags: W
LayerCount: 2
Fore
SplineSet
25 0 m 1,0,-1
 124 599 l 2,1,2
 137 680 137 680 182 720.5 c 128,-1,3
 227 761 227 761 296 761 c 2,4,-1
 367 761 l 1,5,-1
 353 672 l 1,6,-1
 300 672 l 2,7,8
 233 672 233 672 220 587 c 2,9,-1
 123 0 l 1,10,-1
 25 0 l 1,0,-1
EndSplineSet
EndChar

StartChar: uni0180
Encoding: 384 384 322
Width: 551
GlyphClass: 2
Flags: W
LayerCount: 2
Fore
SplineSet
164 265 m 0,0,1
 149 177 149 177 176 124.5 c 128,-1,2
 203 72 203 72 256 72 c 0,3,4
 313 72 313 72 356.5 123 c 128,-1,5
 400 174 400 174 415 265 c 0,6,7
 429 352 429 352 404 404.5 c 128,-1,8
 379 457 379 457 321 457 c 0,9,10
 267 457 267 457 222.5 404.5 c 128,-1,11
 178 352 178 352 164 265 c 0,0,1
60 603 m 1,12,-1
 73 683 l 1,13,-1
 137 683 l 1,14,-1
 150 761 l 1,15,-1
 247 761 l 1,16,-1
 234 683 l 1,17,-1
 421 683 l 1,18,-1
 408 603 l 1,19,-1
 221 603 l 1,20,-1
 196 457 l 1,21,22
 219 491 219 491 259.5 518.5 c 128,-1,23
 300 546 300 546 348 546 c 0,24,25
 443 546 443 546 490.5 470.5 c 128,-1,26
 538 395 538 395 516 265 c 0,27,28
 504 192 504 192 474.5 135.5 c 128,-1,29
 445 79 445 79 407.5 47 c 128,-1,30
 370 15 370 15 331.5 -1 c 128,-1,31
 293 -17 293 -17 256 -17 c 0,32,33
 207 -17 207 -17 174 11 c 128,-1,34
 141 39 141 39 132 77 c 1,35,-1
 119 0 l 1,36,-1
 24 0 l 1,37,-1
 124 603 l 1,38,-1
 60 603 l 1,12,-1
EndSplineSet
EndChar

StartChar: uni0182
Encoding: 386 386 324
Width: 633
GlyphClass: 2
Flags: W
LayerCount: 2
Fore
SplineSet
155 92 m 1,0,-1
 330 92 l 2,1,2
 385 92 385 92 426.5 122 c 128,-1,3
 468 152 468 152 478 211 c 0,4,5
 487 263 487 263 457.5 299 c 128,-1,6
 428 335 428 335 367 335 c 2,7,-1
 195 335 l 1,8,-1
 155 92 l 1,0,-1
34 0 m 1,9,-1
 156 735 l 1,10,-1
 591 735 l 1,11,-1
 575 642 l 1,12,-1
 246 642 l 1,13,-1
 210 426 l 1,14,-1
 391 426 l 2,15,16
 501 426 501 426 552 365.5 c 128,-1,17
 603 305 603 305 587 211 c 0,18,19
 572 120 572 120 502.5 60 c 128,-1,20
 433 0 433 0 330 0 c 2,21,-1
 34 0 l 1,9,-1
EndSplineSet
EndChar

StartChar: uni0183
Encoding: 387 387 325
Width: 549
GlyphClass: 2
Flags: W
LayerCount: 2
Fore
SplineSet
161 267 m 0,0,1
 146 176 146 176 172 124 c 128,-1,2
 198 72 198 72 253 72 c 0,3,4
 310 72 310 72 354 123 c 128,-1,5
 398 174 398 174 413 267 c 0,6,7
 428 357 428 357 402 409.5 c 128,-1,8
 376 462 376 462 319 462 c 0,9,10
 264 462 264 462 220 408.5 c 128,-1,11
 176 355 176 355 161 267 c 0,0,1
21 0 m 1,12,-1
 146 756 l 1,13,-1
 503 756 l 1,14,-1
 489 667 l 1,15,-1
 228 667 l 1,16,-1
 195 463 l 1,17,18
 210 491 210 491 252.5 521 c 128,-1,19
 295 551 295 551 347 551 c 0,20,21
 442 551 442 551 488.5 474.5 c 128,-1,22
 535 398 535 398 514 267 c 0,23,24
 502 193 502 193 473 136 c 128,-1,25
 444 79 444 79 407 47 c 128,-1,26
 370 15 370 15 331 -1 c 128,-1,27
 292 -17 292 -17 254 -17 c 0,28,29
 206 -17 206 -17 172.5 11.5 c 128,-1,30
 139 40 139 40 129 77 c 1,31,-1
 116 0 l 1,32,-1
 21 0 l 1,12,-1
EndSplineSet
EndChar

StartChar: uni0184
Encoding: 388 388 326
Width: 644
GlyphClass: 2
Flags: W
LayerCount: 2
Fore
SplineSet
67 667 m 1,0,-1
 207 735 l 1,1,-1
 267 735 l 1,2,-1
 216 424 l 1,3,-1
 399 424 l 2,4,5
 509 424 509 424 561 364 c 128,-1,6
 613 304 613 304 597 211 c 0,7,8
 583 124 583 124 514 62 c 128,-1,9
 445 0 445 0 344 0 c 2,10,-1
 40 0 l 1,11,-1
 139 601 l 1,12,-1
 67 667 l 1,0,-1
161 92 m 1,13,-1
 339 92 l 2,14,15
 393 92 393 92 435.5 122.5 c 128,-1,16
 478 153 478 153 487 211 c 0,17,18
 495 262 495 262 467 297.5 c 128,-1,19
 439 333 439 333 377 333 c 2,20,-1
 201 333 l 1,21,-1
 161 92 l 1,13,-1
EndSplineSet
EndChar

StartChar: uni0185
Encoding: 389 389 327
Width: 552
GlyphClass: 2
Flags: W
LayerCount: 2
Fore
SplineSet
63 690 m 1,0,-1
 194 761 l 1,1,-1
 247 761 l 1,2,-1
 198 463 l 1,3,4
 222 502 222 502 265 526.5 c 128,-1,5
 308 551 308 551 350 551 c 0,6,7
 445 551 445 551 492 474.5 c 128,-1,8
 539 398 539 398 517 267 c 0,9,10
 505 194 505 194 476.5 137.5 c 128,-1,11
 448 81 448 81 411.5 48.5 c 128,-1,12
 375 16 375 16 336 -0.5 c 128,-1,13
 297 -17 297 -17 257 -17 c 0,14,15
 209 -17 209 -17 176.5 10.5 c 128,-1,16
 144 38 144 38 132 77 c 1,17,-1
 119 0 l 1,18,-1
 24 0 l 1,19,-1
 128 624 l 1,20,-1
 63 690 l 1,0,-1
165 267 m 0,21,22
 150 176 150 176 176.5 124 c 128,-1,23
 203 72 203 72 257 72 c 0,24,25
 314 72 314 72 357.5 123.5 c 128,-1,26
 401 175 401 175 416 267 c 0,27,28
 431 355 431 355 406 408.5 c 128,-1,29
 381 462 381 462 322 462 c 0,30,31
 267 462 267 462 223.5 409 c 128,-1,32
 180 356 180 356 165 267 c 0,21,22
EndSplineSet
EndChar

StartChar: uni0186
Encoding: 390 390 328
Width: 640
GlyphClass: 2
Flags: W
LayerCount: 2
Fore
SplineSet
2 169 m 1,0,-1
 102 200 l 1,1,2
 115 148 115 148 154 112 c 128,-1,3
 193 76 193 76 253 76 c 0,4,5
 345 76 345 76 414.5 155 c 128,-1,6
 484 234 484 234 506 368 c 0,7,8
 528 500 528 500 486 579.5 c 128,-1,9
 444 659 444 659 350 659 c 0,10,11
 254 659 254 659 174 549 c 1,12,-1
 89 580 l 1,13,14
 131 652 131 652 202.5 702 c 128,-1,15
 274 752 274 752 364 752 c 0,16,17
 504 752 504 752 574.5 649 c 128,-1,18
 645 546 645 546 616 368 c 0,19,20
 586 188 586 188 480 85.5 c 128,-1,21
 374 -17 374 -17 237 -17 c 0,22,23
 183 -17 183 -17 140 0 c 128,-1,24
 97 17 97 17 69.5 46.5 c 128,-1,25
 42 76 42 76 26 106 c 128,-1,26
 10 136 10 136 2 169 c 1,0,-1
EndSplineSet
EndChar

StartChar: uni0189
Encoding: 393 393 331
Width: 668
GlyphClass: 2
Flags: W
LayerCount: 2
Fore
SplineSet
40 0 m 1,0,-1
 94 329 l 1,1,-1
 17 329 l 1,2,-1
 31 416 l 1,3,-1
 108 416 l 1,4,-1
 161 735 l 1,5,-1
 369 735 l 2,6,7
 530 735 530 735 603 640.5 c 128,-1,8
 676 546 676 546 646 367 c 0,9,10
 633 288 633 288 603 223.5 c 128,-1,11
 573 159 573 159 525 108 c 128,-1,12
 477 57 477 57 406 28.5 c 128,-1,13
 335 0 335 0 245 0 c 2,14,-1
 40 0 l 1,0,-1
161 92 m 1,15,-1
 249 92 l 2,16,17
 490 92 490 92 535 367 c 0,18,19
 581 643 581 643 341 643 c 2,20,-1
 252 643 l 1,21,-1
 214 416 l 1,22,-1
 398 416 l 1,23,-1
 384 329 l 1,24,-1
 200 329 l 1,25,-1
 161 92 l 1,15,-1
EndSplineSet
EndChar

StartChar: uni018B
Encoding: 395 395 333
Width: 633
GlyphClass: 2
Flags: W
LayerCount: 2
Fore
SplineSet
133 211 m 0,0,1
 123 153 123 153 154.5 122.5 c 128,-1,2
 186 92 186 92 242 92 c 2,3,-1
 416 92 l 1,4,-1
 456 335 l 1,5,-1
 287 335 l 2,6,7
 225 335 225 335 183.5 299.5 c 128,-1,8
 142 264 142 264 133 211 c 0,0,1
24 211 m 0,9,10
 40 305 40 305 111 365.5 c 128,-1,11
 182 426 182 426 292 426 c 2,12,-1
 472 426 l 1,13,-1
 507 642 l 1,14,-1
 178 642 l 1,15,-1
 193 735 l 1,16,-1
 629 735 l 1,17,-1
 507 0 l 1,18,-1
 211 0 l 2,19,20
 109 0 109 0 59 60 c 128,-1,21
 9 120 9 120 24 211 c 0,9,10
EndSplineSet
EndChar

StartChar: uni018C
Encoding: 396 396 334
Width: 549
GlyphClass: 2
Flags: W
LayerCount: 2
Fore
SplineSet
131 267 m 0,0,1
 116 174 116 174 142.5 123 c 128,-1,2
 169 72 169 72 225 72 c 0,3,4
 281 72 281 72 324.5 125 c 128,-1,5
 368 178 368 178 382 267 c 0,6,7
 397 355 397 355 371 408.5 c 128,-1,8
 345 462 345 462 289 462 c 0,9,10
 232 462 232 462 189 409.5 c 128,-1,11
 146 357 146 357 131 267 c 0,0,1
31 267 m 0,12,13
 53 397 53 397 125.5 474 c 128,-1,14
 198 551 198 551 291 551 c 0,15,16
 344 551 344 551 374.5 522 c 128,-1,17
 405 493 405 493 414 463 c 1,18,-1
 449 673 l 1,19,-1
 186 673 l 1,20,-1
 200 761 l 1,21,-1
 561 761 l 1,22,-1
 435 0 l 1,23,-1
 340 0 l 1,24,-1
 353 78 l 1,25,26
 330 40 330 40 288 11.5 c 128,-1,27
 246 -17 246 -17 196 -17 c 0,28,29
 157 -17 157 -17 123.5 -1 c 128,-1,30
 90 15 90 15 64 47 c 128,-1,31
 38 79 38 79 28.5 136 c 128,-1,32
 19 193 19 193 31 267 c 0,12,13
EndSplineSet
EndChar

StartChar: uni018D
Encoding: 397 397 335
Width: 572
GlyphClass: 2
Flags: W
LayerCount: 2
Fore
SplineSet
140 320 m 0,0,1
 130 260 130 260 169 210.5 c 128,-1,2
 208 161 208 161 269 131 c 1,3,4
 339 163 339 163 387.5 212.5 c 128,-1,5
 436 262 436 262 445 318 c 0,6,7
 455 379 455 379 423 420.5 c 128,-1,8
 391 462 391 462 320 462 c 0,9,10
 250 462 250 462 200 422 c 128,-1,11
 150 382 150 382 140 320 c 0,0,1
39 316 m 0,12,13
 57 427 57 427 137 488.5 c 128,-1,14
 217 550 217 550 336 550 c 0,15,16
 452 550 452 550 508 485.5 c 128,-1,17
 564 421 564 421 547 322 c 0,18,19
 536 256 536 256 482 192 c 128,-1,20
 428 128 428 128 344 86 c 1,21,22
 431 25 431 25 417 -56 c 0,23,24
 405 -131 405 -131 341 -175 c 128,-1,25
 277 -219 277 -219 185 -219 c 0,26,27
 106 -219 106 -219 57 -185 c 128,-1,28
 8 -151 8 -151 -12 -97 c 1,29,-1
 66 -53 l 1,30,31
 83 -84 83 -84 116.5 -107.5 c 128,-1,32
 150 -131 150 -131 199 -131 c 0,33,34
 246 -131 246 -131 279 -111 c 128,-1,35
 312 -91 312 -91 317 -58 c 0,36,37
 319 -43 319 -43 312 -27.5 c 128,-1,38
 305 -12 305 -12 282.5 5 c 128,-1,39
 260 22 260 22 243.5 32 c 128,-1,40
 227 42 227 42 191 62 c 0,41,42
 14 166 14 166 39 316 c 0,12,13
EndSplineSet
EndChar

StartChar: uni018E
Encoding: 398 398 336
Width: 583
GlyphClass: 2
Flags: W
LayerCount: 2
Fore
SplineSet
-13 0 m 1,0,-1
 2 92 l 1,1,-1
 367 92 l 1,2,-1
 408 334 l 1,3,-1
 83 334 l 1,4,-1
 98 426 l 1,5,-1
 423 426 l 1,6,-1
 458 642 l 1,7,-1
 95 642 l 1,8,-1
 110 735 l 1,9,-1
 579 735 l 1,10,-1
 457 0 l 1,11,-1
 -13 0 l 1,0,-1
EndSplineSet
EndChar

StartChar: uni018F
Encoding: 399 399 337
Width: 685
GlyphClass: 2
Flags: W
LayerCount: 2
Fore
SplineSet
49 353 m 0,0,1
 53 378 53 378 61 414 c 1,2,-1
 557 414 l 1,3,4
 568 530 568 530 525.5 594.5 c 128,-1,5
 483 659 483 659 394 659 c 0,6,7
 279 659 279 659 191 552 c 1,8,-1
 107 589 l 1,9,10
 159 668 159 668 239 710 c 128,-1,11
 319 752 319 752 412 752 c 0,12,13
 563 752 563 752 626 644.5 c 128,-1,14
 689 537 689 537 660 366 c 0,15,16
 631 192 631 192 527.5 87.5 c 128,-1,17
 424 -17 424 -17 286 -17 c 0,18,19
 146 -17 146 -17 84 86.5 c 128,-1,20
 22 190 22 190 49 353 c 0,0,1
154 322 m 1,21,22
 153 318 153 318 153 312 c 128,-1,23
 153 306 153 306 152 303 c 0,24,25
 148 259 148 259 153.5 221 c 128,-1,26
 159 183 159 183 174.5 149 c 128,-1,27
 190 115 190 115 223.5 95.5 c 128,-1,28
 257 76 257 76 304 76 c 0,29,30
 382 76 382 76 450.5 140 c 128,-1,31
 519 204 519 204 542 322 c 1,32,-1
 154 322 l 1,21,22
EndSplineSet
EndChar

StartChar: uni0190
Encoding: 400 400 338
Width: 590
GlyphClass: 2
Flags: W
LayerCount: 2
Fore
SplineSet
27 206 m 0,0,1
 39 279 39 279 89 325.5 c 128,-1,2
 139 372 139 372 196 389 c 1,3,4
 154 410 154 410 129 455 c 128,-1,5
 104 500 104 500 114 559 c 0,6,7
 128 645 128 645 199.5 698.5 c 128,-1,8
 271 752 271 752 376 752 c 0,9,10
 431 752 431 752 473.5 735.5 c 128,-1,11
 516 719 516 719 539.5 691.5 c 128,-1,12
 563 664 563 664 575.5 638 c 128,-1,13
 588 612 588 612 593 585 c 1,14,-1
 499 556 l 1,15,16
 463 663 463 663 368 663 c 0,17,18
 311 663 311 663 270 631 c 128,-1,19
 229 599 229 599 221 549 c 0,20,21
 212 493 212 493 251.5 459 c 128,-1,22
 291 425 291 425 348 425 c 0,23,24
 397 425 397 425 419 427 c 1,25,-1
 405 338 l 1,26,27
 369 341 369 341 332 341 c 0,28,29
 260 341 260 341 203 305 c 128,-1,30
 146 269 146 269 136 207 c 0,31,32
 125 141 125 141 166.5 106.5 c 128,-1,33
 208 72 208 72 274 72 c 0,34,35
 323 72 323 72 375 101.5 c 128,-1,36
 427 131 427 131 457 173 c 1,37,-1
 538 141 l 1,38,39
 495 67 495 67 420 25 c 128,-1,40
 345 -17 345 -17 255 -17 c 0,41,42
 137 -17 137 -17 73.5 43 c 128,-1,43
 10 103 10 103 27 206 c 0,0,1
EndSplineSet
EndChar

StartChar: uni0191
Encoding: 401 401 339
Width: 556
GlyphClass: 2
Flags: W
LayerCount: 2
Fore
SplineSet
-106 -130 m 1,0,1
 -76 -135 -76 -135 -57 -135 c 0,2,3
 -16 -135 -16 -135 7 -106.5 c 128,-1,4
 30 -78 30 -78 40 -17 c 2,5,-1
 165 735 l 1,6,-1
 617 735 l 1,7,-1
 601 642 l 1,8,-1
 255 642 l 1,9,-1
 217 414 l 1,10,-1
 528 414 l 1,11,-1
 513 323 l 1,12,-1
 202 323 l 1,13,-1
 146 -17 l 2,14,15
 136 -76 136 -76 115 -118.5 c 128,-1,16
 94 -161 94 -161 65.5 -183.5 c 128,-1,17
 37 -206 37 -206 8.5 -216.5 c 128,-1,18
 -20 -227 -20 -227 -51 -227 c 0,19,20
 -74 -227 -74 -227 -121 -219 c 1,21,-1
 -106 -130 l 1,0,1
EndSplineSet
EndChar

StartChar: florin
Encoding: 402 402 340
Width: 325
GlyphClass: 2
Flags: W
LayerCount: 2
Fore
SplineSet
-92 -130 m 1,0,1
 -63 -135 -63 -135 -44 -135 c 0,2,3
 34 -135 34 -135 54 -13 c 2,4,-1
 130 446 l 1,5,-1
 49 446 l 1,6,-1
 63 533 l 1,7,-1
 145 533 l 1,8,-1
 156 599 l 2,9,10
 169 680 169 680 213.5 720.5 c 128,-1,11
 258 761 258 761 327 761 c 2,12,-1
 403 761 l 1,13,-1
 388 673 l 1,14,-1
 327 673 l 2,15,16
 266 673 266 673 252 590 c 2,17,-1
 243 533 l 1,18,-1
 353 533 l 1,19,-1
 338 446 l 1,20,-1
 228 446 l 1,21,-1
 152 -14 l 2,22,23
 133 -127 133 -127 79.5 -177 c 128,-1,24
 26 -227 26 -227 -40 -227 c 0,25,26
 -62 -227 -62 -227 -107 -219 c 1,27,-1
 -92 -130 l 1,0,1
EndSplineSet
EndChar

StartChar: uni0194
Encoding: 404 404 342
Width: 613
GlyphClass: 2
Flags: W
LayerCount: 2
Fore
SplineSet
75 735 m 1,0,-1
 189 735 l 1,1,-1
 283 217 l 1,2,-1
 289 175 l 1,3,-1
 291 175 l 1,4,-1
 310 217 l 1,5,-1
 573 735 l 1,6,-1
 688 735 l 1,7,-1
 362 124 l 1,8,9
 430 15 430 15 416 -66 c 0,10,11
 405 -135 405 -135 350 -181 c 128,-1,12
 295 -227 295 -227 222 -227 c 0,13,14
 148 -227 148 -227 108 -183 c 128,-1,15
 68 -139 68 -139 80 -66 c 0,16,17
 86 -32 86 -32 109.5 8 c 128,-1,18
 133 48 133 48 151 69 c 128,-1,19
 169 90 169 90 201 124 c 1,20,-1
 75 735 l 1,0,-1
187 -62 m 0,21,22
 181 -96 181 -96 195 -118 c 128,-1,23
 209 -140 209 -140 237 -140 c 0,24,25
 265 -140 265 -140 285.5 -118 c 128,-1,26
 306 -96 306 -96 311 -62 c 0,27,28
 321 -4 321 -4 270 68 c 1,29,30
 197 0 197 0 187 -62 c 0,21,22
EndSplineSet
EndChar

StartChar: uni0195
Encoding: 405 405 343
Width: 833
GlyphClass: 2
Flags: W
LayerCount: 2
Fore
SplineSet
21 0 m 1,0,-1
 147 761 l 1,1,-1
 244 761 l 1,2,-1
 196 469 l 1,3,-1
 197 469 l 1,4,5
 224 505 224 505 265 528 c 128,-1,6
 306 551 306 551 349 551 c 0,7,8
 375 551 375 551 396 545.5 c 128,-1,9
 417 540 417 540 437.5 526 c 128,-1,10
 458 512 458 512 470 489.5 c 128,-1,11
 482 467 482 467 486.5 430 c 128,-1,12
 491 393 491 393 483 343 c 2,13,-1
 457 188 l 2,14,15
 438 72 438 72 541 72 c 0,16,17
 643 72 643 72 662 190 c 2,18,-1
 719 533 l 1,19,-1
 818 533 l 1,20,-1
 758 174 l 2,21,22
 742 79 742 79 678.5 31 c 128,-1,23
 615 -17 615 -17 527 -17 c 0,24,25
 486 -17 486 -17 454 -8 c 128,-1,26
 422 1 422 1 395.5 21 c 128,-1,27
 369 41 369 41 358 78.5 c 128,-1,28
 347 116 347 116 356 169 c 2,29,-1
 382 329 l 2,30,31
 404 462 404 462 317 462 c 0,32,33
 267 462 267 462 223.5 417 c 128,-1,34
 180 372 180 372 170 312 c 0,35,36
 170 311 170 311 169 309 c 2,37,-1
 118 0 l 1,38,-1
 21 0 l 1,0,-1
EndSplineSet
EndChar

StartChar: uni0196
Encoding: 406 406 344
Width: 339
GlyphClass: 2
Flags: W
LayerCount: 2
Fore
SplineSet
62 163 m 2,0,-1
 157 735 l 1,1,-1
 262 735 l 1,2,-1
 168 167 l 2,3,4
 160 119 160 119 172.5 97.5 c 128,-1,5
 185 76 185 76 221 76 c 0,6,7
 256 76 256 76 294 81 c 1,8,-1
 279 -9 l 1,9,10
 205 -17 205 -17 185 -17 c 0,11,12
 117 -17 117 -17 81.5 25.5 c 128,-1,13
 46 68 46 68 62 163 c 2,0,-1
EndSplineSet
EndChar

StartChar: uni0197
Encoding: 407 407 345
Width: 276
GlyphClass: 2
Flags: W
LayerCount: 2
Fore
SplineSet
23 328 m 1,0,-1
 37 413 l 1,1,-1
 107 413 l 1,2,-1
 161 735 l 1,3,-1
 267 735 l 1,4,-1
 213 413 l 1,5,-1
 284 413 l 1,6,-1
 270 328 l 1,7,-1
 199 328 l 1,8,-1
 145 0 l 1,9,-1
 39 0 l 1,10,-1
 93 328 l 1,11,-1
 23 328 l 1,0,-1
EndSplineSet
EndChar

StartChar: uni0198
Encoding: 408 408 346
Width: 630
GlyphClass: 2
Flags: W
LayerCount: 2
Fore
SplineSet
34 0 m 1,0,-1
 156 735 l 1,1,-1
 262 735 l 1,2,-1
 203 384 l 1,3,-1
 205 384 l 1,4,-1
 510 686 l 2,5,6
 578 752 578 752 667 752 c 0,7,8
 714 752 714 752 748 742 c 1,9,-1
 732 649 l 1,10,11
 698 659 698 659 656 659 c 0,12,13
 617 659 617 659 592 635 c 2,14,-1
 365 415 l 1,15,-1
 584 0 l 1,16,-1
 453 0 l 1,17,-1
 285 338 l 1,18,-1
 179 235 l 1,19,-1
 140 0 l 1,20,-1
 34 0 l 1,0,-1
EndSplineSet
EndChar

StartChar: uni0199
Encoding: 409 409 347
Width: 491
GlyphClass: 2
Flags: W
LayerCount: 2
Fore
SplineSet
22 0 m 1,0,-1
 124 615 l 2,1,2
 137 695 137 695 189.5 737.5 c 128,-1,3
 242 780 242 780 318 780 c 0,4,5
 346 780 346 780 398 777 c 1,6,-1
 382 685 l 1,7,8
 337 690 337 690 321 690 c 0,9,10
 284 690 284 690 254.5 664 c 128,-1,11
 225 638 225 638 217 595 c 2,12,-1
 169 303 l 1,13,-1
 400 533 l 1,14,-1
 526 533 l 1,15,-1
 306 318 l 1,16,-1
 453 0 l 1,17,-1
 336 0 l 1,18,-1
 231 245 l 1,19,-1
 146 163 l 1,20,-1
 119 0 l 1,21,-1
 22 0 l 1,0,-1
EndSplineSet
EndChar

StartChar: uni019A
Encoding: 410 410 348
Width: 247
GlyphClass: 2
Flags: W
LayerCount: 2
Fore
SplineSet
14 372 m 1,0,-1
 28 457 l 1,1,-1
 104 457 l 1,2,-1
 154 761 l 1,3,-1
 253 761 l 1,4,-1
 202 457 l 1,5,-1
 278 457 l 1,6,-1
 264 372 l 1,7,-1
 188 372 l 1,8,-1
 127 0 l 1,9,-1
 28 0 l 1,10,-1
 90 372 l 1,11,-1
 14 372 l 1,0,-1
EndSplineSet
EndChar

StartChar: uni019B
Encoding: 411 411 349
Width: 484
GlyphClass: 2
Flags: W
LayerCount: 2
Fore
SplineSet
-41 0 m 1,0,-1
 238 527 l 1,1,-1
 233 559 l 1,2,-1
 111 475 l 1,3,-1
 75 540 l 1,4,-1
 208 629 l 1,5,6
 191 669 191 669 139 669 c 2,7,-1
 120 669 l 1,8,-1
 135 756 l 1,9,-1
 169 756 l 2,10,11
 255 756 255 756 293 686 c 1,12,-1
 397 758 l 1,13,-1
 434 692 l 1,14,-1
 319 616 l 1,15,-1
 432 0 l 1,16,-1
 323 0 l 1,17,-1
 284 286 l 2,18,19
 273 372 273 372 269 412 c 1,20,-1
 265 412 l 1,21,22
 247 368 247 368 208 286 c 2,23,-1
 69 0 l 1,24,-1
 -41 0 l 1,0,-1
EndSplineSet
EndChar

StartChar: uni019C
Encoding: 412 412 350
Width: 928
GlyphClass: 2
Flags: W
LayerCount: 2
Fore
SplineSet
73 239 m 2,0,-1
 155 735 l 1,1,-1
 261 735 l 1,2,-1
 177 229 l 2,3,4
 152 75 152 75 243 75 c 0,5,6
 300 75 300 75 347.5 129 c 128,-1,7
 395 183 395 183 407 259 c 2,8,-1
 486 735 l 1,9,-1
 592 735 l 1,10,-1
 507 225 l 2,11,12
 494 148 494 148 514.5 112 c 128,-1,13
 535 76 535 76 578 76 c 0,14,15
 637 76 637 76 681 126.5 c 128,-1,16
 725 177 725 177 738 256 c 2,17,-1
 817 735 l 1,18,-1
 922 735 l 1,19,-1
 800 0 l 1,20,-1
 699 0 l 1,21,-1
 712 77 l 1,22,-1
 711 77 l 1,23,24
 686 37 686 37 638 10 c 128,-1,25
 590 -17 590 -17 539 -17 c 0,26,27
 421 -17 421 -17 405 93 c 1,28,29
 380 48 380 48 327.5 15.5 c 128,-1,30
 275 -17 275 -17 206 -17 c 0,31,32
 31 -17 31 -17 73 239 c 2,0,-1
EndSplineSet
EndChar

StartChar: uni019D
Encoding: 413 413 351
Width: 697
GlyphClass: 2
Flags: W
LayerCount: 2
Fore
SplineSet
164 735 m 1,0,-1
 278 735 l 1,1,-1
 455 274 l 1,2,-1
 496 159 l 1,3,-1
 502 159 l 1,4,5
 508 270 508 270 524 370 c 2,6,-1
 585 735 l 1,7,-1
 692 735 l 1,8,-1
 570 0 l 1,9,-1
 456 0 l 1,10,-1
 279 456 l 1,11,-1
 236 574 l 1,12,-1
 231 574 l 1,13,14
 227 470 227 470 209 364 c 2,15,-1
 147 -7 l 2,16,17
 128 -122 128 -122 72.5 -174 c 128,-1,18
 17 -226 17 -226 -54 -226 c 0,19,20
 -83 -226 -83 -226 -117 -219 c 1,21,-1
 -102 -130 l 1,22,23
 -82 -134 -82 -134 -59 -134 c 0,24,25
 -15 -134 -15 -134 8 -102.5 c 128,-1,26
 31 -71 31 -71 42 -5 c 2,27,-1
 164 735 l 1,0,-1
EndSplineSet
EndChar

StartChar: uni019E
Encoding: 414 414 352
Width: 535
GlyphClass: 2
Flags: W
LayerCount: 2
Fore
SplineSet
16 0 m 1,0,-1
 104 533 l 1,1,-1
 198 533 l 1,2,-1
 186 460 l 1,3,-1
 187 460 l 1,4,5
 210 497 210 497 252.5 524 c 128,-1,6
 295 551 295 551 349 551 c 0,7,8
 423 551 423 551 459.5 502 c 128,-1,9
 496 453 496 453 478 343 c 2,10,-1
 384 -223 l 1,11,-1
 287 -223 l 1,12,-1
 378 329 l 2,13,14
 400 462 400 462 314 462 c 0,15,16
 263 462 263 462 219.5 418.5 c 128,-1,17
 176 375 176 375 165 312 c 2,18,-1
 114 0 l 1,19,-1
 16 0 l 1,0,-1
EndSplineSet
EndChar

StartChar: uni019F
Encoding: 415 415 353
Width: 689
GlyphClass: 2
Flags: W
LayerCount: 2
Fore
SplineSet
53 367 m 0,0,1
 82 540 82 540 183 646 c 128,-1,2
 284 752 284 752 423 752 c 256,3,4
 562 752 562 752 628 646.5 c 128,-1,5
 694 541 694 541 665 367 c 0,6,7
 636 192 636 192 535 87.5 c 128,-1,8
 434 -17 434 -17 296 -17 c 0,9,10
 157 -17 157 -17 90.5 87.5 c 128,-1,11
 24 192 24 192 53 367 c 0,0,1
546 322 m 1,12,-1
 157 322 l 1,13,14
 147 207 147 207 187.5 141.5 c 128,-1,15
 228 76 228 76 311 76 c 0,16,17
 393 76 393 76 456 141 c 128,-1,18
 519 206 519 206 546 322 c 1,12,-1
170 407 m 1,19,-1
 560 407 l 1,20,21
 572 523 572 523 533 591 c 128,-1,22
 494 659 494 659 408 659 c 0,23,24
 323 659 323 659 260 592 c 128,-1,25
 197 525 197 525 170 407 c 1,19,-1
EndSplineSet
EndChar

StartChar: uni01A2
Encoding: 418 418 356
Width: 939
GlyphClass: 2
Flags: W
LayerCount: 2
Fore
SplineSet
52 364 m 0,0,1
 81 542 81 542 183 647 c 128,-1,2
 285 752 285 752 418 752 c 0,3,4
 459 752 459 752 553.5 732 c 128,-1,5
 648 712 648 712 711 712 c 0,6,7
 809 712 809 712 935 735 c 1,8,-1
 813 0 l 1,9,-1
 708 0 l 1,10,-1
 812 630 l 1,11,12
 763 620 763 620 696 620 c 0,13,14
 643 620 643 620 594 628 c 1,15,-1
 500 60 l 1,16,17
 407 -17 407 -17 291 -17 c 0,18,19
 157 -17 157 -17 90.5 88 c 128,-1,20
 24 193 24 193 52 364 c 0,0,1
162 364 m 0,21,22
 140 231 140 231 180.5 153.5 c 128,-1,23
 221 76 221 76 307 76 c 0,24,25
 352 76 352 76 401 102 c 1,26,-1
 491 644 l 1,27,28
 487 645 487 645 476.5 649 c 128,-1,29
 466 653 466 653 461.5 654 c 128,-1,30
 457 655 457 655 447.5 657 c 128,-1,31
 438 659 438 659 427.5 659.5 c 128,-1,32
 417 660 417 660 403 660 c 0,33,34
 319 660 319 660 252 581.5 c 128,-1,35
 185 503 185 503 162 364 c 0,21,22
EndSplineSet
EndChar

StartChar: uni01A3
Encoding: 419 419 357
Width: 728
GlyphClass: 2
Flags: W
LayerCount: 2
Fore
SplineSet
31 266 m 256,0,1
 53 400 53 400 128 475.5 c 128,-1,2
 203 551 203 551 309 551 c 0,3,4
 349 551 349 551 421 536 c 128,-1,5
 493 521 493 521 538 521 c 0,6,7
 623 521 623 521 709 538 c 1,8,-1
 620 0 l 1,9,-1
 522 0 l 1,10,-1
 595 437 l 1,11,12
 561 432 561 432 523 432 c 0,13,14
 475 432 475 432 454 436 c 1,15,-1
 392 60 l 1,16,17
 319 -17 319 -17 215 -17 c 0,18,19
 109 -17 109 -17 59 57.5 c 128,-1,20
 9 132 9 132 31 266 c 256,0,1
130 266 m 0,21,22
 115 175 115 175 142.5 123.5 c 128,-1,23
 170 72 170 72 230 72 c 0,24,25
 263 72 263 72 302 109 c 1,26,-1
 359 452 l 1,27,28
 321 462 321 462 295 462 c 0,29,30
 232 462 232 462 188.5 409 c 128,-1,31
 145 356 145 356 130 266 c 0,21,22
EndSplineSet
EndChar

StartChar: uni01A5
Encoding: 421 421 359
Width: 549
GlyphClass: 2
Flags: W
LayerCount: 2
Fore
SplineSet
161 267 m 0,0,1
 146 176 146 176 171.5 124 c 128,-1,2
 197 72 197 72 253 72 c 0,3,4
 310 72 310 72 354 124 c 128,-1,5
 398 176 398 176 413 267 c 0,6,7
 428 355 428 355 402.5 408.5 c 128,-1,8
 377 462 377 462 318 462 c 0,9,10
 264 462 264 462 220 408.5 c 128,-1,11
 176 355 176 355 161 267 c 0,0,1
-16 -223 m 1,12,-1
 121 600 l 2,13,14
 135 684 135 684 188.5 725.5 c 128,-1,15
 242 767 242 767 312 767 c 0,16,17
 326 767 326 767 391 762 c 1,18,-1
 376 672 l 1,19,20
 338 675 338 675 314 675 c 0,21,22
 274 675 274 675 247 648.5 c 128,-1,23
 220 622 220 622 213 582 c 2,24,-1
 193 458 l 1,25,26
 213 493 213 493 255 522 c 128,-1,27
 297 551 297 551 347 551 c 0,28,29
 439 551 439 551 487 474 c 128,-1,30
 535 397 535 397 514 267 c 0,31,32
 502 193 502 193 472.5 136 c 128,-1,33
 443 79 443 79 406 47 c 128,-1,34
 369 15 369 15 329.5 -1 c 128,-1,35
 290 -17 290 -17 253 -17 c 0,36,37
 200 -17 200 -17 170 10 c 128,-1,38
 140 37 140 37 131 72 c 1,39,-1
 82 -223 l 1,40,-1
 -16 -223 l 1,12,-1
EndSplineSet
EndChar

StartChar: uni01A6
Encoding: 422 422 360
Width: 621
GlyphClass: 2
Flags: W
LayerCount: 2
Fore
SplineSet
183 312 m 1,0,-1
 332 312 l 2,1,2
 461 312 461 312 482 433 c 0,3,4
 500 544 500 544 372 544 c 2,5,-1
 222 544 l 1,6,-1
 183 312 l 1,0,-1
25 0 m 1,7,-1
 147 735 l 1,8,-1
 253 735 l 1,9,-1
 237 636 l 1,10,-1
 408 636 l 2,11,12
 517 636 517 636 562 580.5 c 128,-1,13
 607 525 607 525 593 442 c 0,14,15
 586 398 586 398 567 364.5 c 128,-1,16
 548 331 548 331 520.5 310 c 128,-1,17
 493 289 493 289 477.5 280 c 128,-1,18
 462 271 462 271 438 261 c 1,19,20
 471 237 471 237 481.5 209.5 c 128,-1,21
 492 182 492 182 495 131 c 0,22,23
 507 -1 507 -1 542 -83 c 1,24,-1
 424 -83 l 1,25,26
 414 -59 414 -59 406.5 -27 c 128,-1,27
 399 5 399 5 396 21.5 c 128,-1,28
 393 38 393 38 388 78.5 c 128,-1,29
 383 119 383 119 382 126 c 0,30,31
 377 176 377 176 360.5 198.5 c 128,-1,32
 344 221 344 221 302 221 c 2,33,-1
 168 221 l 1,34,-1
 132 0 l 1,35,-1
 25 0 l 1,7,-1
EndSplineSet
EndChar

StartChar: uni01A7
Encoding: 423 423 361
Width: 587
GlyphClass: 2
Flags: W
LayerCount: 2
Fore
SplineSet
16 198 m 0,0,1
 23 243 23 243 45.5 279 c 128,-1,2
 68 315 68 315 104 339 c 128,-1,3
 140 363 140 363 174 378 c 128,-1,4
 208 393 208 393 255 409 c 0,5,6
 366 444 366 444 397 461 c 0,7,8
 466 496 466 496 475 553 c 0,9,10
 483 602 483 602 450.5 630.5 c 128,-1,11
 418 659 418 659 355 659 c 0,12,13
 257 659 257 659 178 571 c 1,14,-1
 94 603 l 1,15,16
 137 667 137 667 208.5 709.5 c 128,-1,17
 280 752 280 752 369 752 c 0,18,19
 480 752 480 752 540 697.5 c 128,-1,20
 600 643 600 643 585 553 c 0,21,22
 579 514 579 514 558 480.5 c 128,-1,23
 537 447 537 447 518 428.5 c 128,-1,24
 499 410 499 410 456 389 c 128,-1,25
 413 368 413 368 394.5 361.5 c 128,-1,26
 376 355 376 355 323 338 c 0,27,28
 315 335 315 335 310 333 c 0,29,30
 270 320 270 320 244.5 309.5 c 128,-1,31
 219 299 219 299 190 282.5 c 128,-1,32
 161 266 161 266 145.5 243.5 c 128,-1,33
 130 221 130 221 126 193 c 0,34,35
 117 140 117 140 152 107.5 c 128,-1,36
 187 75 187 75 250 75 c 0,37,38
 306 75 306 75 362 105.5 c 128,-1,39
 418 136 418 136 452 182 c 1,40,-1
 540 149 l 1,41,42
 492 74 492 74 412 28.5 c 128,-1,43
 332 -17 332 -17 238 -17 c 0,44,45
 124 -17 124 -17 61.5 39.5 c 128,-1,46
 -1 96 -1 96 16 198 c 0,0,1
EndSplineSet
EndChar

StartChar: uni01A8
Encoding: 424 424 362
Width: 461
GlyphClass: 2
Flags: W
LayerCount: 2
Fore
SplineSet
5 141 m 0,0,1
 10 174 10 174 28.5 200.5 c 128,-1,2
 47 227 47 227 76 245.5 c 128,-1,3
 105 264 105 264 130.5 275 c 128,-1,4
 156 286 156 286 192 297 c 0,5,6
 221 306 221 306 233 310 c 128,-1,7
 245 314 245 314 268.5 323.5 c 128,-1,8
 292 333 292 333 303 341.5 c 128,-1,9
 314 350 314 350 324 363.5 c 128,-1,10
 334 377 334 377 337 393 c 0,11,12
 342 426 342 426 320.5 444 c 128,-1,13
 299 462 299 462 255 462 c 0,14,15
 179 462 179 462 116 386 c 1,16,-1
 57 429 l 1,17,18
 92 481 92 481 150 516 c 128,-1,19
 208 551 208 551 273 551 c 0,20,21
 355 551 355 551 402 508.5 c 128,-1,22
 449 466 449 466 437 393 c 0,23,24
 427 331 427 331 379.5 296.5 c 128,-1,25
 332 262 332 262 260 238 c 0,26,27
 251 236 251 236 230 229 c 128,-1,28
 209 222 209 222 199.5 219 c 128,-1,29
 190 216 190 216 173 208.5 c 128,-1,30
 156 201 156 201 147.5 195.5 c 128,-1,31
 139 190 139 190 128 181.5 c 128,-1,32
 117 173 117 173 111.5 163 c 128,-1,33
 106 153 106 153 104 141 c 0,34,35
 99 109 99 109 122 90 c 128,-1,36
 145 71 145 71 189 71 c 0,37,38
 276 71 276 71 343 153 c 1,39,-1
 408 110 l 1,40,41
 368 53 368 53 307.5 18 c 128,-1,42
 247 -17 247 -17 175 -17 c 0,43,44
 80 -17 80 -17 37 29 c 128,-1,45
 -6 75 -6 75 5 141 c 0,0,1
EndSplineSet
EndChar

StartChar: uni01A9
Encoding: 425 425 363
Width: 596
GlyphClass: 2
Flags: W
LayerCount: 2
Fore
SplineSet
25 0 m 1,0,-1
 37 71 l 1,1,-1
 343 369 l 1,2,-1
 135 664 l 1,3,-1
 147 735 l 1,4,-1
 617 735 l 1,5,-1
 601 641 l 1,6,-1
 279 641 l 1,7,-1
 463 369 l 1,8,-1
 188 92 l 1,9,-1
 516 92 l 1,10,-1
 501 0 l 1,11,-1
 25 0 l 1,0,-1
EndSplineSet
EndChar

StartChar: uni01AA
Encoding: 426 426 364
Width: 418
GlyphClass: 2
Flags: W
LayerCount: 2
Fore
SplineSet
96 602 m 0,0,1
 91 570 91 570 107 553 c 128,-1,2
 123 536 123 536 149 536 c 0,3,4
 194 536 194 536 226 563 c 1,5,6
 233 608 233 608 221 638 c 128,-1,7
 209 668 209 668 173 668 c 0,8,9
 145 668 145 668 123 649 c 128,-1,10
 101 630 101 630 96 602 c 0,0,1
1 597 m 0,11,12
 13 668 13 668 65 710 c 128,-1,13
 117 752 117 752 187 752 c 0,14,15
 268 752 268 752 302 700 c 128,-1,16
 336 648 336 648 321 555 c 2,17,-1
 221 -49 l 2,18,19
 207 -135 207 -135 276 -135 c 0,20,21
 300 -135 300 -135 339 -129 c 1,22,-1
 324 -219 l 1,23,24
 258 -227 258 -227 241 -227 c 0,25,26
 174 -227 174 -227 140 -186 c 128,-1,27
 106 -145 106 -145 121 -56 c 2,28,-1
 209 475 l 1,29,30
 180 451 180 451 120 451 c 0,31,32
 58 451 58 451 24 492 c 128,-1,33
 -10 533 -10 533 1 597 c 0,11,12
EndSplineSet
EndChar

StartChar: uni01AB
Encoding: 427 427 365
Width: 342
GlyphClass: 2
Flags: W
LayerCount: 2
Fore
SplineSet
43 446 m 1,0,-1
 58 533 l 1,1,-1
 139 533 l 1,2,-1
 166 695 l 1,3,-1
 263 695 l 1,4,-1
 236 533 l 1,5,-1
 357 533 l 1,6,-1
 342 446 l 1,7,-1
 222 446 l 1,8,-1
 175 166 l 2,9,10
 168 125 168 125 181.5 107 c 128,-1,11
 195 89 195 89 227 89 c 0,12,13
 270 89 270 89 299 94 c 1,14,-1
 283 -4 l 2,15,16
 265 -114 265 -114 213.5 -170.5 c 128,-1,17
 162 -227 162 -227 86 -227 c 0,18,19
 52 -227 52 -227 22 -220 c 1,20,-1
 37 -129 l 1,21,22
 67 -135 67 -135 89 -135 c 0,23,24
 166 -135 166 -135 185 -20 c 2,25,-1
 189 2 l 1,26,27
 165 4 165 4 140 10 c 0,28,29
 57 37 57 37 77 159 c 2,30,-1
 125 446 l 1,31,-1
 43 446 l 1,0,-1
EndSplineSet
EndChar

StartChar: uni01AC
Encoding: 428 428 366
Width: 595
GlyphClass: 2
Flags: W
LayerCount: 2
Fore
SplineSet
22 579 m 0,0,1
 35 659 35 659 93.5 697 c 128,-1,2
 152 735 152 735 238 735 c 2,3,-1
 662 735 l 1,4,-1
 646 642 l 1,5,-1
 435 642 l 1,6,-1
 328 0 l 1,7,-1
 223 0 l 1,8,-1
 329 642 l 1,9,-1
 224 642 l 2,10,11
 125 642 125 642 113 571 c 0,12,13
 109 549 109 549 111 528 c 1,14,-1
 18 528 l 1,15,16
 17 549 17 549 22 579 c 0,0,1
EndSplineSet
EndChar

StartChar: uni01AD
Encoding: 429 429 367
Width: 344
GlyphClass: 2
Flags: W
LayerCount: 2
Fore
SplineSet
43 446 m 1,0,-1
 58 533 l 1,1,-1
 139 533 l 1,2,-1
 150 598 l 2,3,4
 163 678 163 678 216 721 c 128,-1,5
 269 764 269 764 343 764 c 0,6,7
 358 764 358 764 423 760 c 1,8,-1
 408 669 l 1,9,10
 373 673 373 673 346 673 c 0,11,12
 306 673 306 673 278.5 649 c 128,-1,13
 251 625 251 625 245 585 c 2,14,-1
 236 533 l 1,15,-1
 358 533 l 1,16,-1
 343 446 l 1,17,-1
 222 446 l 1,18,-1
 175 166 l 2,19,20
 168 125 168 125 181.5 107 c 128,-1,21
 195 89 195 89 227 89 c 2,22,-1
 285 89 l 1,23,-1
 270 0 l 1,24,-1
 200 0 l 2,25,26
 51 0 51 0 77 159 c 2,27,-1
 125 446 l 1,28,-1
 43 446 l 1,0,-1
EndSplineSet
EndChar

StartChar: uni01AE
Encoding: 430 430 368
Width: 546
GlyphClass: 2
Flags: W
LayerCount: 2
Fore
SplineSet
69 642 m 1,0,-1
 85 735 l 1,1,-1
 614 735 l 1,2,-1
 598 642 l 1,3,-1
 387 642 l 1,4,-1
 276 -27 l 2,5,6
 267 -84 267 -84 280.5 -109.5 c 128,-1,7
 294 -135 294 -135 334 -135 c 0,8,9
 354 -135 354 -135 384 -130 c 1,10,-1
 370 -219 l 1,11,12
 324 -227 324 -227 299 -227 c 0,13,14
 267 -227 267 -227 242.5 -218 c 128,-1,15
 218 -209 218 -209 196.5 -187.5 c 128,-1,16
 175 -166 175 -166 168 -125.5 c 128,-1,17
 161 -85 161 -85 170 -27 c 2,18,-1
 281 642 l 1,19,-1
 69 642 l 1,0,-1
EndSplineSet
EndChar

StartChar: uni01B1
Encoding: 433 433 371
Width: 718
GlyphClass: 2
Flags: W
LayerCount: 2
Fore
SplineSet
43 306 m 0,0,1
 61 412 61 412 125.5 485.5 c 128,-1,2
 190 559 190 559 289 595 c 1,3,-1
 296 642 l 1,4,-1
 109 642 l 1,5,-1
 125 735 l 1,6,-1
 392 735 l 1,7,-1
 359 535 l 1,8,9
 272 512 272 512 219.5 449.5 c 128,-1,10
 167 387 167 387 154 306 c 0,11,12
 138 209 138 209 184 143.5 c 128,-1,13
 230 78 230 78 326 78 c 0,14,15
 419 78 419 78 487.5 143 c 128,-1,16
 556 208 556 208 572 306 c 0,17,18
 585 385 585 385 554 448 c 128,-1,19
 523 511 523 511 442 535 c 1,20,-1
 475 735 l 1,21,-1
 743 735 l 1,22,-1
 728 642 l 1,23,-1
 540 642 l 1,24,-1
 533 595 l 1,25,26
 619 561 619 561 659.5 486.5 c 128,-1,27
 700 412 700 412 683 306 c 0,28,29
 660 166 660 166 559.5 74.5 c 128,-1,30
 459 -17 459 -17 310 -17 c 0,31,32
 162 -17 162 -17 91 74.5 c 128,-1,33
 20 166 20 166 43 306 c 0,0,1
EndSplineSet
EndChar

StartChar: uni01B2
Encoding: 434 434 372
Width: 693
GlyphClass: 2
Flags: W
LayerCount: 2
Fore
SplineSet
74 254 m 2,0,-1
 154 735 l 1,1,-1
 261 735 l 1,2,-1
 183 264 l 2,3,4
 166 159 166 159 194 117.5 c 128,-1,5
 222 76 222 76 292 76 c 0,6,7
 380 76 380 76 460.5 172 c 128,-1,8
 541 268 541 268 566 416 c 0,9,10
 586 535 586 535 565 597 c 128,-1,11
 544 659 544 659 490 659 c 0,12,13
 455 659 455 659 415 648 c 1,14,-1
 431 743 l 1,15,16
 484 752 484 752 520 752 c 0,17,18
 620 752 620 752 661.5 667 c 128,-1,19
 703 582 703 582 676 418 c 0,20,21
 657 301 657 301 602 203 c 128,-1,22
 547 105 547 105 461 44 c 128,-1,23
 375 -17 375 -17 276 -17 c 0,24,25
 150 -17 150 -17 100.5 49 c 128,-1,26
 51 115 51 115 74 254 c 2,0,-1
EndSplineSet
EndChar

StartChar: uni01B3
Encoding: 435 435 373
Width: 606
GlyphClass: 2
Flags: W
LayerCount: 2
Fore
SplineSet
72 735 m 1,0,-1
 194 735 l 1,1,-1
 277 502 l 2,2,3
 298 446 298 446 317 387 c 1,4,-1
 321 387 l 1,5,6
 343 421 343 421 401 503 c 2,7,-1
 503 654 l 2,8,9
 570 752 570 752 656 752 c 0,10,11
 689 752 689 752 715 748 c 1,12,-1
 700 656 l 1,13,14
 682 660 682 660 653 660 c 256,15,16
 625 660 625 660 579 597 c 2,17,-1
 358 300 l 1,18,-1
 308 0 l 1,19,-1
 202 0 l 1,20,-1
 252 300 l 1,21,-1
 72 735 l 1,0,-1
EndSplineSet
EndChar

StartChar: uni01B4
Encoding: 436 436 374
Width: 486
GlyphClass: 2
Flags: W
LayerCount: 2
Fore
SplineSet
48 533 m 1,0,-1
 158 533 l 1,1,-1
 202 247 l 2,2,3
 212 175 212 175 218 120 c 1,4,-1
 221 120 l 1,5,6
 233 149 233 149 279 247 c 2,7,-1
 379 462 l 2,8,9
 418 546 418 546 516 546 c 0,10,11
 537 546 537 546 576 539 c 1,12,-1
 560 446 l 1,13,14
 533 454 533 454 519 454 c 0,15,16
 479 454 479 454 460 416 c 2,17,-1
 212 -67 l 2,18,19
 169 -151 169 -151 121.5 -187 c 128,-1,20
 74 -223 74 -223 12 -223 c 2,21,-1
 -24 -223 l 1,22,-1
 -10 -135 l 1,23,-1
 9 -135 l 2,24,25
 48 -135 48 -135 77.5 -113 c 128,-1,26
 107 -91 107 -91 132 -36 c 2,27,-1
 152 7 l 1,28,-1
 48 533 l 1,0,-1
EndSplineSet
EndChar

StartChar: uni01B5
Encoding: 437 437 375
Width: 587
GlyphClass: 2
Flags: W
LayerCount: 2
Fore
SplineSet
96 321 m 1,0,-1
 110 406 l 1,1,-1
 276 406 l 1,2,-1
 476 642 l 1,3,-1
 122 642 l 1,4,-1
 138 735 l 1,5,-1
 623 735 l 1,6,-1
 610 655 l 1,7,-1
 399 406 l 1,8,-1
 507 406 l 1,9,-1
 493 321 l 1,10,-1
 324 321 l 1,11,-1
 131 92 l 1,12,-1
 526 92 l 1,13,-1
 511 0 l 1,14,-1
 -14 0 l 1,15,-1
 -1 79 l 1,16,-1
 203 321 l 1,17,-1
 96 321 l 1,0,-1
EndSplineSet
EndChar

StartChar: uni01B6
Encoding: 438 438 376
Width: 457
GlyphClass: 2
Flags: W
LayerCount: 2
Fore
SplineSet
-23 0 m 1,0,-1
 -12 69 l 1,1,-1
 131 229 l 1,2,-1
 51 229 l 1,3,-1
 65 314 l 1,4,-1
 207 314 l 1,5,-1
 323 446 l 1,6,-1
 73 446 l 1,7,-1
 88 533 l 1,8,-1
 466 533 l 1,9,-1
 455 468 l 1,10,-1
 319 314 l 1,11,-1
 400 314 l 1,12,-1
 386 229 l 1,13,-1
 243 229 l 1,14,-1
 119 88 l 1,15,-1
 403 88 l 1,16,-1
 388 0 l 1,17,-1
 -23 0 l 1,0,-1
EndSplineSet
EndChar

StartChar: uni01B7
Encoding: 439 439 377
Width: 673
GlyphClass: 2
Flags: W
LayerCount: 2
Fore
SplineSet
-8 -22 m 1,0,-1
 90 14 l 1,1,2
 101 -45 101 -45 142 -87 c 128,-1,3
 183 -129 183 -129 256 -129 c 0,4,5
 347 -129 347 -129 409.5 -69.5 c 128,-1,6
 472 -10 472 -10 488 86 c 0,7,8
 504 183 504 183 453.5 240 c 128,-1,9
 403 297 403 297 293 297 c 2,10,-1
 203 297 l 1,11,-1
 217 382 l 1,12,-1
 484 642 l 1,13,-1
 132 642 l 1,14,-1
 148 735 l 1,15,-1
 660 735 l 1,16,-1
 650 673 l 1,17,-1
 350 386 l 1,18,-1
 366 385 l 1,19,20
 493 372 493 372 556 293 c 128,-1,21
 619 214 619 214 598 86 c 0,22,23
 575 -51 575 -51 476.5 -135.5 c 128,-1,24
 378 -220 378 -220 244 -220 c 0,25,26
 131 -220 131 -220 70 -162.5 c 128,-1,27
 9 -105 9 -105 -8 -22 c 1,0,-1
EndSplineSet
EndChar

StartChar: uni01B8
Encoding: 440 440 378
Width: 673
GlyphClass: 2
Flags: W
LayerCount: 2
Fore
SplineSet
10 86 m 0,0,1
 31 213 31 213 124 294.5 c 128,-1,2
 217 376 217 376 341 385 c 2,3,-1
 358 386 l 1,4,-1
 153 673 l 1,5,-1
 164 735 l 1,6,-1
 676 735 l 1,7,-1
 661 642 l 1,8,-1
 308 642 l 1,9,-1
 490 382 l 1,10,-1
 476 297 l 1,11,-1
 386 297 l 2,12,13
 276 297 276 297 206 240 c 128,-1,14
 136 183 136 183 120 86 c 0,15,16
 104 -10 104 -10 147.5 -69.5 c 128,-1,17
 191 -129 191 -129 281 -129 c 0,18,19
 354 -129 354 -129 409.5 -87 c 128,-1,20
 465 -45 465 -45 494 14 c 1,21,-1
 580 -22 l 1,22,23
 537 -106 537 -106 457 -163 c 128,-1,24
 377 -220 377 -220 264 -220 c 0,25,26
 130 -220 130 -220 58.5 -135.5 c 128,-1,27
 -13 -51 -13 -51 10 86 c 0,0,1
EndSplineSet
EndChar

StartChar: uni01B9
Encoding: 441 441 379
Width: 535
GlyphClass: 2
Flags: W
LayerCount: 2
Fore
SplineSet
-5 19 m 0,0,1
 11 114 11 114 81.5 181.5 c 128,-1,2
 152 249 152 249 243 254 c 1,3,-1
 260 254 l 1,4,-1
 99 468 l 1,5,-1
 110 533 l 1,6,-1
 513 533 l 1,7,-1
 498 446 l 1,8,-1
 240 446 l 1,9,-1
 382 248 l 1,10,-1
 370 177 l 1,11,-1
 285 177 l 2,12,13
 205 177 205 177 156 133 c 128,-1,14
 107 89 107 89 95 19 c 0,15,16
 84 -48 84 -48 114 -93 c 128,-1,17
 144 -138 144 -138 207 -138 c 0,18,19
 258 -138 258 -138 298 -105.5 c 128,-1,20
 338 -73 338 -73 362 -24 c 1,21,-1
 446 -49 l 1,22,23
 410 -127 410 -127 344 -177 c 128,-1,24
 278 -227 278 -227 190 -227 c 0,25,26
 86 -227 86 -227 31.5 -157 c 128,-1,27
 -23 -87 -23 -87 -5 19 c 0,0,1
EndSplineSet
EndChar

StartChar: uni01BA
Encoding: 442 442 380
Width: 421
GlyphClass: 2
Flags: W
LayerCount: 2
Fore
SplineSet
-21 -63 m 0,0,1
 -15 -26 -15 -26 15 5.5 c 128,-1,2
 45 37 45 37 83 58.5 c 128,-1,3
 121 80 121 80 158.5 99.5 c 128,-1,4
 196 119 196 119 224.5 140.5 c 128,-1,5
 253 162 253 162 256 184 c 0,6,7
 260 210 260 210 230 227 c 128,-1,8
 200 244 200 244 140 244 c 2,9,-1
 107 244 l 1,10,-1
 116 300 l 1,11,-1
 285 446 l 1,12,-1
 66 446 l 1,13,-1
 80 533 l 1,14,-1
 427 533 l 1,15,-1
 416 464 l 1,16,-1
 226 304 l 1,17,-1
 245 303 l 2,18,19
 303 300 303 300 334.5 271.5 c 128,-1,20
 366 243 366 243 357 189 c 0,21,22
 351 151 351 151 321.5 119 c 128,-1,23
 292 87 292 87 253.5 65.5 c 128,-1,24
 215 44 215 44 177 24.5 c 128,-1,25
 139 5 139 5 111.5 -15.5 c 128,-1,26
 84 -36 84 -36 81 -57 c 0,27,28
 72 -110 72 -110 143 -110 c 0,29,30
 173 -110 173 -110 245 -96 c 1,31,-1
 230 -186 l 1,32,33
 168 -198 168 -198 113 -198 c 0,34,35
 42 -198 42 -198 5 -163 c 128,-1,36
 -32 -128 -32 -128 -21 -63 c 0,0,1
EndSplineSet
EndChar

StartChar: uni01BB
Encoding: 443 443 381
Width: 536
GlyphClass: 2
Flags: W
LayerCount: 2
Fore
SplineSet
101 312 m 1,0,-1
 115 398 l 1,1,-1
 326 398 l 1,2,3
 402 469 402 469 416 546 c 0,4,5
 425 603 425 603 398.5 633 c 128,-1,6
 372 663 372 663 325 663 c 0,7,8
 229 662 229 662 170 532 c 1,9,-1
 86 559 l 1,10,11
 119 645 119 645 184.5 698.5 c 128,-1,12
 250 752 250 752 343 752 c 0,13,14
 439 752 439 752 490 695 c 128,-1,15
 541 638 541 638 525 541 c 0,16,17
 513 470 513 470 450 398 c 1,18,-1
 531 398 l 1,19,-1
 517 312 l 1,20,-1
 364 312 l 1,21,22
 355 305 355 305 320.5 275.5 c 128,-1,23
 286 246 286 246 276 237 c 128,-1,24
 266 228 266 228 239.5 204 c 128,-1,25
 213 180 213 180 201.5 165.5 c 128,-1,26
 190 151 190 151 172.5 130.5 c 128,-1,27
 155 110 155 110 143 89 c 1,28,-1
 447 89 l 1,29,-1
 432 0 l 1,30,-1
 0 0 l 1,31,32
 13 78 13 78 71.5 151.5 c 128,-1,33
 130 225 130 225 229 312 c 1,34,-1
 101 312 l 1,0,-1
EndSplineSet
EndChar

StartChar: uni01BC
Encoding: 444 444 382
Width: 561
GlyphClass: 2
Flags: W
LayerCount: 2
Fore
SplineSet
16 131 m 1,0,-1
 107 162 l 1,1,2
 132 72 132 72 231 72 c 0,3,4
 295 72 295 72 339 112.5 c 128,-1,5
 383 153 383 153 394 221 c 0,6,7
 404 283 404 283 367.5 327.5 c 128,-1,8
 331 372 331 372 244 372 c 0,9,10
 188 372 188 372 121 358 c 1,11,-1
 202 643 l 1,12,-1
 156 643 l 1,13,-1
 171 735 l 1,14,-1
 553 735 l 1,15,-1
 537 642 l 1,16,-1
 301 642 l 1,17,-1
 249 459 l 1,18,19
 260 461 260 461 300 461 c 0,20,21
 411 461 411 461 466.5 394 c 128,-1,22
 522 327 522 327 505 223 c 0,23,24
 488 123 488 123 413 53 c 128,-1,25
 338 -17 338 -17 221 -17 c 0,26,27
 135 -17 135 -17 83 25 c 128,-1,28
 31 67 31 67 16 131 c 1,0,-1
EndSplineSet
EndChar

StartChar: uni01BD
Encoding: 445 445 383
Width: 447
GlyphClass: 2
Flags: W
LayerCount: 2
Fore
SplineSet
10 101 m 1,0,-1
 95 138 l 1,1,2
 103 108 103 108 125 89.5 c 128,-1,3
 147 71 147 71 176 71 c 0,4,5
 220 71 220 71 248.5 96 c 128,-1,6
 277 121 277 121 284 162 c 0,7,8
 290 201 290 201 263.5 231 c 128,-1,9
 237 261 237 261 184 261 c 0,10,11
 144 261 144 261 84 252 c 1,12,-1
 146 446 l 1,13,-1
 111 446 l 1,14,-1
 125 533 l 1,15,-1
 412 533 l 1,16,-1
 398 446 l 1,17,-1
 231 446 l 1,18,-1
 200 349 l 1,19,-1
 224 349 l 2,20,21
 310 349 310 349 353.5 296.5 c 128,-1,22
 397 244 397 244 384 166 c 0,23,24
 371 90 371 90 314 36.5 c 128,-1,25
 257 -17 257 -17 162 -17 c 0,26,27
 44 -17 44 -17 10 101 c 1,0,-1
EndSplineSet
EndChar

StartChar: uni01BE
Encoding: 446 446 384
Width: 414
GlyphClass: 2
Flags: W
LayerCount: 2
Fore
SplineSet
50 446 m 1,0,-1
 65 533 l 1,1,-1
 138 533 l 1,2,-1
 164 692 l 1,3,-1
 261 692 l 1,4,-1
 235 533 l 1,5,-1
 350 533 l 1,6,-1
 336 446 l 1,7,-1
 220 446 l 1,8,-1
 213 401 l 2,9,10
 208 368 208 368 222.5 342.5 c 128,-1,11
 237 317 237 317 261 300 c 128,-1,12
 285 283 285 283 308 264 c 128,-1,13
 331 245 331 245 344.5 214 c 128,-1,14
 358 183 358 183 351 141 c 0,15,16
 340 75 340 75 291.5 29 c 128,-1,17
 243 -17 243 -17 155 -17 c 0,18,19
 40 -17 40 -17 0 95 c 1,20,-1
 78 135 l 1,21,22
 109 72 109 72 167 72 c 0,23,24
 203 72 203 72 225.5 90 c 128,-1,25
 248 108 248 108 253 138 c 0,26,27
 257 163 257 163 241.5 182 c 128,-1,28
 226 201 226 201 202.5 217.5 c 128,-1,29
 179 234 179 234 156 253.5 c 128,-1,30
 133 273 133 273 120 308 c 128,-1,31
 107 343 107 343 115 391 c 2,32,-1
 124 446 l 1,33,-1
 50 446 l 1,0,-1
EndSplineSet
EndChar

StartChar: uni01BF
Encoding: 447 447 385
Width: 540
GlyphClass: 2
Flags: W
LayerCount: 2
Fore
SplineSet
-16 -223 m 1,0,-1
 109 533 l 1,1,-1
 204 533 l 1,2,-1
 197 490 l 1,3,4
 266 551 266 551 351 551 c 0,5,6
 447 551 447 551 489.5 491.5 c 128,-1,7
 532 432 532 432 517 336 c 0,8,9
 471 57 471 57 119 2 c 1,10,-1
 82 -223 l 1,11,-1
 -16 -223 l 1,0,-1
133 87 m 1,12,13
 242 103 242 103 320.5 163.5 c 128,-1,14
 399 224 399 224 416 323 c 0,15,16
 428 393 428 393 401.5 427.5 c 128,-1,17
 375 462 375 462 325 462 c 0,18,19
 285 462 285 462 246 440.5 c 128,-1,20
 207 419 207 419 183 389 c 1,21,-1
 133 87 l 1,12,13
EndSplineSet
EndChar

StartChar: uni01C0
Encoding: 448 448 386
Width: 234
GlyphClass: 2
Flags: W
LayerCount: 2
Fore
SplineSet
-10 -206 m 1,0,-1
 159 815 l 1,1,-1
 252 815 l 1,2,-1
 83 -206 l 1,3,-1
 -10 -206 l 1,0,-1
EndSplineSet
EndChar

StartChar: uni01C1
Encoding: 449 449 387
Width: 414
GlyphClass: 2
Flags: W
LayerCount: 2
Fore
SplineSet
-10 -206 m 1,0,-1
 159 815 l 1,1,-1
 252 815 l 1,2,-1
 83 -206 l 1,3,-1
 -10 -206 l 1,0,-1
171 -206 m 1,4,-1
 340 815 l 1,5,-1
 433 815 l 1,6,-1
 264 -206 l 1,7,-1
 171 -206 l 1,4,-1
EndSplineSet
EndChar

StartChar: uni01C2
Encoding: 450 450 388
Width: 331
GlyphClass: 2
Flags: W
LayerCount: 2
Fore
SplineSet
37 414 m 1,0,-1
 49 487 l 1,1,-1
 155 487 l 1,2,-1
 209 815 l 1,3,-1
 302 815 l 1,4,-1
 248 487 l 1,5,-1
 351 487 l 1,6,-1
 339 414 l 1,7,-1
 236 414 l 1,8,-1
 213 273 l 1,9,-1
 316 273 l 1,10,-1
 304 201 l 1,11,-1
 201 201 l 1,12,-1
 133 -206 l 1,13,-1
 40 -206 l 1,14,-1
 108 201 l 1,15,-1
 2 201 l 1,16,-1
 14 273 l 1,17,-1
 120 273 l 1,18,-1
 143 414 l 1,19,-1
 37 414 l 1,0,-1
EndSplineSet
EndChar

StartChar: uni01DD
Encoding: 477 477 415
Width: 523
GlyphClass: 2
Flags: W
LayerCount: 2
Fore
SplineSet
27 257 m 0,0,1
 30 273 30 273 37 302 c 1,2,-1
 395 302 l 1,3,4
 406 369 406 369 377 417 c 128,-1,5
 348 465 348 465 282 465 c 0,6,7
 235 465 235 465 198.5 442 c 128,-1,8
 162 419 162 419 140 384 c 1,9,-1
 63 413 l 1,10,11
 97 472 97 472 157 511.5 c 128,-1,12
 217 551 217 551 299 551 c 0,13,14
 405 551 405 551 456.5 471.5 c 128,-1,15
 508 392 508 392 487 263 c 0,16,17
 466 135 466 135 388 59 c 128,-1,18
 310 -17 310 -17 209 -17 c 0,19,20
 109 -17 109 -17 58 59 c 128,-1,21
 7 135 7 135 27 257 c 0,0,1
121 227 m 1,22,23
 110 161 110 161 137 114 c 128,-1,24
 164 67 164 67 223 67 c 256,25,26
 282 67 282 67 325 113.5 c 128,-1,27
 368 160 368 160 382 227 c 1,28,-1
 121 227 l 1,22,23
EndSplineSet
EndChar

StartChar: uni01E4
Encoding: 484 484 422
Width: 705
GlyphClass: 2
Flags: W
LayerCount: 2
Fore
SplineSet
53 368 m 0,0,1
 80 533 80 533 183.5 642.5 c 128,-1,2
 287 752 287 752 440 752 c 0,3,4
 491 752 491 752 533 735 c 128,-1,5
 575 718 575 718 600.5 690.5 c 128,-1,6
 626 663 626 663 642 636.5 c 128,-1,7
 658 610 658 610 665 583 c 1,8,-1
 568 552 l 1,9,10
 556 576 556 576 549.5 587 c 128,-1,11
 543 598 543 598 525.5 618.5 c 128,-1,12
 508 639 508 639 483 649 c 128,-1,13
 458 659 458 659 425 659 c 0,14,15
 325 659 325 659 254.5 580 c 128,-1,16
 184 501 184 501 162 368 c 256,17,18
 140 235 140 235 184 155.5 c 128,-1,19
 228 76 228 76 320 76 c 0,20,21
 372 76 372 76 417.5 101.5 c 128,-1,22
 463 127 463 127 492 174 c 1,23,-1
 313 174 l 1,24,-1
 324 243 l 1,25,-1
 525 243 l 1,26,27
 531 262 531 262 534 277 c 2,28,-1
 540 316 l 1,29,-1
 353 316 l 1,30,-1
 368 406 l 1,31,-1
 658 406 l 1,32,-1
 631 243 l 1,33,-1
 692 243 l 1,34,-1
 680 174 l 1,35,-1
 620 174 l 1,36,-1
 591 0 l 1,37,-1
 515 0 l 1,38,-1
 521 86 l 1,39,40
 446 -17 446 -17 304 -17 c 0,41,42
 166 -17 166 -17 95 86.5 c 128,-1,43
 24 190 24 190 53 368 c 0,0,1
EndSplineSet
EndChar

StartChar: uni01E5
Encoding: 485 485 423
Width: 541
GlyphClass: 2
Flags: W
LayerCount: 2
Fore
SplineSet
36 288 m 0,0,1
 55 404 55 404 126 477.5 c 128,-1,2
 197 551 197 551 289 551 c 0,3,4
 339 551 339 551 368.5 524 c 128,-1,5
 398 497 398 497 405 464 c 1,6,-1
 417 533 l 1,7,-1
 514 533 l 1,8,-1
 440 89 l 2,9,10
 430 26 430 26 420 -8 c 1,11,-1
 485 -8 l 1,12,-1
 474 -72 l 1,13,-1
 397 -72 l 1,14,15
 362 -149 362 -149 307.5 -188 c 128,-1,16
 253 -227 253 -227 166 -227 c 0,17,18
 41 -227 41 -227 -12 -126 c 1,19,-1
 62 -78 l 1,20,21
 102 -143 102 -143 181 -143 c 0,22,23
 251 -143 251 -143 297 -72 c 1,24,-1
 129 -72 l 1,25,-1
 140 -8 l 1,26,-1
 322 -8 l 1,27,28
 331 16 331 16 339 63 c 2,29,-1
 348 117 l 1,30,31
 325 82 325 82 286 59.5 c 128,-1,32
 247 37 247 37 204 37 c 0,33,34
 113 37 113 37 65 105 c 128,-1,35
 17 173 17 173 36 288 c 0,0,1
136 288 m 0,36,37
 123 211 123 211 150.5 168 c 128,-1,38
 178 125 178 125 228 125 c 0,39,40
 279 125 279 125 321 171 c 128,-1,41
 363 217 363 217 375 295 c 0,42,43
 388 372 388 372 362.5 417 c 128,-1,44
 337 462 337 462 285 462 c 0,45,46
 232 462 232 462 190.5 413 c 128,-1,47
 149 364 149 364 136 288 c 0,36,37
EndSplineSet
EndChar

StartChar: uni01EF
Encoding: 495 495 433
Width: 535
GlyphClass: 2
Flags: W
LayerCount: 2
Fore
SplineSet
158 787 m 1,0,-1
 256 787 l 1,1,-1
 329 681 l 1,2,-1
 438 787 l 1,3,-1
 535 787 l 1,4,-1
 362 625 l 1,5,-1
 276 625 l 1,6,-1
 158 787 l 1,0,-1
-19 -49 m 1,7,-1
 72 -24 l 1,8,9
 81 -73 81 -73 110 -105.5 c 128,-1,10
 139 -138 139 -138 190 -138 c 0,11,12
 253 -138 253 -138 297.5 -93 c 128,-1,13
 342 -48 342 -48 354 22 c 0,14,15
 365 90 365 90 330 133.5 c 128,-1,16
 295 177 295 177 216 177 c 2,17,-1
 131 177 l 1,18,-1
 143 248 l 1,19,-1
 350 446 l 1,20,-1
 92 446 l 1,21,-1
 106 533 l 1,22,-1
 510 533 l 1,23,-1
 499 468 l 1,24,-1
 267 254 l 1,25,-1
 308 249 l 1,26,27
 385 234 385 234 427.5 171.5 c 128,-1,28
 470 109 470 109 456 22 c 0,29,30
 438 -87 438 -87 361 -157 c 128,-1,31
 284 -227 284 -227 178 -227 c 0,32,33
 90 -227 90 -227 40 -177 c 128,-1,34
 -10 -127 -10 -127 -19 -49 c 1,7,-1
EndSplineSet
EndChar

StartChar: uni01F6
Encoding: 502 502 440
Width: 974
GlyphClass: 2
Flags: W
LayerCount: 2
Fore
SplineSet
34 0 m 1,0,-1
 156 735 l 1,1,-1
 262 735 l 1,2,-1
 210 424 l 1,3,-1
 513 424 l 1,4,-1
 564 735 l 1,5,-1
 671 735 l 1,6,-1
 583 200 l 2,7,8
 572 134 572 134 596.5 103 c 128,-1,9
 621 72 621 72 671 72 c 0,10,11
 717 72 717 72 752.5 104.5 c 128,-1,12
 788 137 788 137 797 190 c 2,13,-1
 853 533 l 1,14,-1
 958 533 l 1,15,-1
 899 178 l 2,16,17
 883 82 883 82 814.5 32.5 c 128,-1,18
 746 -17 746 -17 656 -17 c 0,19,20
 565 -17 565 -17 510 29.5 c 128,-1,21
 455 76 455 76 472 178 c 2,22,-1
 498 332 l 1,23,-1
 195 332 l 1,24,-1
 140 0 l 1,25,-1
 34 0 l 1,0,-1
EndSplineSet
EndChar

StartChar: uni01F7
Encoding: 503 503 441
Width: 623
GlyphClass: 2
Flags: W
LayerCount: 2
Fore
SplineSet
-2 -217 m 1,0,-1
 156 735 l 1,1,-1
 262 735 l 1,2,-1
 251 664 l 1,3,4
 354 752 354 752 452 752 c 0,5,6
 557 752 557 752 599 683.5 c 128,-1,7
 641 615 641 615 620 493 c 0,8,9
 608 420 608 420 571 351.5 c 128,-1,10
 534 283 534 283 484.5 231 c 128,-1,11
 435 179 435 179 372.5 132.5 c 128,-1,12
 310 86 310 86 254 55.5 c 128,-1,13
 198 25 198 25 141 1 c 1,14,-1
 105 -217 l 1,15,-1
 -2 -217 l 1,0,-1
158 105 m 1,16,17
 211 131 211 131 263 166 c 128,-1,18
 315 201 315 201 369 249 c 128,-1,19
 423 297 423 297 462 359.5 c 128,-1,20
 501 422 501 422 512 488 c 0,21,22
 525 569 525 569 500 614.5 c 128,-1,23
 475 660 475 660 415 660 c 0,24,25
 372 660 372 660 321 629.5 c 128,-1,26
 270 599 270 599 233 557 c 1,27,-1
 158 105 l 1,16,17
EndSplineSet
EndChar

StartChar: Aringacute
Encoding: 506 506 444
Width: 638
GlyphClass: 2
Flags: W
LayerCount: 2
Fore
SplineSet
-51 0 m 1,0,-1
 335 735 l 1,1,-1
 347 735 l 1,2,3
 320 744 320 744 302 767 c 0,4,5
 267 805 267 805 276 861 c 0,6,7
 285 915 285 915 331 954 c 0,8,9
 360 979 360 979 395 987 c 1,10,-1
 493 1110 l 1,11,-1
 618 1110 l 1,12,-1
 485 984 l 1,13,14
 512 975 512 975 530 954 c 0,15,16
 562 915 562 915 552 861 c 0,17,18
 543 805 543 805 497 767 c 0,19,20
 470 744 470 744 440 735 c 1,21,-1
 454 735 l 1,22,-1
 596 0 l 1,23,-1
 481 0 l 1,24,-1
 450 192 l 1,25,-1
 160 192 l 1,26,-1
 64 0 l 1,27,-1
 -51 0 l 1,0,-1
201 279 m 1,28,-1
 436 279 l 1,29,-1
 401 487 l 2,30,31
 398 504 398 504 390.5 555.5 c 128,-1,32
 383 607 383 607 379 632 c 1,33,-1
 374 632 l 1,34,35
 356 595 356 595 305 487 c 2,36,-1
 201 279 l 1,28,-1
347 861 m 0,37,38
 342 832 342 832 358 813 c 128,-1,39
 374 794 374 794 402 794 c 256,40,41
 430 794 430 794 453 812.5 c 128,-1,42
 476 831 476 831 481 861 c 0,43,44
 486 889 486 889 470.5 908 c 128,-1,45
 455 927 455 927 424 927 c 0,46,47
 395 927 395 927 373 907.5 c 128,-1,48
 351 888 351 888 347 861 c 0,37,38
EndSplineSet
EndChar

StartChar: aringacute
Encoding: 507 507 445
Width: 514
GlyphClass: 2
Flags: W
LayerCount: 2
Fore
SplineSet
8 137 m 0,0,1
 33 287 33 287 251 322 c 0,2,3
 342 336 342 336 370 345 c 1,4,-1
 375 375 l 2,5,6
 382 417 382 417 357.5 442 c 128,-1,7
 333 467 333 467 284 467 c 0,8,9
 197 467 197 467 124 393 c 1,10,-1
 72 447 l 1,11,12
 119 496 119 496 177 523.5 c 128,-1,13
 235 551 235 551 296 551 c 0,14,15
 503 551 503 551 467 335 c 2,16,-1
 411 0 l 1,17,-1
 316 0 l 1,18,-1
 328 74 l 1,19,20
 307 37 307 37 260.5 10 c 128,-1,21
 214 -17 214 -17 159 -17 c 0,22,23
 77 -17 77 -17 37 26 c 128,-1,24
 -3 69 -3 69 8 137 c 0,0,1
196 728 m 0,25,26
 205 782 205 782 249 821 c 0,27,28
 278 847 278 847 313 856 c 1,29,-1
 407 978 l 1,30,-1
 528 978 l 1,31,-1
 399 852 l 1,32,33
 425 842 425 842 442 821 c 0,34,35
 472 782 472 782 463 728 c 0,36,37
 454 673 454 673 409 634.5 c 128,-1,38
 364 596 364 596 307 596 c 0,39,40
 253 596 253 596 220 634.5 c 128,-1,41
 187 673 187 673 196 728 c 0,25,26
109 146 m 0,42,43
 104 114 104 114 124.5 92 c 128,-1,44
 145 70 145 70 187 70 c 0,45,46
 245 70 245 70 291.5 109.5 c 128,-1,47
 338 149 338 149 348 212 c 2,48,-1
 358 270 l 1,49,50
 316 259 316 259 247 248 c 0,51,52
 184 237 184 237 150 212.5 c 128,-1,53
 116 188 116 188 109 146 c 0,42,43
264 728 m 256,54,55
 259 700 259 700 274.5 680.5 c 128,-1,56
 290 661 290 661 318 661 c 256,57,58
 346 661 346 661 368 680 c 128,-1,59
 390 699 390 699 394 728 c 256,60,61
 399 757 399 757 384 776 c 128,-1,62
 369 795 369 795 340 795 c 0,63,64
 312 795 312 795 290.5 775.5 c 128,-1,65
 269 756 269 756 264 728 c 256,54,55
EndSplineSet
EndChar

StartChar: uni021C
Encoding: 540 540 478
Width: 557
GlyphClass: 2
Flags: W
LayerCount: 2
Fore
SplineSet
-28 -109 m 1,0,1
 46 -126 46 -126 116 -126 c 0,2,3
 216 -126 216 -126 287 -70.5 c 128,-1,4
 358 -15 358 -15 374 79 c 0,5,6
 391 179 391 179 348.5 224.5 c 128,-1,7
 306 270 306 270 241 270 c 0,8,9
 189 270 189 270 129 247 c 1,10,-1
 145 341 l 1,11,-1
 250 364 l 2,12,13
 324 381 324 381 374 424 c 128,-1,14
 424 467 424 467 435 530 c 0,15,16
 445 588 445 588 414.5 622.5 c 128,-1,17
 384 657 384 657 319 657 c 0,18,19
 230 657 230 657 171 568 c 1,20,-1
 93 607 l 1,21,22
 130 673 130 673 194.5 712.5 c 128,-1,23
 259 752 259 752 335 752 c 0,24,25
 457 752 457 752 510.5 694.5 c 128,-1,26
 564 637 564 637 548 542 c 0,27,28
 534 460 534 460 482 403.5 c 128,-1,29
 430 347 430 347 369 323 c 1,30,31
 429 304 429 304 465 242 c 128,-1,32
 501 180 501 180 484 78 c 0,33,34
 461 -61 461 -61 355.5 -140.5 c 128,-1,35
 250 -220 250 -220 102 -220 c 0,36,37
 41 -220 41 -220 -44 -206 c 1,38,-1
 -28 -109 l 1,0,1
EndSplineSet
EndChar

StartChar: uni021D
Encoding: 541 541 479
Width: 423
GlyphClass: 2
Flags: W
LayerCount: 2
Fore
SplineSet
-35 -126 m 1,0,1
 21 -138 21 -138 71 -138 c 0,2,3
 137 -138 137 -138 183.5 -99.5 c 128,-1,4
 230 -61 230 -61 242 12 c 0,5,6
 253 79 253 79 226.5 115.5 c 128,-1,7
 200 152 200 152 155 152 c 0,8,9
 126 152 126 152 81 138 c 1,10,-1
 95 225 l 1,11,-1
 169 242 l 2,12,13
 219 254 219 254 253 288.5 c 128,-1,14
 287 323 287 323 294 366 c 256,15,16
 301 409 301 409 285 435.5 c 128,-1,17
 269 462 269 462 229 462 c 0,18,19
 169 462 169 462 130 393 c 1,20,-1
 59 425 l 1,21,22
 84 480 84 480 134 515.5 c 128,-1,23
 184 551 184 551 249 551 c 0,24,25
 330 551 330 551 368 499.5 c 128,-1,26
 406 448 406 448 394 380 c 0,27,28
 374 258 374 258 264 204 c 1,29,30
 306 189 306 189 330.5 139 c 128,-1,31
 355 89 355 89 343 16 c 0,32,33
 324 -101 324 -101 248.5 -163.5 c 128,-1,34
 173 -226 173 -226 58 -226 c 0,35,36
 7 -226 7 -226 -50 -217 c 1,37,-1
 -35 -126 l 1,0,1
EndSplineSet
EndChar

StartChar: uni0220
Encoding: 544 544 482
Width: 679
GlyphClass: 2
Flags: W
LayerCount: 2
Fore
SplineSet
34 0 m 1,0,-1
 156 735 l 1,1,-1
 257 735 l 1,2,-1
 243 650 l 1,3,-1
 244 650 l 1,4,5
 342 752 342 752 465 752 c 0,6,7
 679 752 679 752 636 492 c 2,8,-1
 517 -223 l 1,9,-1
 411 -223 l 1,10,-1
 528 483 l 2,11,12
 542 570 542 570 518.5 614.5 c 128,-1,13
 495 659 495 659 424 659 c 0,14,15
 356 659 356 659 293 601 c 128,-1,16
 230 543 230 543 217 469 c 2,17,-1
 140 0 l 1,18,-1
 34 0 l 1,0,-1
EndSplineSet
EndChar

StartChar: uni0221
Encoding: 545 545 483
Width: 704
GlyphClass: 2
Flags: W
LayerCount: 2
Fore
SplineSet
432 -91 m 1,0,1
 436 -115 436 -115 453.5 -132 c 128,-1,2
 471 -149 471 -149 499 -149 c 0,3,4
 524 -149 524 -149 539.5 -136 c 128,-1,5
 555 -123 555 -123 558 -103 c 0,6,7
 561 -82 561 -82 548.5 -67 c 128,-1,8
 536 -52 536 -52 513 -52 c 0,9,10
 470 -52 470 -52 432 -91 c 1,0,1
31 267 m 0,11,12
 53 398 53 398 126 474.5 c 128,-1,13
 199 551 199 551 292 551 c 0,14,15
 340 551 340 551 371.5 524.5 c 128,-1,16
 403 498 403 498 414 463 c 1,17,-1
 463 761 l 1,18,-1
 561 761 l 1,19,-1
 443 51 l 2,20,21
 435 2 435 2 436 -5 c 1,22,23
 477 27 477 27 527 27 c 0,24,25
 590 27 590 27 621 -9.5 c 128,-1,26
 652 -46 652 -46 644 -99 c 0,27,28
 634 -157 634 -157 591.5 -192 c 128,-1,29
 549 -227 549 -227 486 -227 c 0,30,31
 414 -227 414 -227 379 -168 c 1,32,33
 366 -186 366 -186 345 -226 c 1,34,-1
 269 -195 l 1,35,36
 307 -124 307 -124 336 -90 c 1,37,38
 330 -62 330 -62 341 20 c 2,39,-1
 351 77 l 1,40,41
 329 40 329 40 288 11.5 c 128,-1,42
 247 -17 247 -17 197 -17 c 0,43,44
 157 -17 157 -17 123.5 -1 c 128,-1,45
 90 15 90 15 64 47 c 128,-1,46
 38 79 38 79 28.5 136 c 128,-1,47
 19 193 19 193 31 267 c 0,11,12
131 267 m 0,48,49
 116 175 116 175 142.5 123.5 c 128,-1,50
 169 72 169 72 225 72 c 0,51,52
 279 72 279 72 323 124 c 128,-1,53
 367 176 367 176 382 267 c 0,54,55
 397 355 397 355 370.5 408.5 c 128,-1,56
 344 462 344 462 289 462 c 0,57,58
 231 462 231 462 188.5 409.5 c 128,-1,59
 146 357 146 357 131 267 c 0,48,49
EndSplineSet
EndChar

StartChar: uni0222
Encoding: 546 546 484
Width: 681
GlyphClass: 2
Flags: W
LayerCount: 2
Fore
SplineSet
29 241 m 0,0,1
 41 311 41 311 89.5 370.5 c 128,-1,2
 138 430 138 430 211 465 c 1,3,4
 102 519 102 519 124 649 c 0,5,6
 132 698 132 698 151 735 c 1,7,-1
 255 735 l 1,8,9
 241 690 241 690 235 656 c 0,10,11
 225 595 225 595 262.5 550 c 128,-1,12
 300 505 300 505 378 505 c 0,13,14
 452 505 452 505 505.5 549 c 128,-1,15
 559 593 559 593 569 656 c 0,16,17
 575 694 575 694 576 735 c 1,18,-1
 680 735 l 1,19,20
 686 702 686 702 678 649 c 0,21,22
 656 519 656 519 529 465 c 1,23,24
 592 432 592 432 620.5 371.5 c 128,-1,25
 649 311 649 311 638 241 c 0,26,27
 630 194 630 194 605 150 c 128,-1,28
 580 106 580 106 538.5 67.5 c 128,-1,29
 497 29 497 29 433 6 c 128,-1,30
 369 -17 369 -17 291 -17 c 256,31,32
 214 -17 214 -17 157.5 6 c 128,-1,33
 101 29 101 29 72 67 c 128,-1,34
 43 105 43 105 32 149.5 c 128,-1,35
 21 194 21 194 29 241 c 0,0,1
139 241 m 0,36,37
 127 166 127 166 174 121 c 128,-1,38
 221 76 221 76 307 76 c 0,39,40
 391 76 391 76 453.5 121 c 128,-1,41
 516 166 516 166 528 241 c 0,42,43
 540 315 540 315 492.5 363 c 128,-1,44
 445 411 445 411 362 411 c 0,45,46
 281 411 281 411 216.5 364 c 128,-1,47
 152 317 152 317 139 241 c 0,36,37
EndSplineSet
EndChar

StartChar: uni0223
Encoding: 547 547 485
Width: 523
GlyphClass: 2
Flags: W
LayerCount: 2
Fore
SplineSet
27 245 m 0,0,1
 41 327 41 327 84.5 387.5 c 128,-1,2
 128 448 128 448 186 473 c 1,3,4
 94 522 94 522 116 657 c 0,5,6
 124 705 124 705 143 746 c 1,7,-1
 239 746 l 1,8,9
 222 687 222 687 218 665 c 0,10,11
 207 601 207 601 225 557 c 128,-1,12
 243 513 243 513 299 513 c 0,13,14
 352 513 352 513 387 556.5 c 128,-1,15
 422 600 422 600 433 665 c 0,16,17
 437 691 437 691 438 746 c 1,18,-1
 533 746 l 1,19,20
 540 707 540 707 531 657 c 0,21,22
 508 519 508 519 401 473 c 1,23,24
 451 449 451 449 474.5 388 c 128,-1,25
 498 327 498 327 484 245 c 0,26,27
 476 196 476 196 456 151 c 128,-1,28
 436 106 436 106 403.5 67.5 c 128,-1,29
 371 29 371 29 321 6 c 128,-1,30
 271 -17 271 -17 212 -17 c 0,31,32
 153 -17 153 -17 111 5.5 c 128,-1,33
 69 28 69 28 49.5 66.5 c 128,-1,34
 30 105 30 105 24.5 150 c 128,-1,35
 19 195 19 195 27 245 c 0,0,1
128 245 m 256,36,37
 115 167 115 167 142 119.5 c 128,-1,38
 169 72 169 72 226 72 c 0,39,40
 284 72 284 72 327.5 119 c 128,-1,41
 371 166 371 166 384 245 c 0,42,43
 397 322 397 322 369 372.5 c 128,-1,44
 341 423 341 423 284 423 c 0,45,46
 229 423 229 423 185 373 c 128,-1,47
 141 323 141 323 128 245 c 256,36,37
EndSplineSet
EndChar

StartChar: uni0224
Encoding: 548 548 486
Width: 590
GlyphClass: 2
Flags: W
LayerCount: 2
Fore
SplineSet
-14 0 m 1,0,-1
 -1 79 l 1,1,-1
 476 642 l 1,2,-1
 122 642 l 1,3,-1
 138 735 l 1,4,-1
 623 735 l 1,5,-1
 610 655 l 1,6,-1
 131 92 l 1,7,-1
 410 92 l 2,8,9
 494 92 494 92 527 47 c 128,-1,10
 560 2 560 2 545 -91 c 0,11,12
 534 -158 534 -158 496 -223 c 1,13,-1
 401 -223 l 1,14,15
 439 -161 439 -161 448 -105 c 0,16,17
 465 0 465 0 367 0 c 2,18,-1
 -14 0 l 1,0,-1
EndSplineSet
EndChar

StartChar: uni0225
Encoding: 549 549 487
Width: 456
GlyphClass: 2
Flags: W
LayerCount: 2
Fore
SplineSet
-23 0 m 1,0,-1
 -12 69 l 1,1,-1
 323 447 l 1,2,-1
 73 447 l 1,3,-1
 88 535 l 1,4,-1
 466 535 l 1,5,-1
 455 470 l 1,6,-1
 119 88 l 1,7,-1
 321 88 l 2,8,9
 396 88 396 88 427 45.5 c 128,-1,10
 458 3 458 3 443 -89 c 0,11,12
 429 -173 429 -173 401 -223 c 1,13,-1
 314 -223 l 1,14,15
 342 -174 342 -174 353 -107 c 0,16,17
 362 -54 362 -54 346.5 -27 c 128,-1,18
 331 0 331 0 283 0 c 2,19,-1
 -23 0 l 1,0,-1
EndSplineSet
EndChar

StartChar: uni0234
Encoding: 564 564 502
Width: 387
GlyphClass: 2
Flags: W
LayerCount: 2
Fore
SplineSet
120 -91 m 1,0,1
 123 -115 123 -115 140.5 -132 c 128,-1,2
 158 -149 158 -149 186 -149 c 0,3,4
 211 -149 211 -149 227 -136 c 128,-1,5
 243 -123 243 -123 246 -103 c 0,6,7
 250 -81 250 -81 237 -66.5 c 128,-1,8
 224 -52 224 -52 199 -52 c 0,9,10
 159 -52 159 -52 120 -91 c 1,0,1
-44 -195 m 1,11,12
 -2 -121 -2 -121 25 -90 c 1,13,14
 16 -52 16 -52 29 28 c 2,15,-1
 151 761 l 1,16,-1
 248 761 l 1,17,-1
 131 51 l 2,18,19
 124 7 124 7 123 -6 c 1,20,21
 163 27 163 27 215 27 c 0,22,23
 278 27 278 27 309 -9.5 c 128,-1,24
 340 -46 340 -46 331 -99 c 0,25,26
 321 -157 321 -157 278.5 -192 c 128,-1,27
 236 -227 236 -227 174 -227 c 0,28,29
 102 -227 102 -227 66 -168 c 1,30,31
 46 -195 46 -195 32 -226 c 1,32,-1
 -44 -195 l 1,11,12
EndSplineSet
EndChar

StartChar: uni0235
Encoding: 565 565 503
Width: 687
GlyphClass: 2
Flags: W
LayerCount: 2
Fore
SplineSet
419 -91 m 1,0,1
 422 -116 422 -116 440.5 -132.5 c 128,-1,2
 459 -149 459 -149 486 -149 c 0,3,4
 511 -149 511 -149 527 -135.5 c 128,-1,5
 543 -122 543 -122 546 -102 c 256,6,7
 549 -82 549 -82 537.5 -67 c 128,-1,8
 526 -52 526 -52 499 -52 c 0,9,10
 458 -52 458 -52 419 -91 c 1,0,1
16 0 m 1,11,-1
 104 533 l 1,12,-1
 198 533 l 1,13,-1
 186 459 l 1,14,-1
 187 459 l 1,15,16
 206 491 206 491 249 521 c 128,-1,17
 292 551 292 551 349 551 c 0,18,19
 423 551 423 551 459.5 502 c 128,-1,20
 496 453 496 453 478 343 c 2,21,-1
 429 49 l 2,22,23
 421 1 421 1 421 -5 c 1,24,25
 461 27 461 27 515 27 c 0,26,27
 577 27 577 27 608.5 -9 c 128,-1,28
 640 -45 640 -45 631 -99 c 0,29,30
 621 -157 621 -157 578 -192 c 128,-1,31
 535 -227 535 -227 474 -227 c 0,32,33
 401 -227 401 -227 366 -168 c 1,34,35
 346 -198 346 -198 332 -226 c 1,36,-1
 256 -195 l 1,37,38
 285 -137 285 -137 325 -90 c 1,39,40
 315 -53 315 -53 329 31 c 2,41,-1
 378 329 l 2,42,43
 400 462 400 462 314 462 c 0,44,45
 263 462 263 462 219.5 418.5 c 128,-1,46
 176 375 176 375 165 312 c 2,47,-1
 114 0 l 1,48,-1
 16 0 l 1,11,-1
EndSplineSet
EndChar

StartChar: uni0236
Encoding: 566 566 504
Width: 416
GlyphClass: 2
Flags: W
LayerCount: 2
Fore
SplineSet
146 -91 m 1,0,1
 149 -114 149 -114 166.5 -131.5 c 128,-1,2
 184 -149 184 -149 213 -149 c 0,3,4
 239 -149 239 -149 254.5 -135.5 c 128,-1,5
 270 -122 270 -122 273 -103 c 256,6,7
 276 -84 276 -84 264 -68 c 128,-1,8
 252 -52 252 -52 227 -52 c 0,9,10
 185 -52 185 -52 146 -91 c 1,0,1
43 446 m 1,11,-1
 58 533 l 1,12,-1
 139 533 l 1,13,-1
 166 695 l 1,14,-1
 263 695 l 1,15,-1
 236 533 l 1,16,-1
 358 533 l 1,17,-1
 343 446 l 1,18,-1
 222 446 l 1,19,-1
 155 45 l 2,20,21
 149 6 149 6 149 -5 c 1,22,23
 189 27 189 27 242 27 c 0,24,25
 304 27 304 27 335 -9.5 c 128,-1,26
 366 -46 366 -46 358 -99 c 0,27,28
 348 -157 348 -157 305.5 -192 c 128,-1,29
 263 -227 263 -227 201 -227 c 0,30,31
 127 -227 127 -227 93 -168 c 1,32,33
 71 -200 71 -200 58 -226 c 1,34,-1
 -17 -195 l 1,35,36
 24 -120 24 -120 50 -90 c 1,37,38
 42 -54 42 -54 56 32 c 2,39,-1
 125 446 l 1,40,-1
 43 446 l 1,11,-1
EndSplineSet
EndChar

StartChar: uni0237
Encoding: 567 567 505
Width: 253
GlyphClass: 2
Flags: W
LayerCount: 2
Fore
SplineSet
-80 -131 m 1,0,-1
 -61 -131 l 2,1,2
 13 -131 13 -131 32 -21 c 2,3,-1
 123 533 l 1,4,-1
 221 533 l 1,5,-1
 129 -26 l 2,6,7
 113 -121 113 -121 64 -170 c 128,-1,8
 15 -219 15 -219 -59 -219 c 2,9,-1
 -94 -219 l 1,10,-1
 -80 -131 l 1,0,-1
EndSplineSet
EndChar

StartChar: uni0238
Encoding: 568 568 506
Width: 864
GlyphClass: 2
Flags: W
LayerCount: 2
Fore
SplineSet
31 267 m 0,0,1
 53 399 53 399 126.5 475 c 128,-1,2
 200 551 200 551 292 551 c 0,3,4
 340 551 340 551 371.5 524.5 c 128,-1,5
 403 498 403 498 413 463 c 1,6,-1
 462 761 l 1,7,-1
 560 761 l 1,8,-1
 511 463 l 1,9,10
 535 498 535 498 574.5 524.5 c 128,-1,11
 614 551 614 551 662 551 c 0,12,13
 755 551 755 551 803 475.5 c 128,-1,14
 851 400 851 400 829 267 c 0,15,16
 817 192 817 192 787.5 135 c 128,-1,17
 758 78 758 78 721 46 c 128,-1,18
 684 14 684 14 645.5 -1.5 c 128,-1,19
 607 -17 607 -17 569 -17 c 0,20,21
 519 -17 519 -17 487.5 10.5 c 128,-1,22
 456 38 456 38 447 76 c 1,23,-1
 434 0 l 1,24,-1
 338 0 l 1,25,-1
 351 77 l 1,26,27
 326 36 326 36 284.5 9.5 c 128,-1,28
 243 -17 243 -17 196 -17 c 0,29,30
 158 -17 158 -17 125.5 -2 c 128,-1,31
 93 13 93 13 66 45 c 128,-1,32
 39 77 39 77 28.5 134 c 128,-1,33
 18 191 18 191 31 267 c 0,0,1
131 267 m 0,34,35
 115 173 115 173 142 122.5 c 128,-1,36
 169 72 169 72 225 72 c 256,37,38
 281 72 281 72 324 124.5 c 128,-1,39
 367 177 367 177 381 261 c 2,40,-1
 382 267 l 2,41,42
 396 352 396 352 370.5 407 c 128,-1,43
 345 462 345 462 289 462 c 256,44,45
 233 462 233 462 189.5 410 c 128,-1,46
 146 358 146 358 131 267 c 0,34,35
475 260 m 2,47,48
 462 179 462 179 488 125.5 c 128,-1,49
 514 72 514 72 568 72 c 0,50,51
 625 72 625 72 668.5 122.5 c 128,-1,52
 712 173 712 173 728 267 c 0,53,54
 743 357 743 357 717 409.5 c 128,-1,55
 691 462 691 462 634 462 c 0,56,57
 578 462 578 462 534 406.5 c 128,-1,58
 490 351 490 351 476 267 c 2,59,-1
 475 260 l 2,47,48
EndSplineSet
EndChar

StartChar: uni0239
Encoding: 569 569 507
Width: 865
GlyphClass: 2
Flags: W
CounterMasks: 1 0e
LayerCount: 2
Fore
SplineSet
31 267 m 0,0,1
 53 397 53 397 125.5 474 c 128,-1,2
 198 551 198 551 292 551 c 0,3,4
 382 551 382 551 414 459 c 1,5,-1
 426 533 l 1,6,-1
 522 533 l 1,7,-1
 510 460 l 1,8,9
 535 498 535 498 576.5 524.5 c 128,-1,10
 618 551 618 551 665 551 c 0,11,12
 759 551 759 551 805 474 c 128,-1,13
 851 397 851 397 830 267 c 0,14,15
 818 194 818 194 790 137.5 c 128,-1,16
 762 81 762 81 725.5 48.5 c 128,-1,17
 689 16 689 16 649.5 -0.5 c 128,-1,18
 610 -17 610 -17 570 -17 c 0,19,20
 519 -17 519 -17 487 10.5 c 128,-1,21
 455 38 455 38 446 75 c 1,22,-1
 397 -223 l 1,23,-1
 299 -223 l 1,24,-1
 348 74 l 1,25,26
 324 36 324 36 283.5 9.5 c 128,-1,27
 243 -17 243 -17 197 -17 c 0,28,29
 111 -17 111 -17 59.5 55 c 128,-1,30
 8 127 8 127 31 267 c 0,0,1
131 267 m 0,31,32
 116 175 116 175 142.5 123.5 c 128,-1,33
 169 72 169 72 224 72 c 0,34,35
 282 72 282 72 324.5 124.5 c 128,-1,36
 367 177 367 177 382 267 c 2,37,-1
 383 273 l 2,38,39
 397 357 397 357 371 409.5 c 128,-1,40
 345 462 345 462 288 462 c 0,41,42
 229 462 229 462 187 407.5 c 128,-1,43
 145 353 145 353 131 267 c 0,31,32
478 268 m 2,44,45
 463 178 463 178 489.5 125 c 128,-1,46
 516 72 516 72 572 72 c 256,47,48
 628 72 628 72 671.5 123.5 c 128,-1,49
 715 175 715 175 730 267 c 0,50,51
 744 354 744 354 720.5 408 c 128,-1,52
 697 462 697 462 637 462 c 0,53,54
 583 462 583 462 538 409.5 c 128,-1,55
 493 357 493 357 479 274 c 2,56,-1
 478 268 l 2,44,45
EndSplineSet
EndChar

StartChar: uni023A
Encoding: 570 570 508
Width: 638
GlyphClass: 2
Flags: W
LayerCount: 2
Fore
SplineSet
-51 0 m 1,0,-1
 335 735 l 1,1,-1
 455 735 l 1,2,-1
 483 590 l 1,3,-1
 631 778 l 1,4,-1
 707 778 l 1,5,-1
 498 512 l 1,6,-1
 596 0 l 1,7,-1
 481 0 l 1,8,-1
 449 191 l 1,9,-1
 247 191 l 1,10,-1
 23 -93 l 1,11,-1
 -55 -93 l 1,12,-1
 18 0 l 1,13,-1
 -51 0 l 1,0,-1
201 279 m 1,14,-1
 238 279 l 1,15,-1
 403 488 l 1,16,17
 401 494 401 494 394 546 c 0,18,19
 385 603 385 603 379 632 c 1,20,-1
 374 632 l 1,21,22
 340 558 340 558 305 487 c 2,23,-1
 201 279 l 1,14,-1
315 279 m 1,24,-1
 437 279 l 1,25,-1
 416 407 l 1,26,-1
 315 279 l 1,24,-1
159 191 m 1,27,-1
 143 159 l 1,28,-1
 168 191 l 1,29,-1
 159 191 l 1,27,-1
EndSplineSet
EndChar

StartChar: uni023B
Encoding: 571 571 509
Width: 641
GlyphClass: 2
Flags: W
LayerCount: 2
Fore
SplineSet
53 368 m 0,0,1
 82 543 82 543 186 647.5 c 128,-1,2
 290 752 290 752 432 752 c 0,3,4
 484 752 484 752 529 732 c 1,5,-1
 560 790 l 1,6,-1
 637 790 l 1,7,-1
 587 693 l 1,8,9
 633 650 633 650 652 580 c 1,10,-1
 555 549 l 1,11,12
 542 579 542 579 533 593 c 1,13,-1
 262 87 l 1,14,15
 287 76 287 76 319 76 c 0,16,17
 380 76 380 76 430.5 112.5 c 128,-1,18
 481 149 481 149 511 200 c 1,19,-1
 602 169 l 1,20,21
 582 137 582 137 556.5 108 c 128,-1,22
 531 79 531 79 495 49 c 128,-1,23
 459 19 459 19 409.5 1 c 128,-1,24
 360 -17 360 -17 305 -17 c 0,25,26
 255 -17 255 -17 214 -3 c 1,27,-1
 183 -61 l 1,28,-1
 105 -61 l 1,29,-1
 151 27 l 1,30,31
 86 75 86 75 59.5 162.5 c 128,-1,32
 33 250 33 250 53 368 c 0,0,1
204 126 m 1,33,-1
 482 643 l 1,34,35
 451 659 451 659 416 659 c 0,36,37
 320 659 320 659 251.5 578.5 c 128,-1,38
 183 498 183 498 162 368 c 0,39,40
 135 204 135 204 204 126 c 1,33,-1
EndSplineSet
EndChar

StartChar: uni023C
Encoding: 572 572 510
Width: 482
GlyphClass: 2
Flags: W
LayerCount: 2
Fore
SplineSet
31 267 m 0,0,1
 52 391 52 391 126 471 c 128,-1,2
 200 551 200 551 311 551 c 0,3,4
 342 551 342 551 372 538 c 1,5,-1
 404 602 l 1,6,-1
 474 602 l 1,7,-1
 424 503 l 1,8,9
 465 465 465 465 471 398 c 1,10,-1
 387 375 l 1,11,12
 382 396 382 396 375 409 c 1,13,-1
 205 75 l 1,14,15
 213 72 213 72 229 72 c 0,16,17
 304 72 304 72 361 166 c 1,18,-1
 441 141 l 1,19,20
 415 82 415 82 353.5 32.5 c 128,-1,21
 292 -17 292 -17 214 -17 c 0,22,23
 185 -17 185 -17 160 -11 c 1,24,-1
 136 -60 l 1,25,-1
 66 -60 l 1,26,-1
 104 14 l 1,27,28
 52 49 52 49 34.5 117 c 128,-1,29
 17 185 17 185 31 267 c 0,0,1
156 114 m 1,30,-1
 328 453 l 1,31,32
 313 462 313 462 294 462 c 0,33,34
 233 462 233 462 189 406.5 c 128,-1,35
 145 351 145 351 131 267 c 0,36,37
 114 164 114 164 156 114 c 1,30,-1
EndSplineSet
EndChar

StartChar: uni023D
Encoding: 573 573 511
Width: 531
GlyphClass: 2
Flags: W
LayerCount: 2
Fore
SplineSet
23 372 m 1,0,-1
 37 458 l 1,1,-1
 115 458 l 1,2,-1
 161 735 l 1,3,-1
 267 735 l 1,4,-1
 221 458 l 1,5,-1
 407 458 l 1,6,-1
 393 372 l 1,7,-1
 207 372 l 1,8,-1
 161 92 l 1,9,-1
 492 92 l 1,10,-1
 477 0 l 1,11,-1
 40 0 l 1,12,-1
 101 372 l 1,13,-1
 23 372 l 1,0,-1
EndSplineSet
EndChar

StartChar: uni023E
Encoding: 574 574 512
Width: 548
GlyphClass: 2
Flags: W
LayerCount: 2
Fore
SplineSet
386 642 m 1,0,-1
 361 494 l 1,1,-1
 465 642 l 1,2,-1
 386 642 l 1,0,-1
68 642 m 1,3,-1
 84 735 l 1,4,-1
 532 735 l 1,5,-1
 570 790 l 1,6,-1
 644 790 l 1,7,-1
 605 735 l 1,8,-1
 613 735 l 1,9,-1
 598 642 l 1,10,-1
 540 642 l 1,11,-1
 339 357 l 1,12,-1
 280 0 l 1,13,-1
 174 0 l 1,14,-1
 200 161 l 1,15,-1
 56 -45 l 1,16,-1
 -19 -45 l 1,17,-1
 223 298 l 1,18,-1
 280 642 l 1,19,-1
 68 642 l 1,3,-1
EndSplineSet
EndChar

StartChar: uni023F
Encoding: 575 575 513
Width: 461
GlyphClass: 2
Flags: W
LayerCount: 2
Fore
SplineSet
-4 109 m 1,0,-1
 74 153 l 1,1,2
 113 68 113 68 203 68 c 0,3,4
 248 68 248 68 278.5 87 c 128,-1,5
 309 106 309 106 314 138 c 0,6,7
 316 152 316 152 311.5 165 c 128,-1,8
 307 178 307 178 299.5 186 c 128,-1,9
 292 194 292 194 276 203 c 128,-1,10
 260 212 260 212 248.5 216 c 128,-1,11
 237 220 237 220 213.5 228.5 c 128,-1,12
 190 237 190 237 180 241 c 0,13,14
 151 253 151 253 130 264 c 128,-1,15
 109 275 109 275 90.5 293 c 128,-1,16
 72 311 72 311 64 336.5 c 128,-1,17
 56 362 56 362 62 395 c 0,18,19
 74 467 74 467 136.5 509 c 128,-1,20
 199 551 199 551 280 551 c 0,21,22
 345 551 345 551 391.5 516 c 128,-1,23
 438 481 438 481 457 429 c 1,24,-1
 385 387 l 1,25,26
 344 465 344 465 266 465 c 0,27,28
 221 465 221 465 194 445.5 c 128,-1,29
 167 426 167 426 161 394 c 0,30,31
 152 337 152 337 257 304 c 0,32,33
 291 292 291 292 317.5 280.5 c 128,-1,34
 344 269 344 269 370 249.5 c 128,-1,35
 396 230 396 230 407.5 201.5 c 128,-1,36
 419 173 419 173 413 138 c 0,37,38
 402 71 402 71 342 27 c 128,-1,39
 282 -17 282 -17 187 -17 c 0,40,41
 135 -17 135 -17 99 2 c 1,42,43
 108 -79 108 -79 118 -103 c 0,44,45
 138 -152 138 -152 198 -152 c 0,46,47
 232 -152 232 -152 253 -148 c 1,48,-1
 241 -220 l 1,49,50
 204 -227 204 -227 182 -227 c 0,51,52
 142 -227 142 -227 113.5 -213 c 128,-1,53
 85 -199 85 -199 69 -180 c 128,-1,54
 53 -161 53 -161 43.5 -128 c 128,-1,55
 34 -95 34 -95 31 -70 c 128,-1,56
 28 -45 28 -45 25 -8 c 0,57,58
 22 68 22 68 -4 109 c 1,0,-1
EndSplineSet
EndChar

StartChar: uni0240
Encoding: 576 576 514
Width: 457
GlyphClass: 2
Flags: W
LayerCount: 2
Fore
SplineSet
-23 0 m 1,0,-1
 -12 69 l 1,1,-1
 323 446 l 1,2,-1
 73 446 l 1,3,-1
 88 533 l 1,4,-1
 466 533 l 1,5,-1
 455 468 l 1,6,-1
 101 69 l 1,7,8
 133 62 133 62 157 38 c 128,-1,9
 181 14 181 14 197 -15 c 128,-1,10
 213 -44 213 -44 227.5 -72 c 128,-1,11
 242 -100 242 -100 263 -119 c 128,-1,12
 284 -138 284 -138 312 -138 c 0,13,14
 342 -138 342 -138 368 -133 c 1,15,-1
 354 -219 l 1,16,17
 323 -227 323 -227 292 -227 c 0,18,19
 251 -227 251 -227 220.5 -205 c 128,-1,20
 190 -183 190 -183 171 -150.5 c 128,-1,21
 152 -118 152 -118 135 -85.5 c 128,-1,22
 118 -53 118 -53 92 -28.5 c 128,-1,23
 66 -4 66 -4 34 0 c 1,24,-1
 -23 0 l 1,0,-1
EndSplineSet
EndChar

StartChar: uni0241
Encoding: 577 577 515
Width: 557
GlyphClass: 2
Flags: W
LayerCount: 2
Fore
SplineSet
102 578 m 1,0,1
 136 656 136 656 206 704 c 128,-1,2
 276 752 276 752 361 752 c 0,3,4
 456 752 456 752 505.5 695 c 128,-1,5
 555 638 555 638 540 547 c 0,6,7
 533 502 533 502 509.5 465.5 c 128,-1,8
 486 429 486 429 457 404 c 128,-1,9
 428 379 428 379 399.5 354.5 c 128,-1,10
 371 330 371 330 348.5 298 c 128,-1,11
 326 266 326 266 320 227 c 2,12,-1
 282 0 l 1,13,-1
 176 0 l 1,14,-1
 215 236 l 2,15,16
 222 281 222 281 245.5 318 c 128,-1,17
 269 355 269 355 297.5 380.5 c 128,-1,18
 326 406 326 406 354 429.5 c 128,-1,19
 382 453 382 453 404 484 c 128,-1,20
 426 515 426 515 432 551 c 0,21,22
 440 600 440 600 416 630 c 128,-1,23
 392 660 392 660 346 660 c 256,24,25
 300 660 300 660 260 630.5 c 128,-1,26
 220 601 220 601 193 549 c 1,27,-1
 102 578 l 1,0,1
EndSplineSet
EndChar

StartChar: uni0250
Encoding: 592 592 516
Width: 515
GlyphClass: 2
Flags: W
LayerCount: 2
Fore
SplineSet
152 263 m 1,0,1
 189 272 189 272 265 285 c 0,2,3
 327 295 327 295 361 319.5 c 128,-1,4
 395 344 395 344 402 387 c 0,5,6
 407 419 407 419 386.5 441 c 128,-1,7
 366 463 366 463 323 463 c 0,8,9
 267 463 267 463 219.5 423.5 c 128,-1,10
 172 384 172 384 162 324 c 2,11,-1
 152 263 l 1,0,1
43 199 m 2,12,-1
 99 533 l 1,13,-1
 194 533 l 1,14,-1
 183 461 l 1,15,16
 204 496 204 496 249.5 523.5 c 128,-1,17
 295 551 295 551 351 551 c 0,18,19
 432 551 432 551 473.5 508 c 128,-1,20
 515 465 515 465 503 395 c 0,21,22
 478 246 478 246 253 211 c 0,23,24
 181 200 181 200 139 188 c 1,25,-1
 134 156 l 2,26,27
 127 115 127 115 153.5 90 c 128,-1,28
 180 65 180 65 227 65 c 0,29,30
 312 65 312 65 388 141 c 1,31,-1
 439 86 l 1,32,33
 393 37 393 37 333.5 10 c 128,-1,34
 274 -17 274 -17 215 -17 c 0,35,36
 106 -17 106 -17 66 38.5 c 128,-1,37
 26 94 26 94 43 199 c 2,12,-1
EndSplineSet
EndChar

StartChar: uni0251
Encoding: 593 593 517
Width: 542
GlyphClass: 2
Flags: W
LayerCount: 2
Fore
SplineSet
131 267 m 0,0,1
 116 174 116 174 142.5 123 c 128,-1,2
 169 72 169 72 225 72 c 0,3,4
 273 72 273 72 318.5 120.5 c 128,-1,5
 364 169 364 169 380 267 c 0,6,7
 395 355 395 355 369 408.5 c 128,-1,8
 343 462 343 462 288 462 c 0,9,10
 231 462 231 462 188.5 409.5 c 128,-1,11
 146 357 146 357 131 267 c 0,0,1
31 267 m 0,12,13
 53 398 53 398 125 474.5 c 128,-1,14
 197 551 197 551 291 551 c 0,15,16
 338 551 338 551 369.5 524 c 128,-1,17
 401 497 401 497 411 463 c 1,18,-1
 422 533 l 1,19,-1
 520 533 l 1,20,-1
 432 0 l 1,21,-1
 336 0 l 1,22,-1
 349 78 l 1,23,24
 325 39 325 39 283.5 11 c 128,-1,25
 242 -17 242 -17 196 -17 c 0,26,27
 156 -17 156 -17 123 -1 c 128,-1,28
 90 15 90 15 64 47 c 128,-1,29
 38 79 38 79 28.5 136 c 128,-1,30
 19 193 19 193 31 267 c 0,12,13
EndSplineSet
EndChar

StartChar: uni0252
Encoding: 594 594 518
Width: 542
GlyphClass: 2
Flags: W
LayerCount: 2
Fore
SplineSet
17 0 m 1,0,-1
 105 533 l 1,1,-1
 203 533 l 1,2,-1
 191 463 l 1,3,4
 216 498 216 498 255 524.5 c 128,-1,5
 294 551 294 551 342 551 c 0,6,7
 436 551 436 551 482.5 474.5 c 128,-1,8
 529 398 529 398 507 267 c 0,9,10
 495 192 495 192 466 135.5 c 128,-1,11
 437 79 437 79 400 46.5 c 128,-1,12
 363 14 363 14 324.5 -1.5 c 128,-1,13
 286 -17 286 -17 249 -17 c 0,14,15
 200 -17 200 -17 167.5 11.5 c 128,-1,16
 135 40 135 40 126 77 c 1,17,-1
 114 0 l 1,18,-1
 17 0 l 1,0,-1
157 267 m 0,19,20
 142 177 142 177 168.5 124.5 c 128,-1,21
 195 72 195 72 249 72 c 0,22,23
 305 72 305 72 348 123 c 128,-1,24
 391 174 391 174 407 267 c 0,25,26
 422 358 422 358 396.5 410 c 128,-1,27
 371 462 371 462 314 462 c 0,28,29
 259 462 259 462 215.5 408.5 c 128,-1,30
 172 355 172 355 157 267 c 0,19,20
EndSplineSet
EndChar

StartChar: uni0253
Encoding: 595 595 519
Width: 547
GlyphClass: 2
Flags: W
LayerCount: 2
Fore
SplineSet
160 267 m 0,0,1
 145 177 145 177 171 124.5 c 128,-1,2
 197 72 197 72 252 72 c 0,3,4
 310 72 310 72 353 124 c 128,-1,5
 396 176 396 176 411 268 c 0,6,7
 426 356 426 356 401 409 c 128,-1,8
 376 462 376 462 317 462 c 0,9,10
 261 462 261 462 218 408.5 c 128,-1,11
 175 355 175 355 160 267 c 0,0,1
19 0 m 1,12,-1
 114 574 l 2,13,14
 130 671 130 671 186.5 723.5 c 128,-1,15
 243 776 243 776 325 776 c 0,16,17
 359 776 359 776 424 765 c 1,18,-1
 407 674 l 1,19,20
 351 684 351 684 326 684 c 0,21,22
 279 684 279 684 248.5 649.5 c 128,-1,23
 218 615 218 615 208 555 c 2,24,-1
 193 463 l 1,25,26
 219 500 219 500 258 525.5 c 128,-1,27
 297 551 297 551 346 551 c 0,28,29
 441 551 441 551 487 473.5 c 128,-1,30
 533 396 533 396 512 268 c 0,31,32
 489 131 489 131 414.5 57 c 128,-1,33
 340 -17 340 -17 253 -17 c 0,34,35
 202 -17 202 -17 170.5 11.5 c 128,-1,36
 139 40 139 40 127 77 c 1,37,-1
 114 0 l 1,38,-1
 19 0 l 1,12,-1
EndSplineSet
EndChar

StartChar: uni0254
Encoding: 596 596 520
Width: 482
GlyphClass: 2
Flags: W
LayerCount: 2
Fore
SplineSet
-5 141 m 1,0,-1
 83 166 l 1,1,2
 89 129 89 129 115.5 100.5 c 128,-1,3
 142 72 142 72 183 72 c 0,4,5
 239 72 239 72 285.5 123.5 c 128,-1,6
 332 175 332 175 347 266 c 0,7,8
 361 350 361 350 334.5 406 c 128,-1,9
 308 462 308 462 247 462 c 0,10,11
 210 462 210 462 179 436.5 c 128,-1,12
 148 411 148 411 130 374 c 1,13,-1
 50 398 l 1,14,15
 74 459 74 459 132 505 c 128,-1,16
 190 551 190 551 264 551 c 0,17,18
 366 551 366 551 417 472.5 c 128,-1,19
 468 394 468 394 446 266 c 0,20,21
 424 136 424 136 348.5 59.5 c 128,-1,22
 273 -17 273 -17 170 -17 c 0,23,24
 96 -17 96 -17 49 30.5 c 128,-1,25
 2 78 2 78 -5 141 c 1,0,-1
EndSplineSet
EndChar

StartChar: uni0255
Encoding: 597 597 521
Width: 482
GlyphClass: 2
Flags: W
LayerCount: 2
Fore
SplineSet
203 73 m 1,0,1
 231 60 231 60 261 60 c 0,2,3
 295 60 295 60 317 73.5 c 128,-1,4
 339 87 339 87 342 106 c 0,5,6
 348 142 348 142 303 142 c 0,7,8
 274 142 274 142 247.5 121.5 c 128,-1,9
 221 101 221 101 203 73 c 1,0,1
32 273 m 0,10,11
 52 391 52 391 126 471 c 128,-1,12
 200 551 200 551 308 551 c 0,13,14
 382 551 382 551 423 503.5 c 128,-1,15
 464 456 464 456 470 398 c 1,16,-1
 383 374 l 1,17,18
 377 409 377 409 354.5 435.5 c 128,-1,19
 332 462 332 462 294 462 c 0,20,21
 233 462 233 462 189 406.5 c 128,-1,22
 145 351 145 351 131 267 c 0,23,24
 116 176 116 176 148 122 c 1,25,26
 177 163 177 163 221.5 191 c 128,-1,27
 266 219 266 219 318 219 c 0,28,29
 376 219 376 219 405.5 187 c 128,-1,30
 435 155 435 155 427 107 c 0,31,32
 418 51 418 51 369 17 c 128,-1,33
 320 -17 320 -17 245 -17 c 0,34,35
 194 -17 194 -17 160 -7 c 1,36,37
 142 -44 142 -44 134 -64 c 1,38,-1
 53 -44 l 1,39,40
 68 -4 68 -4 88 30 c 1,41,42
 5 108 5 108 32 273 c 0,10,11
EndSplineSet
EndChar

StartChar: uni0256
Encoding: 598 598 522
Width: 551
GlyphClass: 2
Flags: W
LayerCount: 2
Fore
SplineSet
31 267 m 0,0,1
 53 400 53 400 126.5 475.5 c 128,-1,2
 200 551 200 551 292 551 c 0,3,4
 340 551 340 551 371.5 524.5 c 128,-1,5
 403 498 403 498 414 463 c 1,6,-1
 463 761 l 1,7,-1
 561 761 l 1,8,-1
 430 -31 l 2,9,10
 413 -135 413 -135 484 -135 c 0,11,12
 509 -135 509 -135 552 -128 c 1,13,-1
 537 -219 l 1,14,15
 467 -227 467 -227 451 -227 c 0,16,17
 302 -227 302 -227 333 -38 c 2,18,-1
 352 77 l 1,19,20
 327 36 327 36 285.5 9.5 c 128,-1,21
 244 -17 244 -17 197 -17 c 0,22,23
 157 -17 157 -17 123.5 -1 c 128,-1,24
 90 15 90 15 64 47 c 128,-1,25
 38 79 38 79 28.5 136 c 128,-1,26
 19 193 19 193 31 267 c 0,0,1
131 267 m 0,27,28
 116 177 116 177 142 124.5 c 128,-1,29
 168 72 168 72 226 72 c 0,30,31
 280 72 280 72 324 125 c 128,-1,32
 368 178 368 178 382 267 c 0,33,34
 397 355 397 355 370.5 408.5 c 128,-1,35
 344 462 344 462 289 462 c 0,36,37
 233 462 233 462 189.5 410 c 128,-1,38
 146 358 146 358 131 267 c 0,27,28
EndSplineSet
EndChar

StartChar: uni0257
Encoding: 599 599 523
Width: 551
GlyphClass: 2
Flags: W
LayerCount: 2
Fore
SplineSet
31 268 m 0,0,1
 53 400 53 400 126 475.5 c 128,-1,2
 199 551 199 551 292 551 c 0,3,4
 339 551 339 551 371.5 524 c 128,-1,5
 404 497 404 497 414 462 c 1,6,-1
 439 613 l 2,7,8
 452 692 452 692 504.5 734 c 128,-1,9
 557 776 557 776 631 776 c 0,10,11
 646 776 646 776 710 771 c 1,12,-1
 695 679 l 1,13,14
 663 683 663 683 633 683 c 0,15,16
 595 683 595 683 567.5 659 c 128,-1,17
 540 635 540 635 533 592 c 2,18,-1
 435 0 l 1,19,-1
 340 0 l 1,20,-1
 353 79 l 1,21,22
 330 40 330 40 287 11.5 c 128,-1,23
 244 -17 244 -17 197 -17 c 0,24,25
 157 -17 157 -17 123.5 -1 c 128,-1,26
 90 15 90 15 64 47.5 c 128,-1,27
 38 80 38 80 28.5 137 c 128,-1,28
 19 194 19 194 31 268 c 0,0,1
131 268 m 0,29,30
 116 175 116 175 142 123 c 128,-1,31
 168 71 168 71 225 71 c 0,32,33
 278 71 278 71 322.5 123.5 c 128,-1,34
 367 176 367 176 382 268 c 0,35,36
 397 356 397 356 370.5 409 c 128,-1,37
 344 462 344 462 289 462 c 0,38,39
 231 462 231 462 188.5 410 c 128,-1,40
 146 358 146 358 131 268 c 0,29,30
EndSplineSet
EndChar

StartChar: uni0258
Encoding: 600 600 524
Width: 523
GlyphClass: 2
Flags: W
LayerCount: 2
Fore
SplineSet
25 232 m 1,0,1
 28 260 28 260 31 276 c 0,2,3
 51 399 51 399 127.5 475 c 128,-1,4
 204 551 204 551 303 551 c 0,5,6
 404 551 404 551 456.5 474 c 128,-1,7
 509 397 509 397 488 270 c 0,8,9
 466 137 466 137 387 60 c 128,-1,10
 308 -17 308 -17 204 -17 c 0,11,12
 123 -17 123 -17 75.5 22 c 128,-1,13
 28 61 28 61 13 119 c 1,14,-1
 101 149 l 1,15,16
 113 113 113 113 142.5 90.5 c 128,-1,17
 172 68 172 68 216 68 c 0,18,19
 280 68 280 68 325 115.5 c 128,-1,20
 370 163 370 163 382 232 c 1,21,-1
 25 232 l 1,0,1
135 306 m 1,22,-1
 394 306 l 1,23,24
 402 373 402 373 375.5 419.5 c 128,-1,25
 349 466 349 466 289 466 c 0,26,27
 230 466 230 466 188.5 420 c 128,-1,28
 147 374 147 374 135 306 c 1,22,-1
EndSplineSet
EndChar

StartChar: uni025A
Encoding: 602 602 526
Width: 620
GlyphClass: 2
Flags: W
LayerCount: 2
Fore
SplineSet
22 227 m 1,0,-1
 391 386 l 1,1,2
 364 465 364 465 284 465 c 0,3,4
 196 465 196 465 140 384 c 1,5,-1
 62 413 l 1,6,7
 97 474 97 474 157.5 512.5 c 128,-1,8
 218 551 218 551 300 551 c 0,9,10
 369 551 369 551 413.5 516.5 c 128,-1,11
 458 482 458 482 479 427 c 1,12,-1
 559 465 l 1,13,14
 563 431 563 431 581 410.5 c 128,-1,15
 599 390 599 390 625 390 c 0,16,17
 652 390 652 390 667 395 c 1,18,-1
 653 313 l 1,19,20
 624 306 624 306 603 306 c 0,21,22
 573 306 573 306 550.5 320.5 c 128,-1,23
 528 335 528 335 520 357 c 1,24,-1
 493 342 l 1,25,26
 494 305 494 305 487 265 c 0,27,28
 466 141 466 141 390 62 c 128,-1,29
 314 -17 314 -17 208 -17 c 0,30,31
 139 -17 139 -17 93 21 c 128,-1,32
 47 59 47 59 31.5 112.5 c 128,-1,33
 16 166 16 166 22 227 c 1,0,-1
120 184 m 1,34,35
 119 129 119 129 147.5 98 c 128,-1,36
 176 67 176 67 222 67 c 0,37,38
 276 67 276 67 318.5 109.5 c 128,-1,39
 361 152 361 152 377 221 c 0,40,41
 384 242 384 242 388 268 c 0,42,43
 390 283 390 283 393 300 c 1,44,-1
 120 184 l 1,34,35
EndSplineSet
EndChar

StartChar: uni025B
Encoding: 603 603 527
Width: 459
GlyphClass: 2
Flags: W
LayerCount: 2
Fore
SplineSet
12 150 m 0,0,1
 20 200 20 200 51.5 233.5 c 128,-1,2
 83 267 83 267 123 282 c 1,3,-1
 123 283 l 1,4,5
 59 321 59 321 71 398 c 0,6,7
 82 465 82 465 140.5 508 c 128,-1,8
 199 551 199 551 283 551 c 0,9,10
 410 551 410 551 453 428 c 1,11,-1
 367 393 l 1,12,13
 355 423 355 423 329 442.5 c 128,-1,14
 303 462 303 462 270 462 c 0,15,16
 227 462 227 462 201 443 c 128,-1,17
 175 424 175 424 170 392 c 0,18,19
 164 358 164 358 186.5 336.5 c 128,-1,20
 209 315 209 315 260 315 c 2,21,-1
 311 315 l 1,22,-1
 298 237 l 1,23,-1
 247 237 l 2,24,25
 183 237 183 237 150 212 c 128,-1,26
 117 187 117 187 111 151 c 0,27,28
 105 114 105 114 134.5 93 c 128,-1,29
 164 72 164 72 207 72 c 0,30,31
 245 72 245 72 281.5 92 c 128,-1,32
 318 112 318 112 341 139 c 1,33,-1
 411 102 l 1,34,35
 376 49 376 49 317.5 16 c 128,-1,36
 259 -17 259 -17 191 -17 c 0,37,38
 101 -17 101 -17 50 27.5 c 128,-1,39
 -1 72 -1 72 12 150 c 0,0,1
EndSplineSet
EndChar

StartChar: uni025C
Encoding: 604 604 528
Width: 459
GlyphClass: 2
Flags: W
LayerCount: 2
Fore
SplineSet
-12 102 m 1,0,-1
 70 139 l 1,1,2
 84 112 84 112 114 92 c 128,-1,3
 144 72 144 72 182 72 c 0,4,5
 226 72 226 72 262 93 c 128,-1,6
 298 114 298 114 304 151 c 0,7,8
 310 187 310 187 285.5 212 c 128,-1,9
 261 237 261 237 198 237 c 2,10,-1
 145 237 l 1,11,-1
 158 315 l 1,12,-1
 211 315 l 2,13,14
 261 315 261 315 290.5 336.5 c 128,-1,15
 320 358 320 358 326 392 c 0,16,17
 331 424 331 424 311.5 443 c 128,-1,18
 292 462 292 462 249 462 c 0,19,20
 216 462 216 462 183 442.5 c 128,-1,21
 150 423 150 423 128 393 c 1,22,-1
 53 428 l 1,23,24
 137 551 137 551 264 551 c 0,25,26
 349 551 349 551 393.5 508 c 128,-1,27
 438 465 438 465 426 398 c 0,28,29
 413 322 413 322 335 283 c 1,30,-1
 336 282 l 1,31,32
 371 267 371 267 392 233.5 c 128,-1,33
 413 200 413 200 404 150 c 0,34,35
 391 72 391 72 324.5 27.5 c 128,-1,36
 258 -17 258 -17 168 -17 c 0,37,38
 101 -17 101 -17 53.5 16 c 128,-1,39
 6 49 6 49 -12 102 c 1,0,-1
EndSplineSet
EndChar

StartChar: uni025D
Encoding: 605 605 529
Width: 538
GlyphClass: 2
Flags: W
LayerCount: 2
Fore
SplineSet
-12 102 m 1,0,-1
 70 139 l 1,1,2
 81 114 81 114 112 93 c 128,-1,3
 143 72 143 72 182 72 c 0,4,5
 232 72 232 72 265 93.5 c 128,-1,6
 298 115 298 115 304 152 c 0,7,8
 310 188 310 188 284.5 212.5 c 128,-1,9
 259 237 259 237 198 237 c 2,10,-1
 145 237 l 1,11,-1
 158 315 l 1,12,-1
 210 315 l 2,13,14
 261 315 261 315 290.5 337 c 128,-1,15
 320 359 320 359 326 392 c 0,16,17
 331 423 331 423 312.5 442.5 c 128,-1,18
 294 462 294 462 249 462 c 0,19,20
 181 462 181 462 128 393 c 1,21,-1
 53 428 l 1,22,23
 139 551 139 551 264 551 c 0,24,25
 377 551 377 551 416 477 c 1,26,-1
 494 519 l 1,27,28
 500 485 500 485 519.5 462 c 128,-1,29
 539 439 539 439 564 439 c 0,30,31
 588 439 588 439 604 445 c 1,32,-1
 590 361 l 1,33,34
 566 355 566 355 543 355 c 0,35,36
 511 355 511 355 487 371 c 128,-1,37
 463 387 463 387 456 409 c 1,38,-1
 425 393 l 2,39,40
 425 392 425 392 422.5 383 c 128,-1,41
 420 374 420 374 419 369 c 0,42,43
 409 340 409 340 384.5 317 c 128,-1,44
 360 294 360 294 336 283 c 1,45,-1
 337 282 l 1,46,47
 370 267 370 267 391.5 233.5 c 128,-1,48
 413 200 413 200 404 151 c 0,49,50
 391 72 391 72 325.5 27.5 c 128,-1,51
 260 -17 260 -17 166 -17 c 0,52,53
 99 -17 99 -17 51.5 17 c 128,-1,54
 4 51 4 51 -12 102 c 1,0,-1
EndSplineSet
EndChar

StartChar: uni025E
Encoding: 606 606 530
Width: 521
GlyphClass: 2
Flags: W
LayerCount: 2
Fore
SplineSet
31 268 m 0,0,1
 52 393 52 393 126 472 c 128,-1,2
 200 551 200 551 320 551 c 0,3,4
 401 551 401 551 450.5 511 c 128,-1,5
 500 471 500 471 488 397 c 0,6,7
 481 356 481 356 458 325.5 c 128,-1,8
 435 295 435 295 403 280 c 1,9,-1
 403 279 l 1,10,11
 481 243 481 243 465 151 c 0,12,13
 451 67 451 67 384.5 25 c 128,-1,14
 318 -17 318 -17 226 -17 c 0,15,16
 109 -17 109 -17 59 60 c 128,-1,17
 9 137 9 137 31 268 c 0,0,1
132 268 m 0,18,19
 114 162 114 162 150 117 c 128,-1,20
 186 72 186 72 243 72 c 0,21,22
 353 72 353 72 365 149 c 0,23,24
 371 183 371 183 347.5 208 c 128,-1,25
 324 233 324 233 267 233 c 2,26,-1
 231 233 l 1,27,-1
 245 314 l 1,28,-1
 281 314 l 2,29,30
 328 314 328 314 355 336.5 c 128,-1,31
 382 359 382 359 387 390 c 0,32,33
 393 426 393 426 371 444 c 128,-1,34
 349 462 349 462 306 462 c 0,35,36
 248 462 248 462 198 414.5 c 128,-1,37
 148 367 148 367 132 268 c 0,18,19
EndSplineSet
EndChar

StartChar: uni025F
Encoding: 607 607 531
Width: 260
GlyphClass: 2
Flags: W
LayerCount: 2
Fore
SplineSet
-18 256 m 1,0,-1
 -4 341 l 1,1,-1
 94 341 l 1,2,-1
 125 533 l 1,3,-1
 223 533 l 1,4,-1
 191 341 l 1,5,-1
 283 341 l 1,6,-1
 269 256 l 1,7,-1
 177 256 l 1,8,-1
 131 -26 l 2,9,10
 115 -121 115 -121 66 -170 c 128,-1,11
 17 -219 17 -219 -58 -219 c 2,12,-1
 -92 -219 l 1,13,-1
 -78 -131 l 1,14,-1
 -60 -131 l 2,15,16
 15 -131 15 -131 34 -21 c 2,17,-1
 80 256 l 1,18,-1
 -18 256 l 1,0,-1
EndSplineSet
EndChar

StartChar: uni0260
Encoding: 608 608 532
Width: 547
GlyphClass: 2
Flags: W
LayerCount: 2
Fore
SplineSet
34 277 m 256,0,1
 55 401 55 401 125.5 476 c 128,-1,2
 196 551 196 551 288 551 c 0,3,4
 336 551 336 551 365.5 524.5 c 128,-1,5
 395 498 395 498 405 463 c 1,6,-1
 430 613 l 2,7,8
 443 691 443 691 497.5 733.5 c 128,-1,9
 552 776 552 776 623 776 c 0,10,11
 652 776 652 776 702 772 c 1,12,-1
 687 680 l 1,13,14
 655 684 655 684 626 684 c 0,15,16
 589 684 589 684 559.5 659.5 c 128,-1,17
 530 635 530 635 523 592 c 2,18,-1
 437 70 l 2,19,20
 426 3 426 3 407.5 -48 c 128,-1,21
 389 -99 389 -99 357.5 -141 c 128,-1,22
 326 -183 326 -183 277.5 -205 c 128,-1,23
 229 -227 229 -227 165 -227 c 0,24,25
 40 -227 40 -227 -12 -126 c 1,26,-1
 62 -78 l 1,27,28
 106 -143 106 -143 181 -143 c 0,29,30
 242 -143 242 -143 280.5 -94 c 128,-1,31
 319 -45 319 -45 332 28 c 2,32,-1
 342 83 l 1,33,34
 318 48 318 48 281 26 c 128,-1,35
 244 4 244 4 201 4 c 0,36,37
 107 4 107 4 60 78.5 c 128,-1,38
 13 153 13 153 34 277 c 256,0,1
134 277 m 0,39,40
 119 187 119 187 145.5 139.5 c 128,-1,41
 172 92 172 92 223 92 c 0,42,43
 279 92 279 92 319 140.5 c 128,-1,44
 359 189 359 189 374 278 c 0,45,46
 388 362 388 362 363.5 412 c 128,-1,47
 339 462 339 462 285 462 c 0,48,49
 232 462 232 462 190 412.5 c 128,-1,50
 148 363 148 363 134 277 c 0,39,40
EndSplineSet
EndChar

StartChar: uni0262
Encoding: 610 610 534
Width: 527
GlyphClass: 2
Flags: W
LayerCount: 2
Fore
SplineSet
31 265 m 0,0,1
 52 394 52 394 128.5 472 c 128,-1,2
 205 550 205 550 319 550 c 0,3,4
 448 550 448 550 492 419 c 1,5,-1
 404 382 l 1,6,7
 375 461 375 461 304 461 c 0,8,9
 237 461 237 461 191 409 c 128,-1,10
 145 357 145 357 130 265 c 0,11,12
 115 175 115 175 144.5 124 c 128,-1,13
 174 73 174 73 239 73 c 0,14,15
 290 73 290 73 326 104.5 c 128,-1,16
 362 136 362 136 374 186 c 2,17,-1
 379 218 l 1,18,-1
 248 218 l 1,19,-1
 261 299 l 1,20,-1
 484 299 l 1,21,-1
 435 0 l 1,22,-1
 361 0 l 1,23,-1
 366 55 l 1,24,25
 346 26 346 26 306.5 4.5 c 128,-1,26
 267 -17 267 -17 220 -17 c 0,27,28
 116 -17 116 -17 62.5 57 c 128,-1,29
 9 131 9 131 31 265 c 0,0,1
EndSplineSet
EndChar

StartChar: uni0263
Encoding: 611 611 535
Width: 484
GlyphClass: 2
Flags: W
LayerCount: 2
Fore
SplineSet
49 533 m 1,0,-1
 157 533 l 1,1,-1
 209 149 l 1,2,-1
 212 114 l 1,3,-1
 214 114 l 1,4,-1
 231 149 l 1,5,-1
 411 533 l 1,6,-1
 519 533 l 1,7,-1
 272 59 l 1,8,9
 328 -11 328 -11 316 -86 c 0,10,11
 306 -148 306 -148 262 -187.5 c 128,-1,12
 218 -227 218 -227 157 -227 c 0,13,14
 99 -227 99 -227 67.5 -188 c 128,-1,15
 36 -149 36 -149 47 -86 c 0,16,17
 58 -18 58 -18 136 57 c 1,18,-1
 49 533 l 1,0,-1
129 -86 m 0,19,20
 124 -114 124 -114 135 -133.5 c 128,-1,21
 146 -153 146 -153 170 -153 c 0,22,23
 195 -153 195 -153 212.5 -133.5 c 128,-1,24
 230 -114 230 -114 235 -86 c 0,25,26
 244 -34 244 -34 198 20 c 1,27,28
 139 -28 139 -28 129 -86 c 0,19,20
EndSplineSet
Substitution2: "'sups' Superscript lookup 5 subtable" uni02E0
Substitution2: "'aalt' Access All Alternates lookup 0 subtable" uni02E0
EndChar

StartChar: uni0264
Encoding: 612 612 536
Width: 454
GlyphClass: 2
Flags: W
LayerCount: 2
Fore
SplineSet
235 323 m 1,0,1
 157 237 157 237 144 163 c 0,2,3
 137 123 137 123 151 97.5 c 128,-1,4
 165 72 165 72 195 72 c 0,5,6
 223 72 223 72 244 98.5 c 128,-1,7
 265 125 265 125 272 163 c 0,8,9
 285 239 285 239 235 323 c 1,0,1
46 454 m 1,10,-1
 61 541 l 1,11,12
 100 551 100 551 123 551 c 0,13,14
 167 551 167 551 197.5 531 c 128,-1,15
 228 511 228 511 259 470 c 1,16,17
 344 551 344 551 424 551 c 0,18,19
 449 551 449 551 481 542 c 1,20,-1
 466 453 l 1,21,22
 443 461 443 461 411 461 c 0,23,24
 366 461 366 461 307 402 c 1,25,26
 347 333 347 333 363 281.5 c 128,-1,27
 379 230 379 230 367 162 c 0,28,29
 354 82 354 82 304.5 32.5 c 128,-1,30
 255 -17 255 -17 180 -17 c 0,31,32
 103 -17 103 -17 69.5 33.5 c 128,-1,33
 36 84 36 84 49 162 c 0,34,35
 57 210 57 210 81.5 257 c 128,-1,36
 106 304 106 304 129 332.5 c 128,-1,37
 152 361 152 361 190 402 c 1,38,39
 170 430 170 430 151 445.5 c 128,-1,40
 132 461 132 461 103 461 c 0,41,42
 91 461 91 461 46 454 c 1,10,-1
EndSplineSet
EndChar

StartChar: uni0265
Encoding: 613 613 537
Width: 530
GlyphClass: 2
Flags: W
LayerCount: 2
Fore
SplineSet
42 190 m 2,0,-1
 99 533 l 1,1,-1
 196 533 l 1,2,-1
 142 202 l 2,3,4
 120 72 120 72 209 72 c 0,5,6
 257 72 257 72 301 118 c 128,-1,7
 345 164 345 164 355 224 c 2,8,-1
 406 533 l 1,9,-1
 504 533 l 1,10,-1
 379 -223 l 1,11,-1
 281 -223 l 1,12,-1
 329 64 l 1,13,-1
 328 64 l 1,14,15
 305 31 305 31 263.5 7 c 128,-1,16
 222 -17 222 -17 174 -17 c 0,17,18
 143 -17 143 -17 117.5 -7.5 c 128,-1,19
 92 2 92 2 70 23.5 c 128,-1,20
 48 45 48 45 40 88 c 128,-1,21
 32 131 32 131 42 190 c 2,0,-1
EndSplineSet
EndChar

StartChar: uni0266
Encoding: 614 614 538
Width: 530
GlyphClass: 2
Flags: W
LayerCount: 2
Fore
SplineSet
21 0 m 1,0,-1
 121 605 l 2,1,2
 135 688 135 688 189.5 732 c 128,-1,3
 244 776 244 776 318 776 c 0,4,5
 370 776 370 776 413 770 c 1,6,-1
 398 679 l 1,7,8
 360 684 360 684 320 684 c 256,9,10
 280 684 280 684 251 655.5 c 128,-1,11
 222 627 222 627 215 586 c 2,12,-1
 196 469 l 1,13,-1
 197 469 l 1,14,15
 223 503 223 503 263.5 527 c 128,-1,16
 304 551 304 551 349 551 c 0,17,18
 380 551 380 551 406.5 542 c 128,-1,19
 433 533 433 533 455 511 c 128,-1,20
 477 489 477 489 485 446.5 c 128,-1,21
 493 404 493 404 483 343 c 2,22,-1
 426 0 l 1,23,-1
 328 0 l 1,24,-1
 382 329 l 2,25,26
 404 462 404 462 317 462 c 0,27,28
 267 462 267 462 223.5 417 c 128,-1,29
 180 372 180 372 169 309 c 2,30,-1
 118 0 l 1,31,-1
 21 0 l 1,0,-1
EndSplineSet
Substitution2: "'sups' Superscript lookup 5 subtable" uni02B1
Substitution2: "'aalt' Access All Alternates lookup 0 subtable" uni02B1
EndChar

StartChar: uni0267
Encoding: 615 615 539
Width: 531
GlyphClass: 2
Flags: W
LayerCount: 2
Fore
SplineSet
21 0 m 1,0,-1
 121 604 l 2,1,2
 135 688 135 688 189.5 732 c 128,-1,3
 244 776 244 776 318 776 c 0,4,5
 370 776 370 776 413 770 c 1,6,-1
 398 679 l 1,7,8
 370 684 370 684 320 684 c 0,9,10
 279 684 279 684 250.5 655 c 128,-1,11
 222 626 222 626 215 584 c 2,12,-1
 196 469 l 1,13,-1
 197 469 l 1,14,15
 223 503 223 503 263.5 527 c 128,-1,16
 304 551 304 551 349 551 c 0,17,18
 379 551 379 551 404.5 542 c 128,-1,19
 430 533 430 533 453 512 c 128,-1,20
 476 491 476 491 484.5 448 c 128,-1,21
 493 405 493 405 483 343 c 2,22,-1
 421 -31 l 2,23,24
 405 -130 405 -130 357 -178 c 128,-1,25
 309 -226 309 -226 223 -226 c 0,26,27
 206 -226 206 -226 146 -221 c 1,28,-1
 161 -133 l 1,29,30
 198 -137 198 -137 219 -137 c 0,31,32
 266 -137 266 -137 289.5 -113.5 c 128,-1,33
 313 -90 313 -90 324 -26 c 2,34,-1
 382 329 l 2,35,36
 404 462 404 462 317 462 c 0,37,38
 267 462 267 462 223 416 c 128,-1,39
 179 370 179 370 169 309 c 2,40,-1
 118 0 l 1,41,-1
 21 0 l 1,0,-1
EndSplineSet
EndChar

StartChar: uni0268
Encoding: 616 616 540
Width: 253
GlyphClass: 2
Flags: W
LayerCount: 2
Fore
SplineSet
130 625 m 1,0,-1
 149 745 l 1,1,-1
 259 745 l 1,2,-1
 239 625 l 1,3,-1
 130 625 l 1,0,-1
-3 252 m 1,4,-1
 11 338 l 1,5,-1
 88 338 l 1,6,-1
 120 533 l 1,7,-1
 217 533 l 1,8,-1
 185 338 l 1,9,-1
 261 338 l 1,10,-1
 247 252 l 1,11,-1
 170 252 l 1,12,-1
 129 0 l 1,13,-1
 32 0 l 1,14,-1
 73 252 l 1,15,-1
 -3 252 l 1,4,-1
EndSplineSet
EndChar

StartChar: uni0269
Encoding: 617 617 541
Width: 311
GlyphClass: 2
Flags: W
LayerCount: 2
Fore
SplineSet
38 155 m 2,0,-1
 100 533 l 1,1,-1
 198 533 l 1,2,-1
 137 161 l 2,3,4
 123 75 123 75 191 75 c 0,5,6
 225 75 225 75 262 80 c 1,7,-1
 247 -9 l 1,8,9
 173 -17 173 -17 156 -17 c 0,10,11
 91 -17 91 -17 57 25 c 128,-1,12
 23 67 23 67 38 155 c 2,0,-1
EndSplineSet
EndChar

StartChar: uni026B
Encoding: 619 619 543
Width: 246
GlyphClass: 2
Flags: W
LayerCount: 2
Fore
SplineSet
-7 347 m 1,0,-1
 8 436 l 1,1,2
 56 451 56 451 77 451 c 0,3,4
 86 451 86 451 102 448 c 1,5,-1
 154 761 l 1,6,-1
 252 761 l 1,7,-1
 197 429 l 1,8,9
 204 428 204 428 212 428 c 0,10,11
 225 428 225 428 241 430 c 0,12,13
 269 433 269 433 291 442 c 1,14,-1
 276 352 l 1,15,16
 252 342 252 342 227 341 c 0,17,18
 219 340 219 340 210 340 c 0,19,20
 197 340 197 340 182 342 c 1,21,-1
 126 0 l 1,22,-1
 28 0 l 1,23,-1
 87 360 l 1,24,25
 76 362 76 362 62 362 c 0,26,27
 41 362 41 362 -7 347 c 1,0,-1
EndSplineSet
EndChar

StartChar: uni026C
Encoding: 620 620 544
Width: 422
GlyphClass: 2
Flags: W
LayerCount: 2
Fore
SplineSet
54 414 m 0,0,1
 62 464 62 464 99.5 499 c 128,-1,2
 137 534 137 534 191 534 c 0,3,4
 244 534 244 534 273 498 c 1,5,-1
 317 761 l 1,6,-1
 415 761 l 1,7,-1
 348 360 l 1,8,-1
 448 360 l 1,9,-1
 434 276 l 1,10,-1
 334 276 l 1,11,-1
 289 0 l 1,12,-1
 191 0 l 1,13,-1
 237 276 l 1,14,-1
 195 276 l 2,15,16
 124 276 124 276 84 313.5 c 128,-1,17
 44 351 44 351 54 414 c 0,0,1
141 414 m 0,18,19
 137 391 137 391 153.5 375.5 c 128,-1,20
 170 360 170 360 197 360 c 2,21,-1
 251 360 l 1,22,-1
 253 381 l 2,23,24
 256 411 256 411 236.5 433.5 c 128,-1,25
 217 456 217 456 190 456 c 0,26,27
 172 456 172 456 158 444.5 c 128,-1,28
 144 433 144 433 141 414 c 0,18,19
EndSplineSet
EndChar

StartChar: uni026D
Encoding: 621 621 545
Width: 321
GlyphClass: 2
Flags: W
LayerCount: 2
Fore
SplineSet
14 -55 m 2,0,-1
 149 761 l 1,1,-1
 248 761 l 1,2,-1
 114 -49 l 2,3,4
 100 -135 100 -135 166 -135 c 0,5,6
 189 -135 189 -135 237 -128 c 1,7,-1
 222 -219 l 1,8,9
 149 -227 149 -227 132 -227 c 0,10,11
 67 -227 67 -227 33 -185 c 128,-1,12
 -1 -143 -1 -143 14 -55 c 2,0,-1
EndSplineSet
EndChar

StartChar: uni026E
Encoding: 622 622 546
Width: 641
GlyphClass: 2
Flags: W
LayerCount: 2
Fore
SplineSet
89 -100 m 1,0,-1
 180 -70 l 1,1,2
 210 -138 210 -138 285 -138 c 0,3,4
 354 -138 354 -138 400.5 -94.5 c 128,-1,5
 447 -51 447 -51 458 17 c 0,6,7
 470 87 470 87 434.5 131.5 c 128,-1,8
 399 176 399 176 320 176 c 2,9,-1
 236 176 l 1,10,-1
 247 246 l 1,11,-1
 456 446 l 1,12,-1
 194 446 l 1,13,-1
 120 0 l 1,14,-1
 22 0 l 1,15,-1
 148 761 l 1,16,-1
 246 761 l 1,17,-1
 208 533 l 1,18,-1
 615 533 l 1,19,-1
 604 468 l 1,20,-1
 378 258 l 1,21,-1
 379 252 l 1,22,23
 474 247 474 247 524.5 180.5 c 128,-1,24
 575 114 575 114 559 17 c 0,25,26
 541 -90 541 -90 462.5 -158.5 c 128,-1,27
 384 -227 384 -227 275 -227 c 0,28,29
 125 -227 125 -227 89 -100 c 1,0,-1
EndSplineSet
EndChar

